{
.appVersion = "3150";
.formatVersion = 3;
DisplayStrings = (
"أشهد يا إلهي بأنك خلقتني ",
"بسم ٱلله 
ٱلرحمن ٱلرحیم
ٱلحمد لله رب ٱلعلمین
ٱلرحمـن ٱلرحیم
ملك یوم ٱلدین
إیاك نعبد وإیاك نستعین
ٱهدنا ٱلصرط ٱلمستقیم 
صرط ٱلذین أنعمت علیهم غیر ٱلمغضوب علیهم ولا ٱلضالین
",
"الصلاة الكبرى

تؤدى مرة في كل أربع وعشرين ساعة

للمصلي أن يقوم مقبلا إلى الله وإذا قام واستقر في مقامه ينظر إلى اليمين والشمال كمن ينتظر رحْمة ربه الرحمن الرحيم ثم يقول",
"ك/noonghunna-ar.fina/dotabove-ar ن فيكون ",
"اأإ ب ببب ت تتت ث ثثث ج ججج ح ححح خ خخخ د ـد ذ ـذ ر",
"ــر ز ــز س سسس ش ششش ص صصص ض ضضض ع ععع غ غغغ ف ففف",
"ق ققق ك ككك ل للل م ممم ن ننن ه ههه و ــــو ي ييي ء",
"AÁĂÂÄÀĀÅÃ",
"بـــــــــــــك يا علي بك يا وفي بك يا بهي",
"أنت الكافي وأنت الشافي وأنت الباقي يا باقي ",
"بــــــــك يا سسلطان بك يا رفعان بك يا ديان ",
"بـــــــــــــك يا أحد بك يا صمد بك يا فرد ",
"هـــــو الشافي الكافي المعين الغفور الرحيم ",
"لا إله إلا أنت",
"بـعجزي و/fehDotless-ar.init/fehDotless-ar.medi قوتك و/sad-ar.init ضعفي واقتدارك وفقري وغنائــك",
"ب/behDotless-ar.medi/heh-ar.fina",
"أشـــهد يا إلهي بأنك خل/fehDotless-ar.medi قتني لعرفانك وع/behDotless-ar.medi بادتك ",
"/lam_alef-ar",
"/ain-ar.medi"
);
axes = (
{
name = Weight;
tag = wght;
}
);
classes = (
{
automatic = 1;

glyphs = (
{
color = 5;
glyphname = A;
layers = (
{
anchors = (
{
name = bottom;
pos = (256,0);
},
{
name = ogonek;
pos = (464,0);
},
{
name = top;
pos = (256,704);
}
);
layerId = m01;
shapes = (
{
closed = 1;
nodes = (
(164,262,l),
(240,616,l),
(248,624,l),
(264,624,l),
(272,616,l),
(349,262,l),
(341,254,l),
(172,254,l)
);
},
{
closed = 1;
nodes = (
(97,0,l),
(105,8,l),
(144,174,l),
(152,182,l),
(360,182,l),
(368,174,l),
(407,8,l),
(415,0,l),
(472,0,l),
(480,8,l),
(320,696,l),
(312,704,l),
(200,704,l),
(192,696,l),
(32,8,l),
(40,0,l)
);
}
);
width = 512;
},
{
anchors = (
{
name = bottom;
pos = (256,0);
},
{
name = ogonek;
pos = (464,0);
},
{
name = top;
pos = (256,704);
}
);
layerId = "4FBB1917-F682-4041-B654-F2E0D2EF1242";
shapes = (
{
closed = 1;
nodes = (
(200,294,l),
(248,552,l),
(253,560,l),
(259,560,l),
(264,552,l),
(312,294,l),
(304,286,l),
(208,286,l)
);
},
{
closed = 1;
nodes = (
(144,0,l),
(152,8,l),
(176,134,l),
(184,142,l),
(328,142,l),
(336,134,l),
(360,8,l),
(368,0,l),
(472,0,l),
(480,8,l),
(344,696,l),
(336,704,l),
(176,704,l),
(168,696,l),
(32,8,l),
(40,0,l)
);
}
);
width = 512;
}
);
unicode = 65;
},
{
color = 5;
glyphname = Aogonek;
layers = (
{
layerId = m01;
shapes = (
{
closed = 1;
nodes = (
(164,262,l),
(240,616,l),
(248,624,l),
(264,624,l),
(272,616,l),
(349,262,l),
(341,254,l),
(172,254,l)
);
},
{
closed = 1;
nodes = (
(97,0,l),
(105,8,l),
(144,174,l),
(152,182,l),
(360,182,l),
(368,174,l),
(407,8,l),
(415,0,l),
(472,0,l),
(480,8,l),
(320,696,l),
(312,704,l),
(200,704,l),
(192,696,l),
(32,8,l),
(40,0,l)
);
}
);
width = 512;
},
{
layerId = "4FBB1917-F682-4041-B654-F2E0D2EF1242";
shapes = (
{
closed = 1;
nodes = (
(164,262,l),
(240,616,l),
(248,624,l),
(264,624,l),
(272,616,l),
(349,262,l),
(341,254,l),
(172,254,l)
);
},
{
closed = 1;
nodes = (
(97,0,l),
(105,8,l),
(144,174,l),
(152,182,l),
(360,182,l),
(368,174,l),
(407,8,l),
(415,0,l),
(472,0,l),
(480,8,l),
(320,696,l),
(312,704,l),
(200,704,l),
(192,696,l),
(32,8,l),
(40,0,l)
);
}
);
width = 512;
}
);
unicode = 260;
},
{
color = 5;
glyphname = AE;
layers = (
{
layerId = m01;
shapes = (
{
closed = 1;
nodes = (
(254,624,l),
(295,624,l),
(295,252,l),
(162,252,l)
);
},
{
closed = 1;
nodes = (
(105,0,l),
(148,172,l),
(295,172,l),
(295,0,l),
(546,0,l),
(546,80,l),
(375,80,l),
(375,323,l),
(537,323,l),
(537,403,l),
(375,403,l),
(375,624,l),
(546,624,l),
(546,704,l),
(208,704,l),
(32,0,l)
);
}
);
width = 600;
},
{
layerId = "4FBB1917-F682-4041-B654-F2E0D2EF1242";
shapes = (
{
closed = 1;
nodes = (
(254,624,l),
(295,624,l),
(295,252,l),
(162,252,l)
);
},
{
closed = 1;
nodes = (
(105,0,l),
(148,172,l),
(295,172,l),
(295,0,l),
(546,0,l),
(546,80,l),
(375,80,l),
(375,323,l),
(537,323,l),
(537,403,l),
(375,403,l),
(375,624,l),
(546,624,l),
(546,704,l),
(208,704,l),
(32,0,l)
);
}
);
width = 600;
}
);
unicode = 198;
},
{
color = 5;
glyphname = B;
layers = (
{
layerId = m01;
shapes = (
{
closed = 1;
nodes = (
(153,415,l),
(153,616,l),
(161,624,l),
(256,624,ls),
(312,624,o),
(343,592,o),
(343,543,cs),
(343,497,ls),
(343,440,o),
(328,407,o),
(256,407,cs),
(161,407,l)
);
},
{
closed = 1;
nodes = (
(272,0,ls),
(384,0,o),
(440,40,o),
(440,129,cs),
(440,271,ls),
(440,315,o),
(414,354,o),
(353,368,c),
(353,376,l),
(392,384,o),
(416,411,o),
(416,465,cs),
(416,575,ls),
(416,664,o),
(358,704,o),
(272,704,cs),
(88,704,l),
(80,696,l),
(80,8,l),
(88,0,l)
);
},
{
closed = 1;
nodes = (
(153,88,l),
(153,327,l),
(161,335,l),
(256,335,ls),
(336,335,o),
(367,305,o),
(367,239,cs),
(367,161,ls),
(367,102,o),
(352,80,o),
(256,80,cs),
(161,80,l)
);
}
);
width = 512;
},
{
layerId = "4FBB1917-F682-4041-B654-F2E0D2EF1242";
shapes = (
{
closed = 1;
nodes = (
(152,415,l),
(152,616,l),
(160,624,l),
(232,624,ls),
(312,624,o),
(344,592,o),
(344,543,cs),
(344,497,ls),
(344,440,o),
(328,407,o),
(248,407,cs),
(160,407,l)
);
},
{
closed = 1;
nodes = (
(256,0,ls),
(400,0,o),
(440,48,o),
(440,129,cs),
(440,255,ls),
(440,312,o),
(411,361,o),
(353,369,c),
(353,382,l),
(392,390,o),
(416,419,o),
(416,481,cs),
(416,559,ls),
(416,640,o),
(366,704,o),
(238,704,cs),
(88,704,l),
(80,696,l),
(80,8,l),
(88,0,l)
);
},
{
closed = 1;
nodes = (
(152,88,l),
(152,327,l),
(160,335,l),
(256,335,ls),
(336,335,o),
(368,289,o),
(368,239,cs),
(368,145,ls),
(368,102,o),
(336,80,o),
(256,80,cs),
(160,80,l)
);
}
);
width = 512;
}
);
unicode = 66;
},
{
color = 5;
glyphname = C;
layers = (
{
layerId = m01;
shapes = (
{
closed = 1;
nodes = (
(384,-16,o),
(440,57,o),
(440,161,cs),
(440,217,l),
(432,225,l),
(375,225,l),
(367,217,l),
(367,193,ls),
(367,105,o),
(336,64,o),
(256,64,cs),
(176,64,o),
(145,105,o),
(145,193,cs),
(145,511,ls),
(145,599,o),
(176,640,o),
(256,640,cs),
(336,640,o),
(367,599,o),
(367,511,cs),
(367,487,l),
(375,479,l),
(432,479,l),
(440,487,l),
(440,543,ls),
(440,647,o),
(384,720,o),
(256,720,cs),
(128,720,o),
(72,647,o),
(72,543,cs),
(72,161,ls),
(72,57,o),
(128,-16,o),
(256,-16,cs)
);
}
);
width = 512;
},
{
layerId = "4FBB1917-F682-4041-B654-F2E0D2EF1242";
shapes = (
{
closed = 1;
nodes = (
(392,-16,o),
(440,72,o),
(440,177,cs),
(440,249,l),
(432,257,l),
(320,257,l),
(312,249,l),
(312,217,ls),
(312,160,o),
(302,128,o),
(256,128,cs),
(212,128,o),
(200,176,o),
(200,249,cs),
(200,455,ls),
(200,528,o),
(212,576,o),
(256,576,cs),
(302,576,o),
(312,544,o),
(312,495,cs),
(312,463,l),
(320,455,l),
(432,455,l),
(440,463,l),
(440,527,ls),
(440,632,o),
(392,720,o),
(256,720,cs),
(136,720,o),
(72,648,o),
(72,535,cs),
(72,169,ls),
(72,56,o),
(136,-16,o),
(256,-16,cs)
);
}
);
width = 512;
},
{
associatedMasterId = m01;
layerId = "57356E81-64D8-4910-999F-30C2CEFCC66F";
name = "Jun 4, 22, 21:38";
shapes = (
{
closed = 1;
nodes = (
(384,-16,o),
(440,57,o),
(440,161,cs),
(440,543,ls),
(440,647,o),
(384,720,o),
(256,720,cs),
(128,720,o),
(72,647,o),
(72,543,cs),
(72,161,ls),
(72,57,o),
(128,-16,o),
(256,-16,cs)
);
},
{
closed = 1;
nodes = (
(176,64,o),
(144,105,o),
(144,193,cs),
(144,511,ls),
(144,599,o),
(176,640,o),
(256,640,cs),
(336,640,o),
(368,599,o),
(368,511,cs),
(368,193,ls),
(368,105,o),
(336,64,o),
(256,64,cs)
);
}
);
width = 512;
}
);
unicode = 67;
},
{
color = 5;
glyphname = D;
layers = (
{
anchors = (
{
name = top;
pos = (235,704);
}
);
layerId = m01;
shapes = (
{
closed = 1;
nodes = (
(256,0,ls),
(400,0,o),
(440,41,o),
(440,161,cs),
(440,543,ls),
(440,663,o),
(400,704,o),
(256,704,cs),
(88,704,l),
(80,696,l),
(80,8,l),
(88,0,l)
);
},
{
closed = 1;
nodes = (
(153,88,l),
(153,616,l),
(161,624,l),
(256,624,ls),
(336,624,o),
(367,599,o),
(367,511,cs),
(367,193,ls),
(367,103,o),
(336,80,o),
(256,80,cs),
(161,80,l)
);
}
);
width = 512;
},
{
anchors = (
{
name = top;
pos = (235,704);
}
);
layerId = "4FBB1917-F682-4041-B654-F2E0D2EF1242";
shapes = (
{
closed = 1;
nodes = (
(256,0,ls),
(384,0,o),
(440,80,o),
(440,193,cs),
(440,511,ls),
(440,624,o),
(384,704,o),
(256,704,cs),
(80,704,l),
(72,696,l),
(72,8,l),
(80,0,l)
);
},
{
closed = 1;
nodes = (
(200,152,l),
(200,552,l),
(208,560,l),
(256,560,ls),
(296,560,o),
(312,538,o),
(312,431,cs),
(312,273,ls),
(312,168,o),
(296,144,o),
(256,144,cs),
(208,144,l)
);
}
);
width = 512;
}
);
unicode = 68;
},
{
color = 5;
glyphname = Eth;
layers = (
{
layerId = m01;
shapes = (
{
closed = 1;
nodes = (
(256,0,ls),
(400,0,o),
(440,41,o),
(440,161,cs),
(440,543,ls),
(440,663,o),
(400,704,o),
(256,704,cs),
(88,704,l),
(80,696,l),
(80,393,l),
(24,393,l),
(16,385,l),
(17,321,l),
(25,313,l),
(80,313,l),
(80,8,l),
(88,0,l)
);
},
{
closed = 1;
nodes = (
(153,313,l),
(240,313,l),
(248,321,l),
(248,385,l),
(240,393,l),
(153,393,l),
(153,616,l),
(161,624,l),
(256,624,ls),
(336,624,o),
(367,599,o),
(367,511,cs),
(367,193,ls),
(367,103,o),
(336,80,o),
(256,80,cs),
(161,80,l),
(153,88,l)
);
}
);
width = 512;
},
{
layerId = "4FBB1917-F682-4041-B654-F2E0D2EF1242";
shapes = (
{
closed = 1;
nodes = (
(256,0,ls),
(400,0,o),
(440,41,o),
(440,161,cs),
(440,543,ls),
(440,663,o),
(400,704,o),
(256,704,cs),
(88,704,l),
(80,696,l),
(80,393,l),
(24,393,l),
(16,385,l),
(17,321,l),
(25,313,l),
(80,313,l),
(80,8,l),
(88,0,l)
);
},
{
closed = 1;
nodes = (
(153,313,l),
(240,313,l),
(248,321,l),
(248,385,l),
(240,393,l),
(153,393,l),
(153,616,l),
(161,624,l),
(256,624,ls),
(336,624,o),
(367,599,o),
(367,511,cs),
(367,193,ls),
(367,103,o),
(336,80,o),
(256,80,cs),
(161,80,l),
(153,88,l)
);
}
);
width = 512;
}
);
unicode = 208;
},
{
color = 5;
glyphname = E;
layers = (
{
anchors = (
{
name = top;
pos = (267,704);
}
);
layerId = m01;
shapes = (
{
closed = 1;
nodes = (
(432,0,l),
(440,8,l),
(440,72,l),
(432,80,l),
(161,80,l),
(153,88,l),
(153,344,l),
(368,344,l),
(376,352,l),
(376,408,l),
(368,416,l),
(161,416,l),
(153,424,l),
(153,616,l),
(161,624,l),
(432,624,l),
(440,632,l),
(440,696,l),
(432,704,l),
(88,704,l),
(80,696,l),
(80,8,l),
(88,0,l)
);
}
);
width = 512;
},
{
anchors = (
{
name = top;
pos = (267,704);
}
);
layerId = "4FBB1917-F682-4041-B654-F2E0D2EF1242";
shapes = (
{
closed = 1;
nodes = (
(432,0,l),
(440,8,l),
(440,72,l),
(432,80,l),
(152,80,l),
(144,88,l),
(144,312,l),
(368,312,l),
(376,320,l),
(376,384,l),
(368,392,l),
(152,392,l),
(144,400,l),
(144,616,l),
(152,624,l),
(432,624,l),
(440,632,l),
(440,696,l),
(432,704,l),
(80,704,l),
(72,696,l),
(72,8,l),
(80,0,l)
);
}
);
width = 512;
}
);
unicode = 69;
},
{
color = 5;
glyphname = Eogonek;
layers = (
{
layerId = m01;
shapes = (
{
closed = 1;
nodes = (
(361,0,l),
(361,-8,l),
(331,-43,o),
(304,-64,o),
(304,-114,cs),
(304,-146,o),
(326,-186,o),
(372,-186,cs),
(421,-186,l),
(429,-178,l),
(429,-130,l),
(421,-122,l),
(378,-122,ls),
(362,-122,o),
(358,-115,o),
(358,-102,cs),
(358,-69,o),
(394,-32,o),
(432,0,c),
(440,8,l),
(440,72,l),
(432,80,l),
(161,80,l),
(153,88,l),
(153,344,l),
(368,344,l),
(376,352,l),
(376,408,l),
(368,416,l),
(161,416,l),
(153,424,l),
(153,616,l),
(161,624,l),
(432,624,l),
(440,632,l),
(440,696,l),
(432,704,l),
(88,704,l),
(80,696,l),
(80,8,l),
(88,0,l)
);
}
);
width = 512;
},
{
layerId = "4FBB1917-F682-4041-B654-F2E0D2EF1242";
shapes = (
{
closed = 1;
nodes = (
(361,0,l),
(361,-8,l),
(331,-43,o),
(304,-64,o),
(304,-114,cs),
(304,-146,o),
(326,-186,o),
(372,-186,cs),
(421,-186,l),
(429,-178,l),
(429,-130,l),
(421,-122,l),
(378,-122,ls),
(362,-122,o),
(358,-115,o),
(358,-102,cs),
(358,-69,o),
(394,-32,o),
(432,0,c),
(440,8,l),
(440,72,l),
(432,80,l),
(161,80,l),
(153,88,l),
(153,344,l),
(368,344,l),
(376,352,l),
(376,408,l),
(368,416,l),
(161,416,l),
(153,424,l),
(153,616,l),
(161,624,l),
(432,624,l),
(440,632,l),
(440,696,l),
(432,704,l),
(88,704,l),
(80,696,l),
(80,8,l),
(88,0,l)
);
}
);
width = 512;
},
{
associatedMasterId = m01;
layerId = "421E623A-20B1-4B00-9E36-FD52CB4721EC";
name = "Dec 24, 22, 22:44";
shapes = (
{
closed = 1;
nodes = (
(432,0,l),
(440,8,l),
(440,72,l),
(432,80,l),
(161,80,l),
(153,88,l),
(153,344,l),
(368,344,l),
(376,352,l),
(376,408,l),
(368,416,l),
(161,416,l),
(153,424,l),
(153,616,l),
(161,624,l),
(432,624,l),
(440,632,l),
(440,696,l),
(432,704,l),
(88,704,l),
(80,696,l),
(80,8,l),
(88,0,l)
);
}
);
visible = 1;
width = 512;
}
);
unicode = 280;
},
{
color = 5;
glyphname = F;
layers = (
{
layerId = m01;
shapes = (
{
closed = 1;
nodes = (
(145,0,l),
(153,8,l),
(153,336,l),
(161,344,l),
(400,344,l),
(408,352,l),
(408,408,l),
(400,416,l),
(161,416,l),
(153,424,l),
(153,616,l),
(161,624,l),
(464,624,l),
(472,632,l),
(472,696,l),
(464,704,l),
(88,704,l),
(80,696,l),
(80,8,l),
(88,0,l)
);
}
);
width = 512;
},
{
layerId = "4FBB1917-F682-4041-B654-F2E0D2EF1242";
shapes = (
{
closed = 1;
nodes = (
(192,0,l),
(200,8,l),
(200,304,l),
(208,312,l),
(376,312,l),
(384,320,l),
(384,448,l),
(376,456,l),
(208,456,l),
(200,464,l),
(200,552,l),
(208,560,l),
(440,560,l),
(448,568,l),
(448,696,l),
(440,704,l),
(80,704,l),
(72,696,l),
(72,8,l),
(80,0,l)
);
}
);
width = 512;
}
);
unicode = 70;
},
{
color = 5;
glyphname = G;
layers = (
{
anchors = (
{
name = top;
pos = (255,704);
}
);
layerId = m01;
shapes = (
{
closed = 1;
nodes = (
(310,-16,o),
(345,15,o),
(368,50,c),
(376,50,l),
(392,8,l),
(400,0,l),
(432,0,l),
(440,8,l),
(440,352,l),
(432,360,l),
(264,360,l),
(256,352,l),
(256,288,l),
(264,280,l),
(367,280,l),
(367,185,ls),
(367,112,o),
(336,64,o),
(256,64,cs),
(176,64,o),
(145,105,o),
(145,193,cs),
(145,511,ls),
(145,599,o),
(176,640,o),
(256,640,cs),
(336,640,o),
(367,599,o),
(367,511,cs),
(367,487,l),
(375,479,l),
(432,479,l),
(440,487,l),
(440,543,ls),
(440,648,o),
(384,720,o),
(256,720,cs),
(128,720,o),
(72,648,o),
(72,543,cs),
(72,161,ls),
(72,57,o),
(128,-16,o),
(256,-16,cs)
);
}
);
width = 512;
},
{
anchors = (
{
name = top;
pos = (255,704);
}
);
layerId = "4FBB1917-F682-4041-B654-F2E0D2EF1242";
shapes = (
{
closed = 1;
nodes = (
(286,-16,o),
(337,15,o),
(360,50,c),
(368,50,l),
(368,8,l),
(376,0,l),
(432,0,l),
(440,8,l),
(440,344,l),
(432,352,l),
(264,352,l),
(256,344,l),
(256,280,l),
(264,272,l),
(368,272,l),
(368,185,ls),
(368,112,o),
(336,64,o),
(256,64,cs),
(184,64,o),
(144,112,o),
(144,185,cs),
(144,519,ls),
(144,592,o),
(184,640,o),
(256,640,cs),
(328,640,o),
(368,592,o),
(368,519,cs),
(368,487,l),
(376,479,l),
(432,479,l),
(440,487,l),
(440,527,ls),
(440,632,o),
(392,720,o),
(256,720,cs),
(136,720,o),
(72,648,o),
(72,535,cs),
(72,169,ls),
(72,56,o),
(138,-16,o),
(240,-16,cs)
);
}
);
width = 512;
}
);
unicode = 71;
},
{
color = 5;
glyphname = H;
layers = (
{
layerId = m01;
shapes = (
{
closed = 1;
nodes = (
(145,0,l),
(153,8,l),
(153,360,l),
(161,368,l),
(351,368,l),
(359,360,l),
(359,8,l),
(367,0,l),
(424,0,l),
(432,8,l),
(432,728,l),
(424,736,l),
(367,736,l),
(359,728,l),
(359,456,l),
(351,448,l),
(161,448,l),
(153,456,l),
(153,728,l),
(145,736,l),
(88,736,l),
(80,728,l),
(80,8,l),
(88,0,l)
);
}
);
width = 512;
},
{
layerId = "4FBB1917-F682-4041-B654-F2E0D2EF1242";
shapes = (
{
closed = 1;
nodes = (
(200,0,l),
(208,8,l),
(208,312,l),
(216,320,l),
(296,320,l),
(304,312,l),
(304,8,l),
(312,0,l),
(456,0,l),
(464,8,l),
(464,728,l),
(456,736,l),
(312,736,l),
(304,728,l),
(304,488,l),
(296,480,l),
(216,480,l),
(208,488,l),
(208,728,l),
(200,736,l),
(56,736,l),
(48,728,l),
(48,8,l),
(56,0,l)
);
}
);
width = 512;
}
);
unicode = 72;
},
{
color = 5;
glyphname = Hbar;
layers = (
{
layerId = m01;
shapes = (
{
closed = 1;
nodes = (
(145,0,l),
(153,8,l),
(153,343,l),
(161,351,l),
(351,351,l),
(359,343,l),
(359,8,l),
(367,0,l),
(424,0,l),
(432,8,l),
(432,560,l),
(472,560,l),
(480,568,l),
(480,632,l),
(472,640,l),
(432,640,l),
(432,696,l),
(424,704,l),
(367,704,l),
(359,696,l),
(359,640,l),
(153,640,l),
(153,696,l),
(145,704,l),
(88,704,l),
(80,696,l),
(80,640,l),
(40,640,l),
(32,632,l),
(32,568,l),
(40,560,l),
(80,560,l),
(80,8,l),
(88,0,l)
);
},
{
closed = 1;
nodes = (
(153,560,l),
(359,560,l),
(359,439,l),
(351,431,l),
(161,431,l),
(153,439,l)
);
}
);
width = 512;
},
{
layerId = "4FBB1917-F682-4041-B654-F2E0D2EF1242";
shapes = (
{
closed = 1;
nodes = (
(145,0,l),
(153,8,l),
(153,343,l),
(161,351,l),
(351,351,l),
(359,343,l),
(359,8,l),
(367,0,l),
(424,0,l),
(432,8,l),
(432,560,l),
(472,560,l),
(480,568,l),
(480,632,l),
(472,640,l),
(432,640,l),
(432,696,l),
(424,704,l),
(367,704,l),
(359,696,l),
(359,640,l),
(153,640,l),
(153,696,l),
(145,704,l),
(88,704,l),
(80,696,l),
(80,640,l),
(40,640,l),
(32,632,l),
(32,568,l),
(40,560,l),
(80,560,l),
(80,8,l),
(88,0,l)
);
},
{
closed = 1;
nodes = (
(153,560,l),
(359,560,l),
(359,439,l),
(351,431,l),
(161,431,l),
(153,439,l)
);
}
);
width = 512;
}
);
unicode = 294;
},
{
color = 5;
glyphname = I;
layers = (
{
anchors = (
{
name = top;
pos = (258,704);
}
);
layerId = m01;
shapes = (
{
closed = 1;
nodes = (
(456,0,l),
(464,8,l),
(464,72,l),
(456,80,l),
(301,80,l),
(293,88,l),
(293,616,l),
(301,624,l),
(456,624,l),
(464,632,l),
(464,696,l),
(456,704,l),
(56,704,l),
(48,696,l),
(48,632,l),
(56,624,l),
(211,624,l),
(219,616,l),
(219,88,l),
(211,80,l),
(56,80,l),
(48,72,l),
(48,8,l),
(56,0,l)
);
}
);
width = 512;
},
{
anchors = (
{
name = top;
pos = (258,704);
}
);
layerId = "4FBB1917-F682-4041-B654-F2E0D2EF1242";
shapes = (
{
closed = 1;
nodes = (
(448,0,l),
(456,8,l),
(456,136,l),
(448,144,l),
(328,144,l),
(320,152,l),
(320,552,l),
(328,560,l),
(448,560,l),
(456,568,l),
(456,696,l),
(448,704,l),
(64,704,l),
(56,696,l),
(56,568,l),
(64,560,l),
(184,560,l),
(192,552,l),
(192,152,l),
(184,144,l),
(64,144,l),
(56,136,l),
(56,8,l),
(64,0,l)
);
}
);
width = 512;
}
);
unicode = 73;
},
{
color = 0;
glyphname = IJ;
layers = (
{
layerId = m01;
width = 512;
},
{
layerId = "4FBB1917-F682-4041-B654-F2E0D2EF1242";
width = 512;
},
{
associatedMasterId = m01;
layerId = "E6093217-9E1B-4774-A262-88767339B00E";
name = "Jan 7, 23 at 20:46";
shapes = (
{
closed = 1;
nodes = (
(264,0,l),
(272,8,l),
(272,72,l),
(264,80,l),
(189,80,l),
(181,88,l),
(181,616,l),
(189,624,l),
(264,624,l),
(272,632,l),
(272,696,l),
(264,704,l),
(24,704,l),
(16,696,l),
(16,632,l),
(24,624,l),
(99,624,l),
(107,616,l),
(107,88,l),
(99,80,l),
(24,80,l),
(16,72,l),
(16,8,l),
(24,0,l)
);
},
{
closed = 1;
nodes = (
(424,-272,o),
(480,-199,o),
(480,-95,cs),
(480,696,l),
(472,704,l),
(312,704,l),
(304,696,l),
(304,632,l),
(312,624,l),
(399,624,l),
(407,616,l),
(407,-63,ls),
(407,-151,o),
(376,-192,o),
(296,-192,cs),
(216,-192,o),
(185,-151,o),
(185,-63,cs),
(185,-39,l),
(177,-31,l),
(120,-31,l),
(112,-39,l),
(112,-95,ls),
(112,-199,o),
(168,-272,o),
(296,-272,cs)
);
}
);
width = 512;
}
);
unicode = 306;
},
{
color = 5;
glyphname = J;
layers = (
{
layerId = m01;
shapes = (
{
closed = 1;
nodes = (
(384,-16,o),
(440,57,o),
(440,161,cs),
(440,696,l),
(432,704,l),
(208,704,l),
(200,696,l),
(200,632,l),
(208,624,l),
(359,624,l),
(367,616,l),
(367,193,ls),
(367,105,o),
(336,64,o),
(256,64,cs),
(176,64,o),
(145,105,o),
(145,193,cs),
(145,225,l),
(137,233,l),
(80,233,l),
(72,225,l),
(72,161,ls),
(72,57,o),
(128,-16,o),
(256,-16,cs)
);
}
);
width = 512;
},
{
layerId = "4FBB1917-F682-4041-B654-F2E0D2EF1242";
shapes = (
{
closed = 1;
nodes = (
(384,-16,o),
(440,64,o),
(440,177,cs),
(440,696,l),
(432,704,l),
(152,704,l),
(144,696,l),
(144,632,l),
(152,624,l),
(360,624,l),
(368,616,l),
(368,193,ls),
(368,120,o),
(336,64,o),
(256,64,cs),
(176,64,o),
(144,120,o),
(144,193,cs),
(144,225,l),
(136,233,l),
(80,233,l),
(72,225,l),
(72,185,ls),
(72,80,o),
(128,-16,o),
(256,-16,cs)
);
}
);
width = 512;
}
);
unicode = 74;
},
{
color = 5;
glyphname = K;
layers = (
{
layerId = m01;
shapes = (
{
closed = 1;
nodes = (
(145,0,l),
(153,8,l),
(153,332,l),
(161,340,l),
(220,340,l),
(400,8,l),
(408,0,l),
(464,0,l),
(472,8,l),
(472,16,l),
(280,371,l),
(280,387,l),
(458,688,l),
(458,696,l),
(450,704,l),
(394,704,l),
(386,696,l),
(225,420,l),
(161,420,l),
(153,428,l),
(153,696,l),
(145,704,l),
(88,704,l),
(80,696,l),
(80,8,l),
(88,0,l)
);
}
);
width = 512;
},
{
layerId = "4FBB1917-F682-4041-B654-F2E0D2EF1242";
shapes = (
{
closed = 1;
nodes = (
(136,0,l),
(144,8,l),
(144,324,l),
(152,332,l),
(181,332,l),
(393,8,l),
(401,0,l),
(464,0,l),
(472,8,l),
(472,16,l),
(249,363,l),
(249,379,l),
(458,688,l),
(458,696,l),
(450,704,l),
(383,704,l),
(375,696,l),
(186,412,l),
(152,412,l),
(144,420,l),
(144,696,l),
(136,704,l),
(80,704,l),
(72,696,l),
(72,8,l),
(80,0,l)
);
}
);
width = 512;
},
{
associatedMasterId = m01;
layerId = "CB604942-65FD-405A-9DFF-C63EAF8D848D";
name = "May 29, 22, 23:15";
shapes = (
{
closed = 1;
nodes = (
(144,0,l),
(152,8,l),
(152,324,l),
(160,332,l),
(221,332,l),
(401,8,l),
(409,0,l),
(464,0,l),
(472,8,l),
(472,16,l),
(283,363,l),
(283,379,l),
(458,688,l),
(458,696,l),
(450,704,l),
(395,704,l),
(387,696,l),
(226,412,l),
(160,412,l),
(152,420,l),
(152,696,l),
(144,704,l),
(88,704,l),
(80,696,l),
(80,8,l),
(88,0,l)
);
}
);
width = 512;
},
{
associatedMasterId = m01;
layerId = "9EBD3689-8A55-440B-AB93-4B0340235D37";
name = "May 29, 22, 23:21";
shapes = (
{
closed = 1;
nodes = (
(458,688,l),
(458,696,l),
(450,704,l),
(395,704,l),
(387,696,l),
(170,430,l),
(160,430,l),
(152,438,l),
(152,696,l),
(144,704,l),
(88,704,l),
(80,696,l),
(80,8,l),
(88,0,l),
(144,0,l),
(152,8,l),
(152,300,l)
);
},
{
closed = 1;
nodes = (
(197,419,l),
(401,8,l),
(409,0,l),
(464,0,l),
(472,8,l),
(472,16,l),
(250,469,l)
);
}
);
width = 512;
}
);
unicode = 75;
},
{
color = 5;
glyphname = L;
layers = (
{
anchors = (
{
name = top;
pos = (114,704);
}
);
layerId = m01;
shapes = (
{
closed = 1;
nodes = (
(440,0,l),
(448,8,l),
(448,72,l),
(440,80,l),
(161,80,l),
(153,88,l),
(153,696,l),
(145,704,l),
(88,704,l),
(80,696,l),
(80,8,l),
(88,0,l)
);
}
);
width = 512;
},
{
anchors = (
{
name = top;
pos = (138,704);
}
);
layerId = "4FBB1917-F682-4041-B654-F2E0D2EF1242";
shapes = (
{
closed = 1;
nodes = (
(448,0,l),
(456,8,l),
(456,136,l),
(448,144,l),
(208,144,l),
(200,152,l),
(200,696,l),
(192,704,l),
(80,704,l),
(72,696,l),
(72,8,l),
(80,0,l)
);
}
);
width = 512;
}
);
unicode = 76;
},
{
color = 5;
glyphname = M;
layers = (
{
layerId = m01;
shapes = (
{
closed = 1;
nodes = (
(128,0,l),
(136,8,l),
(136,624,l),
(144,624,l),
(218,264,l),
(226,256,l),
(286,256,l),
(294,264,l),
(368,624,l),
(376,624,l),
(376,8,l),
(384,0,l),
(440,0,l),
(448,8,l),
(448,696,l),
(440,704,l),
(336,704,l),
(328,696,l),
(260,336,l),
(252,336,l),
(184,696,l),
(176,704,l),
(72,704,l),
(64,696,l),
(64,8,l),
(72,0,l)
);
}
);
width = 512;
},
{
layerId = "4FBB1917-F682-4041-B654-F2E0D2EF1242";
shapes = (
{
closed = 1;
nodes = (
(136,0,l),
(144,8,l),
(144,624,l),
(168,624,l),
(193,279,l),
(201,271,l),
(310,271,l),
(318,279,l),
(344,624,l),
(368,624,l),
(368,8,l),
(376,0,l),
(432,0,l),
(440,8,l),
(440,696,l),
(432,704,l),
(304,704,l),
(296,696,l),
(272,351,l),
(240,351,l),
(216,696,l),
(208,704,l),
(80,704,l),
(72,696,l),
(72,8,l),
(80,0,l)
);
}
);
width = 512;
}
);
unicode = 77;
},
{
color = 5;
glyphname = N;
layers = (
{
anchors = (
{
name = top;
pos = (260,704);
}
);
layerId = m01;
shapes = (
{
closed = 1;
nodes = (
(144,0,l),
(152,8,l),
(152,624,l),
(160,624,l),
(304,8,l),
(312,0,l),
(424,0,l),
(432,8,l),
(432,696,l),
(424,704,l),
(368,704,l),
(360,696,l),
(360,80,l),
(352,80,l),
(208,696,l),
(200,704,l),
(88,704,l),
(80,696,l),
(80,8,l),
(88,0,l)
);
}
);
width = 512;
},
{
anchors = (
{
name = top;
pos = (260,704);
}
);
layerId = "4FBB1917-F682-4041-B654-F2E0D2EF1242";
shapes = (
{
closed = 1;
nodes = (
(136,0,l),
(144,8,l),
(144,624,l),
(160,624,l),
(312,8,l),
(320,0,l),
(432,0,l),
(440,8,l),
(440,696,l),
(432,704,l),
(376,704,l),
(368,696,l),
(368,80,l),
(352,80,l),
(208,696,l),
(200,704,l),
(80,704,l),
(72,696,l),
(72,8,l),
(80,0,l)
);
}
);
width = 512;
}
);
unicode = 78;
},
{
color = 5;
glyphname = O;
layers = (
{
anchors = (
{
name = top;
pos = (256,704);
}
);
layerId = m01;
shapes = (
{
closed = 1;
nodes = (
(384,-16,o),
(440,57,o),
(440,161,cs),
(440,543,ls),
(440,647,o),
(384,720,o),
(256,720,cs),
(128,720,o),
(72,647,o),
(72,543,cs),
(72,161,ls),
(72,57,o),
(128,-16,o),
(256,-16,cs)
);
},
{
closed = 1;
nodes = (
(176,64,o),
(145,105,o),
(145,193,cs),
(145,511,ls),
(145,599,o),
(176,640,o),
(256,640,cs),
(336,640,o),
(367,599,o),
(367,511,cs),
(367,193,ls),
(367,105,o),
(336,64,o),
(256,64,cs)
);
}
);
width = 512;
},
{
anchors = (
{
name = top;
pos = (256,704);
}
);
layerId = "4FBB1917-F682-4041-B654-F2E0D2EF1242";
shapes = (
{
closed = 1;
nodes = (
(399,-16,o),
(477,66,o),
(477,237,cs),
(477,463,ls),
(477,636,o),
(399,720,o),
(256,720,cs),
(115,720,o),
(35,636,o),
(35,463,cs),
(35,237,ls),
(35,66,o),
(113,-16,o),
(256,-16,cs)
);
},
{
closed = 1;
nodes = (
(185,122,o),
(171,179,o),
(171,259,cs),
(171,442,ls),
(171,519,o),
(182,582,o),
(256,582,cs),
(329,582,o),
(341,525,o),
(341,442,cs),
(341,259,ls),
(341,179,o),
(330,122,o),
(256,122,cs)
);
}
);
width = 512;
}
);
unicode = 79;
},
{
color = 5;
glyphname = Oslash;
layers = (
{
layerId = m01;
shapes = (
{
closed = 1;
nodes = (
(384,-16,o),
(440,57,o),
(440,161,cs),
(440,543,ls),
(440,647,o),
(384,720,o),
(256,720,cs),
(128,720,o),
(72,647,o),
(72,543,cs),
(72,161,ls),
(72,57,o),
(128,-16,o),
(256,-16,cs)
);
},
{
closed = 1;
nodes = (
(176,64,o),
(145,105,o),
(145,193,cs),
(145,511,ls),
(145,599,o),
(176,640,o),
(256,640,cs),
(336,640,o),
(367,599,o),
(367,511,cs),
(367,193,ls),
(367,105,o),
(336,64,o),
(256,64,cs)
);
}
);
width = 512;
},
{
layerId = "4FBB1917-F682-4041-B654-F2E0D2EF1242";
shapes = (
{
closed = 1;
nodes = (
(384,-16,o),
(440,57,o),
(440,161,cs),
(440,543,ls),
(440,647,o),
(384,720,o),
(256,720,cs),
(128,720,o),
(72,647,o),
(72,543,cs),
(72,161,ls),
(72,57,o),
(128,-16,o),
(256,-16,cs)
);
},
{
closed = 1;
nodes = (
(176,64,o),
(145,105,o),
(145,193,cs),
(145,511,ls),
(145,599,o),
(176,640,o),
(256,640,cs),
(336,640,o),
(367,599,o),
(367,511,cs),
(367,193,ls),
(367,105,o),
(336,64,o),
(256,64,cs)
);
}
);
width = 512;
}
);
unicode = 216;
},
{
color = 5;
glyphname = OE;
layers = (
{
layerId = m01;
shapes = (
{
closed = 1;
nodes = (
(199,-16,o),
(230,-9,o),
(253,3,c),
(256,0,l),
(504,0,l),
(512,8,l),
(512,72,l),
(504,80,l),
(329,80,l),
(321,88,l),
(321,344,l),
(440,344,l),
(448,352,l),
(448,408,l),
(440,416,l),
(329,416,l),
(321,424,l),
(321,616,l),
(329,624,l),
(504,624,l),
(512,632,l),
(512,696,l),
(504,704,l),
(256,704,l),
(253,701,l),
(230,713,o),
(199,720,o),
(160,720,cs),
(32,720,o),
(0,647,o),
(0,543,cs),
(0,161,ls),
(0,57,o),
(32,-16,o),
(160,-16,cs)
);
},
{
closed = 1;
nodes = (
(73,511,ls),
(73,599,o),
(80,640,o),
(160,640,cs),
(240,640,o),
(247,599,o),
(247,511,cs),
(247,193,ls),
(247,105,o),
(240,64,o),
(160,64,cs),
(80,64,o),
(73,105,o),
(73,193,cs)
);
}
);
width = 512;
},
{
layerId = "4FBB1917-F682-4041-B654-F2E0D2EF1242";
shapes = (
{
closed = 1;
nodes = (
(199,-16,o),
(230,-9,o),
(253,3,c),
(256,0,l),
(504,0,l),
(512,8,l),
(512,72,l),
(504,80,l),
(329,80,l),
(321,88,l),
(321,344,l),
(440,344,l),
(448,352,l),
(448,408,l),
(440,416,l),
(329,416,l),
(321,424,l),
(321,616,l),
(329,624,l),
(504,624,l),
(512,632,l),
(512,696,l),
(504,704,l),
(256,704,l),
(253,701,l),
(230,713,o),
(199,720,o),
(160,720,cs),
(32,720,o),
(0,647,o),
(0,543,cs),
(0,161,ls),
(0,57,o),
(32,-16,o),
(160,-16,cs)
);
},
{
closed = 1;
nodes = (
(73,511,ls),
(73,599,o),
(80,640,o),
(160,640,cs),
(240,640,o),
(247,599,o),
(247,511,cs),
(247,193,ls),
(247,105,o),
(240,64,o),
(160,64,cs),
(80,64,o),
(73,105,o),
(73,193,cs)
);
}
);
width = 512;
}
);
unicode = 338;
},
{
color = 5;
glyphname = P;
layers = (
{
layerId = m01;
shapes = (
{
closed = 1;
nodes = (
(153,616,l),
(161,624,l),
(256,624,ls),
(336,624,o),
(375,567,o),
(375,495,cs),
(375,423,o),
(336,366,o),
(256,366,cs),
(161,366,l),
(153,374,l)
);
},
{
closed = 1;
nodes = (
(145,0,l),
(153,8,l),
(153,294,l),
(256,294,ls),
(384,294,o),
(448,366,o),
(448,495,cs),
(448,624,o),
(384,704,o),
(256,704,cs),
(88,704,l),
(80,696,l),
(80,8,l),
(88,0,l)
);
}
);
width = 512;
},
{
layerId = "4FBB1917-F682-4041-B654-F2E0D2EF1242";
shapes = (
{
closed = 1;
nodes = (
(152,616,l),
(160,624,l),
(256,624,ls),
(336,624,o),
(376,567,o),
(376,495,cs),
(376,423,o),
(336,366,o),
(256,366,cs),
(160,366,l),
(152,374,l)
);
},
{
closed = 1;
nodes = (
(144,0,l),
(152,8,l),
(152,294,l),
(256,294,ls),
(384,294,o),
(448,366,o),
(448,495,cs),
(448,624,o),
(384,704,o),
(256,704,cs),
(88,704,l),
(80,696,l),
(80,8,l),
(88,0,l)
);
}
);
width = 512;
}
);
unicode = 80;
},
{
color = 5;
glyphname = Thorn;
layers = (
{
layerId = m01;
shapes = (
{
closed = 1;
nodes = (
(144,0,l),
(152,8,l),
(152,170,l),
(160,170,l),
(188,130,o),
(232,106,o),
(280,106,cs),
(368,106,o),
(432,162,o),
(432,282,cs),
(432,410,ls),
(432,530,o),
(368,586,o),
(280,586,cs),
(232,586,o),
(188,562,o),
(160,527,c),
(152,527,l),
(152,696,l),
(144,704,l),
(88,704,l),
(80,696,l),
(80,8,l),
(88,0,l)
);
},
{
closed = 1;
nodes = (
(192,186,o),
(152,218,o),
(152,314,cs),
(152,378,ls),
(152,474,o),
(192,506,o),
(256,506,cs),
(320,506,o),
(360,474,o),
(360,378,cs),
(360,314,ls),
(360,218,o),
(320,186,o),
(256,186,cs)
);
}
);
width = 512;
},
{
layerId = "4FBB1917-F682-4041-B654-F2E0D2EF1242";
shapes = (
{
closed = 1;
nodes = (
(144,0,l),
(152,8,l),
(152,170,l),
(160,170,l),
(188,130,o),
(232,106,o),
(280,106,cs),
(368,106,o),
(432,162,o),
(432,282,cs),
(432,410,ls),
(432,530,o),
(368,586,o),
(280,586,cs),
(232,586,o),
(188,562,o),
(160,527,c),
(152,527,l),
(152,696,l),
(144,704,l),
(88,704,l),
(80,696,l),
(80,8,l),
(88,0,l)
);
},
{
closed = 1;
nodes = (
(192,186,o),
(152,218,o),
(152,314,cs),
(152,378,ls),
(152,474,o),
(192,506,o),
(256,506,cs),
(320,506,o),
(360,474,o),
(360,378,cs),
(360,314,ls),
(360,218,o),
(320,186,o),
(256,186,cs)
);
}
);
width = 512;
}
);
unicode = 222;
},
{
color = 5;
glyphname = Q;
layers = (
{
layerId = m01;
shapes = (
{
closed = 1;
nodes = (
(176,64,o),
(145,105,o),
(145,193,cs),
(145,511,ls),
(145,599,o),
(176,640,o),
(256,640,cs),
(336,640,o),
(367,599,o),
(367,511,cs),
(367,193,ls),
(367,105,o),
(336,64,o),
(256,64,cs)
);
},
{
closed = 1;
nodes = (
(384,-208,l),
(392,-200,l),
(392,-136,l),
(384,-128,l),
(315,-128,ls),
(299,-128,o),
(291,-120,o),
(291,-104,cs),
(291,-14,l),
(396,0,o),
(440,57,o),
(440,161,cs),
(440,543,ls),
(440,647,o),
(384,720,o),
(256,720,cs),
(128,720,o),
(72,647,o),
(72,543,cs),
(72,161,ls),
(72,57,o),
(116,1,o),
(217,-13,c),
(217,-136,ls),
(217,-184,o),
(242,-208,o),
(290,-208,cs)
);
}
);
width = 512;
},
{
layerId = "4FBB1917-F682-4041-B654-F2E0D2EF1242";
shapes = (
{
closed = 1;
nodes = (
(176,64,o),
(144,120,o),
(144,193,cs),
(144,511,ls),
(144,584,o),
(176,640,o),
(256,640,cs),
(336,640,o),
(368,584,o),
(368,511,cs),
(368,193,ls),
(368,120,o),
(336,64,o),
(256,64,cs)
);
},
{
closed = 1;
nodes = (
(370,-208,l),
(378,-200,l),
(378,-136,l),
(370,-128,l),
(314,-128,ls),
(298,-128,o),
(290,-120,o),
(290,-104,cs),
(290,-14,l),
(394,-1,o),
(440,75,o),
(440,177,cs),
(440,527,ls),
(440,640,o),
(384,720,o),
(256,720,cs),
(128,720,o),
(72,640,o),
(72,527,cs),
(72,177,ls),
(72,76,o),
(117,1,o),
(218,-13,c),
(218,-136,ls),
(218,-184,o),
(242,-208,o),
(290,-208,cs)
);
}
);
width = 512;
},
{
associatedMasterId = m01;
layerId = "2F66EF26-3C58-4151-A57E-792A2510A03A";
name = "May 30, 22, 00:10";
shapes = (
{
closed = 1;
nodes = (
(384,-16,o),
(440,57,o),
(440,161,cs),
(440,543,ls),
(440,647,o),
(384,720,o),
(256,720,cs),
(128,720,o),
(72,647,o),
(72,543,cs),
(72,161,ls),
(72,57,o),
(128,-16,o),
(256,-16,cs)
);
},
{
closed = 1;
nodes = (
(176,64,o),
(144,105,o),
(144,193,cs),
(144,511,ls),
(144,599,o),
(176,640,o),
(256,640,cs),
(336,640,o),
(368,599,o),
(368,511,cs),
(368,193,ls),
(368,105,o),
(336,64,o),
(256,64,cs)
);
}
);
visible = 1;
width = 512;
}
);
unicode = 81;
},
{
color = 5;
glyphname = R;
layers = (
{
anchors = (
{
name = top;
pos = (248,704);
}
);
layerId = m01;
shapes = (
{
closed = 1;
nodes = (
(153,384,l),
(153,616,l),
(161,624,l),
(256,624,ls),
(344,624,o),
(367,592,o),
(367,543,cs),
(367,465,ls),
(367,408,o),
(344,376,o),
(256,376,cs),
(161,376,l)
);
},
{
closed = 1;
nodes = (
(145,0,l),
(153,8,l),
(153,296,l),
(161,304,l),
(256,304,ls),
(336,304,o),
(367,273,o),
(367,207,cs),
(367,7,l),
(375,0,l),
(432,0,l),
(440,8,l),
(440,239,ls),
(440,296,o),
(408,323,o),
(353,332,c),
(353,345,l),
(408,352,o),
(440,371,o),
(440,433,cs),
(440,575,ls),
(440,664,o),
(392,704,o),
(256,704,cs),
(88,704,l),
(80,696,l),
(80,8,l),
(88,0,l)
);
}
);
width = 512;
},
{
anchors = (
{
name = top;
pos = (248,704);
}
);
layerId = "4FBB1917-F682-4041-B654-F2E0D2EF1242";
shapes = (
{
closed = 1;
nodes = (
(152,384,l),
(152,616,l),
(160,624,l),
(280,624,ls),
(352,624,o),
(368,592,o),
(368,543,cs),
(368,465,ls),
(368,408,o),
(352,376,o),
(280,376,cs),
(160,376,l)
);
},
{
closed = 1;
nodes = (
(144,0,l),
(152,8,l),
(152,296,l),
(160,304,l),
(256,304,ls),
(336,304,o),
(368,257,o),
(368,207,cs),
(368,7,l),
(376,0,l),
(432,0,l),
(440,8,l),
(440,223,ls),
(440,280,o),
(419,324,o),
(353,332,c),
(353,345,l),
(400,353,o),
(440,387,o),
(440,449,cs),
(440,559,ls),
(440,648,o),
(400,704,o),
(280,704,cs),
(88,704,l),
(80,696,l),
(80,8,l),
(88,0,l)
);
}
);
width = 512;
}
);
unicode = 82;
},
{
color = 5;
glyphname = S;
layers = (
{
anchors = (
{
name = top;
pos = (256,704);
}
);
layerId = m01;
shapes = (
{
closed = 1;
nodes = (
(384,-16,o),
(440,56,o),
(440,161,cs),
(440,289,o),
(413,340,o),
(256,408,cs),
(187,438,o),
(153,475,o),
(153,535,cs),
(153,616,o),
(185,640,o),
(256,640,cs),
(305,640,o),
(343,608,o),
(343,535,cs),
(343,510,l),
(351,502,l),
(408,502,l),
(416,510,l),
(416,567,ls),
(416,648,o),
(361,720,o),
(256,720,cs),
(129,720,o),
(80,648,o),
(80,567,cs),
(80,417,o),
(122,387,o),
(256,328,cs),
(343,290,o),
(367,234,o),
(367,193,cs),
(367,104,o),
(336,64,o),
(256,64,cs),
(176,64,o),
(145,104,o),
(145,193,cs),
(145,218,l),
(137,226,l),
(80,226,l),
(72,218,l),
(72,161,ls),
(72,56,o),
(128,-16,o),
(256,-16,cs)
);
}
);
width = 512;
},
{
anchors = (
{
name = top;
pos = (256,704);
}
);
layerId = "4FBB1917-F682-4041-B654-F2E0D2EF1242";
shapes = (
{
closed = 1;
nodes = (
(384,-16,o),
(440,56,o),
(440,161,cs),
(440,289,o),
(413,340,o),
(256,408,cs),
(187,438,o),
(152,475,o),
(152,535,cs),
(152,616,o),
(185,640,o),
(256,640,cs),
(305,640,o),
(344,608,o),
(344,535,cs),
(344,510,l),
(352,502,l),
(408,502,l),
(416,510,l),
(416,567,ls),
(416,648,o),
(361,720,o),
(256,720,cs),
(129,720,o),
(80,648,o),
(80,567,cs),
(80,417,o),
(122,387,o),
(256,328,cs),
(343,290,o),
(368,234,o),
(368,193,cs),
(368,104,o),
(336,64,o),
(256,64,cs),
(176,64,o),
(144,104,o),
(144,193,cs),
(144,218,l),
(136,226,l),
(80,226,l),
(72,218,l),
(72,161,ls),
(72,56,o),
(128,-16,o),
(256,-16,cs)
);
}
);
width = 512;
},
{
associatedMasterId = m01;
layerId = "8E43A479-3CA2-4BDB-A19F-D87EA7E622C3";
name = "May 30, 22, 09:21";
shapes = (
{
closed = 1;
nodes = (
(384,-16,o),
(440,57,o),
(440,161,cs),
(440,543,ls),
(440,647,o),
(384,720,o),
(256,720,cs),
(128,720,o),
(72,647,o),
(72,543,cs),
(72,161,ls),
(72,57,o),
(128,-16,o),
(256,-16,cs)
);
},
{
closed = 1;
nodes = (
(176,64,o),
(144,105,o),
(144,193,cs),
(144,511,ls),
(144,599,o),
(176,640,o),
(256,640,cs),
(336,640,o),
(368,599,o),
(368,511,cs),
(368,193,ls),
(368,105,o),
(336,64,o),
(256,64,cs)
);
}
);
visible = 1;
width = 512;
}
);
unicode = 83;
},
{
color = 5;
glyphname = T;
layers = (
{
anchors = (
{
name = top;
pos = (258,704);
}
);
layerId = m01;
shapes = (
{
closed = 1;
nodes = (
(285,0,l),
(293,8,l),
(293,616,l),
(301,624,l),
(440,624,l),
(448,632,l),
(448,696,l),
(440,704,l),
(72,704,l),
(64,696,l),
(64,632,l),
(72,624,l),
(211,624,l),
(219,616,l),
(219,8,l),
(227,0,l)
);
}
);
width = 512;
},
{
anchors = (
{
name = top;
pos = (258,704);
}
);
layerId = "4FBB1917-F682-4041-B654-F2E0D2EF1242";
shapes = (
{
closed = 1;
nodes = (
(312,0,l),
(320,8,l),
(320,552,l),
(328,560,l),
(448,560,l),
(456,568,l),
(456,696,l),
(448,704,l),
(64,704,l),
(56,696,l),
(56,568,l),
(64,560,l),
(184,560,l),
(192,552,l),
(192,8,l),
(200,0,l)
);
}
);
width = 512;
}
);
unicode = 84;
},
{
color = 5;
glyphname = U;
layers = (
{
anchors = (
{
name = top;
pos = (255,704);
}
);
layerId = m01;
shapes = (
{
closed = 1;
nodes = (
(384,-16,o),
(440,57,o),
(440,161,cs),
(440,696,l),
(432,704,l),
(375,704,l),
(367,696,l),
(367,193,ls),
(367,105,o),
(336,64,o),
(256,64,cs),
(176,64,o),
(145,105,o),
(145,193,cs),
(145,696,l),
(137,704,l),
(80,704,l),
(72,696,l),
(72,161,ls),
(72,57,o),
(128,-16,o),
(256,-16,cs)
);
}
);
width = 512;
},
{
anchors = (
{
name = top;
pos = (255,704);
}
);
layerId = "4FBB1917-F682-4041-B654-F2E0D2EF1242";
shapes = (
{
closed = 1;
nodes = (
(384,-16,o),
(440,64,o),
(440,177,cs),
(440,696,l),
(432,704,l),
(376,704,l),
(368,696,l),
(368,193,ls),
(368,112,o),
(336,64,o),
(256,64,cs),
(176,64,o),
(144,112,o),
(144,193,cs),
(144,696,l),
(136,704,l),
(80,704,l),
(72,696,l),
(72,177,ls),
(72,64,o),
(128,-16,o),
(256,-16,cs)
);
}
);
width = 512;
}
);
unicode = 85;
},
{
color = 5;
glyphname = V;
layers = (
{
layerId = m01;
shapes = (
{
closed = 1;
nodes = (
(304,0,l),
(312,8,l),
(464,688,l),
(464,696,l),
(456,704,l),
(400,704,l),
(392,696,l),
(264,96,l),
(248,96,l),
(120,696,l),
(112,704,l),
(56,704,l),
(48,696,l),
(48,688,l),
(200,8,l),
(208,0,l)
);
}
);
width = 512;
},
{
layerId = "4FBB1917-F682-4041-B654-F2E0D2EF1242";
shapes = (
{
closed = 1;
nodes = (
(304,0,l),
(312,8,l),
(480,688,l),
(480,696,l),
(472,704,l),
(408,704,l),
(400,696,l),
(264,96,l),
(248,96,l),
(112,696,l),
(104,704,l),
(40,704,l),
(32,696,l),
(32,688,l),
(200,8,l),
(208,0,l)
);
}
);
width = 512;
}
);
unicode = 86;
},
{
color = 5;
glyphname = W;
layers = (
{
anchors = (
{
name = top;
pos = (256,736);
}
);
layerId = m01;
shapes = (
{
closed = 1;
nodes = (
(203,0,l),
(211,8,l),
(248,432,l),
(264,432,l),
(301,8,l),
(309,0,l),
(429,0,l),
(437,8,l),
(488,720,l),
(488,728,l),
(480,736,l),
(422,736,l),
(414,728,l),
(370,80,l),
(354,80,l),
(316,504,l),
(308,512,l),
(204,512,l),
(196,504,l),
(158,80,l),
(142,80,l),
(98,728,l),
(90,736,l),
(32,736,l),
(24,728,l),
(24,720,l),
(75,8,l),
(83,0,l)
);
}
);
width = 512;
},
{
anchors = (
{
name = top;
pos = (257,736);
}
);
layerId = "4FBB1917-F682-4041-B654-F2E0D2EF1242";
shapes = (
{
closed = 1;
nodes = (
(219,0,l),
(227,8,l),
(248,352,l),
(264,352,l),
(285,8,l),
(293,0,l),
(453,0,l),
(461,8,l),
(512,656,l),
(512,728,l),
(504,736,l),
(350,736,l),
(342,728,l),
(326,160,l),
(310,160,l),
(286,504,l),
(278,512,l),
(234,512,l),
(226,504,l),
(202,160,l),
(186,160,l),
(170,728,l),
(162,736,l),
(8,736,l),
(0,728,l),
(0,656,l),
(51,8,l),
(59,0,l)
);
}
);
width = 512;
},
{
anchors = (
{
name = top;
pos = (256,736);
}
);
associatedMasterId = m01;
layerId = "8E45E7C0-761E-4C92-8920-68B8775A6976";
name = "Jan 7, 23 at 17:10";
shapes = (
{
closed = 1;
nodes = (
(195,0,l),
(203,8,l),
(248,416,l),
(264,416,l),
(309,8,l),
(317,0,l),
(429,0,l),
(437,8,l),
(472,720,l),
(472,728,l),
(464,736,l),
(404,736,l),
(396,728,l),
(374,96,l),
(358,96,l),
(304,504,l),
(296,512,l),
(216,512,l),
(208,504,l),
(154,96,l),
(138,96,l),
(116,728,l),
(108,736,l),
(48,736,l),
(40,728,l),
(40,720,l),
(75,8,l),
(83,0,l)
);
}
);
width = 512;
}
);
unicode = 87;
},
{
color = 5;
glyphname = X;
layers = (
{
layerId = m01;
shapes = (
{
closed = 1;
nodes = (
(109,0,l),
(117,8,l),
(248,269,l),
(264,269,l),
(395,8,l),
(403,0,l),
(464,0,l),
(472,8,l),
(472,16,l),
(299,352,l),
(299,360,l),
(472,688,l),
(472,696,l),
(464,704,l),
(403,704,l),
(395,696,l),
(264,435,l),
(248,435,l),
(117,696,l),
(109,704,l),
(48,704,l),
(40,696,l),
(40,688,l),
(213,360,l),
(213,352,l),
(40,16,l),
(40,8,l),
(48,0,l)
);
}
);
width = 512;
},
{
layerId = "4FBB1917-F682-4041-B654-F2E0D2EF1242";
shapes = (
{
closed = 1;
nodes = (
(104,0,l),
(112,8,l),
(248,288,l),
(264,288,l),
(400,8,l),
(408,0,l),
(472,0,l),
(480,8,l),
(480,16,l),
(312,344,l),
(312,360,l),
(480,688,l),
(480,696,l),
(472,704,l),
(408,704,l),
(400,696,l),
(264,416,l),
(248,416,l),
(112,696,l),
(104,704,l),
(40,704,l),
(32,696,l),
(32,688,l),
(200,360,l),
(200,344,l),
(32,16,l),
(32,8,l),
(40,0,l)
);
}
);
width = 512;
}
);
unicode = 88;
},
{
color = 5;
glyphname = Y;
layers = (
{
anchors = (
{
name = top;
pos = (248,704);
}
);
layerId = m01;
shapes = (
{
closed = 1;
nodes = (
(285,0,l),
(293,8,l),
(293,291,l),
(472,688,l),
(472,696,l),
(464,704,l),
(404,704,l),
(396,696,l),
(264,404,l),
(248,404,l),
(116,696,l),
(108,704,l),
(48,704,l),
(40,696,l),
(40,688,l),
(219,291,l),
(219,8,l),
(227,0,l)
);
}
);
width = 512;
},
{
anchors = (
{
name = top;
pos = (248,704);
}
);
layerId = "4FBB1917-F682-4041-B654-F2E0D2EF1242";
shapes = (
{
closed = 1;
nodes = (
(284,0,l),
(292,8,l),
(292,312,l),
(480,688,l),
(480,696,l),
(472,704,l),
(408,704,l),
(400,696,l),
(264,400,l),
(248,400,l),
(112,696,l),
(104,704,l),
(40,704,l),
(32,696,l),
(32,688,l),
(220,312,l),
(220,8,l),
(228,0,l)
);
}
);
width = 512;
}
);
unicode = 89;
},
{
color = 5;
glyphname = Z;
layers = (
{
anchors = (
{
name = top;
pos = (265,704);
}
);
layerId = m01;
shapes = (
{
closed = 1;
nodes = (
(432,0,l),
(440,8,l),
(440,72,l),
(432,80,l),
(156,80,l),
(156,88,l),
(440,624,l),
(440,696,l),
(432,704,l),
(80,704,l),
(72,696,l),
(72,632,l),
(80,624,l),
(356,624,l),
(356,616,l),
(72,80,l),
(72,8,l),
(80,0,l)
);
}
);
width = 512;
},
{
anchors = (
{
name = top;
pos = (265,704);
}
);
layerId = "4FBB1917-F682-4041-B654-F2E0D2EF1242";
shapes = (
{
closed = 1;
nodes = (
(432,0,l),
(440,8,l),
(440,72,l),
(432,80,l),
(156,80,l),
(156,88,l),
(440,624,l),
(440,696,l),
(432,704,l),
(80,704,l),
(72,696,l),
(72,632,l),
(80,624,l),
(356,624,l),
(356,616,l),
(72,80,l),
(72,8,l),
(80,0,l)
);
}
);
width = 512;
}
);
unicode = 90;
},
{
color = 5;
glyphname = a;
layers = (
{
anchors = (
{
name = bottom;
pos = (212,0);
},
{
name = ogonek;
pos = (402,58);
},
{
name = top;
pos = (250,512);
}
);
layerId = m01;
shapes = (
{
closed = 1;
nodes = (
(174,64,o),
(136,77,o),
(136,136,cs),
(136,210,o),
(152,249,o),
(243,249,cs),
(316,249,l),
(324,241,l),
(324,136,ls),
(324,77,o),
(300,64,o),
(210,64,cs)
);
},
{
closed = 1;
nodes = (
(247,-16,o),
(297,7,o),
(324,42,c),
(332,42,l),
(348,12,o),
(376,0,o),
(409,0,c),
(440,0,l),
(448,8,l),
(448,72,l),
(440,80,l),
(425,80,ls),
(404,80,o),
(396,97,o),
(396,129,cs),
(396,370,ls),
(396,472,o),
(367,528,o),
(248,528,cs),
(157,528,o),
(91,487,o),
(91,396,cs),
(91,380,l),
(99,372,l),
(155,372,l),
(163,380,l),
(163,396,ls),
(163,424,o),
(177,448,o),
(247,448,cs),
(301,448,o),
(324,429,o),
(324,380,cs),
(324,321,l),
(316,313,l),
(229,313,ls),
(124,313,o),
(64,264,o),
(64,136,cs),
(64,33,o),
(131,-16,o),
(202,-16,cs)
);
}
);
width = 512;
},
{
anchors = (
{
name = bottom;
pos = (212,0);
},
{
name = ogonek;
pos = (402,58);
},
{
name = top;
pos = (250,512);
}
);
layerId = "4FBB1917-F682-4041-B654-F2E0D2EF1242";
shapes = (
{
closed = 1;
nodes = (
(174,64,o),
(136,77,o),
(136,136,cs),
(136,210,o),
(152,249,o),
(243,249,cs),
(316,249,l),
(324,241,l),
(324,136,ls),
(324,77,o),
(300,64,o),
(210,64,cs)
);
},
{
closed = 1;
nodes = (
(247,-16,o),
(297,7,o),
(324,42,c),
(332,42,l),
(348,12,o),
(376,0,o),
(409,0,c),
(440,0,l),
(448,8,l),
(448,72,l),
(440,80,l),
(425,80,ls),
(404,80,o),
(396,97,o),
(396,129,cs),
(396,370,ls),
(396,472,o),
(369,528,o),
(248,528,cs),
(163,528,o),
(91,492,o),
(91,401,cs),
(91,380,l),
(99,372,l),
(155,372,l),
(163,380,l),
(163,401,ls),
(163,429,o),
(177,448,o),
(248,448,cs),
(301,448,o),
(324,429,o),
(324,380,cs),
(324,321,l),
(316,313,l),
(229,313,ls),
(124,313,o),
(64,264,o),
(64,136,cs),
(64,33,o),
(131,-16,o),
(202,-16,cs)
);
}
);
width = 512;
}
);
unicode = 97;
},
{
color = 4;
glyphname = ae;
layers = (
{
layerId = m01;
shapes = (
{
closed = 1;
nodes = (
(62,64,o),
(88,77,o),
(88,136,cs),
(88,210,o),
(40,249,o),
(131,249,cs),
(204,249,l),
(212,241,l),
(212,136,ls),
(212,77,o),
(188,64,o),
(98,64,cs)
);
},
{
closed = 1;
nodes = (
(16,33,o),
(19,-16,o),
(90,-16,cs),
(135,-16,o),
(185,7,o),
(212,42,c),
(220,42,l),
(236,12,o),
(264,0,o),
(297,0,cs),
(302,0,l),
(327,-11,o),
(356,-16,o),
(388,-16,cs),
(492,-16,o),
(492,40,o),
(492,124,cs),
(492,140,l),
(484,148,l),
(428,148,l),
(420,140,l),
(420,124,ls),
(420,84,o),
(447,64,o),
(389,64,cs),
(318,64,o),
(284,96,o),
(284,190,cs),
(284,216,l),
(292,224,l),
(492,224,l),
(500,232,l),
(500,352,ls),
(500,472,o),
(492,528,o),
(388,528,cs),
(334,528,o),
(289,513,o),
(258,482,c),
(237,512,o),
(199,528,o),
(136,528,cs),
(45,528,o),
(43,487,o),
(43,396,cs),
(43,380,l),
(51,372,l),
(107,372,l),
(115,380,l),
(115,396,ls),
(115,424,o),
(65,448,o),
(135,448,cs),
(189,448,o),
(212,429,o),
(212,380,cs),
(212,321,l),
(204,313,l),
(117,313,ls),
(12,313,o),
(16,264,o),
(16,136,cs)
);
},
{
closed = 1;
nodes = (
(284,320,ls),
(284,416,o),
(324,448,o),
(388,448,cs),
(452,448,o),
(428,416,o),
(428,320,cs),
(428,304,l),
(420,296,l),
(292,296,l),
(284,304,l)
);
}
);
width = 512;
},
{
layerId = "4FBB1917-F682-4041-B654-F2E0D2EF1242";
shapes = (
{
closed = 1;
nodes = (
(62,64,o),
(88,77,o),
(88,136,cs),
(88,210,o),
(40,249,o),
(131,249,cs),
(204,249,l),
(212,241,l),
(212,136,ls),
(212,77,o),
(188,64,o),
(98,64,cs)
);
},
{
closed = 1;
nodes = (
(16,33,o),
(19,-16,o),
(90,-16,cs),
(135,-16,o),
(185,7,o),
(212,42,c),
(220,42,l),
(236,12,o),
(264,0,o),
(297,0,cs),
(302,0,l),
(327,-11,o),
(356,-16,o),
(388,-16,cs),
(492,-16,o),
(492,40,o),
(492,124,cs),
(492,140,l),
(484,148,l),
(428,148,l),
(420,140,l),
(420,124,ls),
(420,84,o),
(447,64,o),
(389,64,cs),
(318,64,o),
(284,96,o),
(284,190,cs),
(284,216,l),
(292,224,l),
(492,224,l),
(500,232,l),
(500,352,ls),
(500,472,o),
(492,528,o),
(388,528,cs),
(334,528,o),
(289,513,o),
(258,482,c),
(237,512,o),
(199,528,o),
(136,528,cs),
(45,528,o),
(43,487,o),
(43,396,cs),
(43,380,l),
(51,372,l),
(107,372,l),
(115,380,l),
(115,396,ls),
(115,424,o),
(65,448,o),
(135,448,cs),
(189,448,o),
(212,429,o),
(212,380,cs),
(212,321,l),
(204,313,l),
(117,313,ls),
(12,313,o),
(16,264,o),
(16,136,cs)
);
},
{
closed = 1;
nodes = (
(284,320,ls),
(284,416,o),
(324,448,o),
(388,448,cs),
(452,448,o),
(428,416,o),
(428,320,cs),
(428,304,l),
(420,296,l),
(292,296,l),
(284,304,l)
);
}
);
width = 512;
}
);
unicode = 230;
},
{
color = 5;
glyphname = b;
layers = (
{
layerId = m01;
shapes = (
{
closed = 1;
nodes = (
(136,0,l),
(144,8,l),
(152,48,l),
(160,48,l),
(188,8,o),
(232,-16,o),
(280,-16,cs),
(368,-16,o),
(432,40,o),
(432,160,cs),
(432,352,ls),
(432,472,o),
(368,528,o),
(280,528,cs),
(232,528,o),
(188,504,o),
(160,469,c),
(152,469,l),
(152,696,l),
(144,704,l),
(88,704,l),
(80,696,l),
(80,8,l),
(88,0,l)
);
},
{
closed = 1;
nodes = (
(192,64,o),
(152,96,o),
(152,192,cs),
(152,320,ls),
(152,416,o),
(192,448,o),
(256,448,cs),
(320,448,o),
(360,416,o),
(360,320,cs),
(360,192,ls),
(360,96,o),
(320,64,o),
(256,64,cs)
);
}
);
width = 512;
},
{
layerId = "4FBB1917-F682-4041-B654-F2E0D2EF1242";
shapes = (
{
closed = 1;
nodes = (
(144,0,l),
(152,8,l),
(152,48,l),
(160,48,l),
(193,0,o),
(235,-16,o),
(288,-16,cs),
(377,-16,o),
(432,40,o),
(432,168,cs),
(432,344,ls),
(432,472,o),
(368,528,o),
(280,528,cs),
(232,528,o),
(187,512,o),
(160,469,c),
(152,469,l),
(152,696,l),
(144,704,l),
(88,704,l),
(80,696,l),
(80,8,l),
(88,0,l)
);
},
{
closed = 1;
nodes = (
(181,64,o),
(152,104,o),
(152,200,cs),
(152,312,ls),
(152,408,o),
(184,448,o),
(256,448,cs),
(328,448,o),
(360,408,o),
(360,312,cs),
(360,200,ls),
(360,104,o),
(328,64,o),
(264,64,cs)
);
}
);
width = 512;
}
);
unicode = 98;
},
{
color = 5;
glyphname = c;
layers = (
{
anchors = (
{
name = top;
pos = (263,512);
}
);
layerId = m01;
shapes = (
{
closed = 1;
nodes = (
(360,-16,o),
(432,32,o),
(432,128,cs),
(432,171,l),
(424,179,l),
(368,179,l),
(360,171,l),
(360,144,ls),
(360,96,o),
(320,64,o),
(256,64,cs),
(192,64,o),
(152,96,o),
(152,192,cs),
(152,320,ls),
(152,416,o),
(192,448,o),
(256,448,cs),
(320,448,o),
(360,416,o),
(360,368,cs),
(360,335,l),
(368,327,l),
(425,327,l),
(432,335,l),
(432,384,ls),
(432,480,o),
(360,528,o),
(256,528,cs),
(152,528,o),
(80,472,o),
(80,352,cs),
(80,160,ls),
(80,40,o),
(152,-16,o),
(256,-16,cs)
);
}
);
width = 512;
},
{
anchors = (
{
name = top;
pos = (263,512);
}
);
layerId = "4FBB1917-F682-4041-B654-F2E0D2EF1242";
shapes = (
{
closed = 1;
nodes = (
(373,-8,o),
(450,53,o),
(450,164,cs),
(450,204,l),
(442,212,l),
(330,212,l),
(322,204,l),
(322,187,ls),
(322,166,o),
(292,152,o),
(257,152,cs),
(210,152,o),
(190,166,o),
(190,203,cs),
(190,323,ls),
(190,350,o),
(209,360,o),
(256,360,cs),
(301,360,o),
(322,349,o),
(322,323,cs),
(322,306,l),
(330,298,l),
(442,298,l),
(450,306,l),
(450,327,ls),
(450,483,o),
(372,528,o),
(256,528,cs),
(143,528,o),
(62,476,o),
(62,327,cs),
(62,198,ls),
(62,61,o),
(137,-8,o),
(257,-8,cs)
);
}
);
width = 512;
}
);
unicode = 99;
},
{
color = 5;
glyphname = ccedilla;
layers = (
{
layerId = m01;
shapes = (
{
closed = 1;
nodes = (
(347,-155,l),
(355,-88,l),
(267,-67,l),
(280,-15,l),
(371,-8,o),
(432,40,o),
(432,128,cs),
(432,171,l),
(424,179,l),
(368,179,l),
(360,171,l),
(360,144,ls),
(360,96,o),
(320,64,o),
(256,64,cs),
(192,64,o),
(152,96,o),
(152,192,cs),
(152,320,ls),
(152,416,o),
(192,448,o),
(256,448,cs),
(320,448,o),
(360,416,o),
(360,368,cs),
(360,335,l),
(368,327,l),
(425,327,l),
(432,335,l),
(432,384,ls),
(432,480,o),
(360,528,o),
(256,528,cs),
(152,528,o),
(80,472,o),
(80,352,cs),
(80,160,ls),
(80,52,o),
(139,-5,o),
(227,-14,c),
(225,-96,l),
(287,-126,l),
(227,-140,l),
(221,-179,l)
);
}
);
width = 512;
},
{
layerId = "4FBB1917-F682-4041-B654-F2E0D2EF1242";
shapes = (
{
closed = 1;
nodes = (
(347,-155,l),
(355,-88,l),
(267,-67,l),
(280,-15,l),
(371,-8,o),
(432,40,o),
(432,128,cs),
(432,171,l),
(424,179,l),
(368,179,l),
(360,171,l),
(360,144,ls),
(360,96,o),
(320,64,o),
(256,64,cs),
(192,64,o),
(152,96,o),
(152,192,cs),
(152,320,ls),
(152,416,o),
(192,448,o),
(256,448,cs),
(320,448,o),
(360,416,o),
(360,368,cs),
(360,335,l),
(368,327,l),
(425,327,l),
(432,335,l),
(432,384,ls),
(432,480,o),
(360,528,o),
(256,528,cs),
(152,528,o),
(80,472,o),
(80,352,cs),
(80,160,ls),
(80,52,o),
(139,-5,o),
(227,-14,c),
(225,-96,l),
(287,-126,l),
(227,-140,l),
(221,-179,l)
);
}
);
width = 512;
}
);
unicode = 231;
},
{
color = 5;
glyphname = d;
layers = (
{
layerId = m01;
shapes = (
{
closed = 1;
nodes = (
(288,-16,o),
(324,8,o),
(352,48,c),
(360,48,l),
(376,8,l),
(384,0,l),
(424,0,l),
(432,8,l),
(432,728,l),
(424,736,l),
(368,736,l),
(360,728,l),
(360,512,l),
(368,477,l),
(360,469,l),
(352,469,l),
(329,499,o),
(296,528,o),
(240,528,cs),
(128,528,o),
(80,456,o),
(80,328,cs),
(80,184,ls),
(80,56,o),
(112,-16,o),
(240,-16,cs)
);
},
{
closed = 1;
nodes = (
(176,64,o),
(152,112,o),
(152,192,cs),
(152,320,ls),
(152,400,o),
(176,448,o),
(256,448,cs),
(336,448,o),
(360,400,o),
(360,320,cs),
(360,192,ls),
(360,112,o),
(336,64,o),
(256,64,cs)
);
}
);
width = 512;
},
{
layerId = "4FBB1917-F682-4041-B654-F2E0D2EF1242";
shapes = (
{
closed = 1;
nodes = (
(248,-16,o),
(288,0,o),
(320,48,c),
(328,48,l),
(344,8,l),
(352,0,l),
(456,0,l),
(464,8,l),
(464,728,l),
(456,736,l),
(312,736,l),
(304,728,l),
(304,568,l),
(336,488,l),
(328,480,l),
(320,480,l),
(296,512,o),
(264,528,o),
(224,528,cs),
(96,528,o),
(48,448,o),
(48,320,cs),
(48,192,ls),
(48,64,o),
(96,-16,o),
(208,-16,cs)
);
},
{
closed = 1;
nodes = (
(216,144,o),
(208,168,o),
(208,208,cs),
(208,304,ls),
(208,344,o),
(216,368,o),
(256,368,cs),
(296,368,o),
(304,344,o),
(304,304,cs),
(304,208,ls),
(304,168,o),
(296,144,o),
(256,144,cs)
);
}
);
width = 512;
}
);
unicode = 100;
},
{
color = 5;
glyphname = eth;
layers = (
{
layerId = m01;
shapes = (
{
closed = 1;
nodes = (
(432,8,l),
(432,564,l),
(497,564,l),
(497,635,l),
(432,635,l),
(432,696,l),
(424,704,l),
(368,704,l),
(360,696,l),
(360,635,l),
(289,635,l),
(289,564,l),
(360,564,l),
(360,469,l),
(352,469,l),
(324,504,o),
(280,528,o),
(232,528,cs),
(144,528,o),
(80,472,o),
(80,352,cs),
(80,160,ls),
(80,40,o),
(144,-16,o),
(232,-16,cs),
(280,-16,o),
(324,8,o),
(352,48,c),
(360,48,l),
(368,8,l),
(376,0,l),
(424,0,l)
);
},
{
closed = 1;
nodes = (
(152,320,ls),
(152,416,o),
(192,448,o),
(256,448,cs),
(320,448,o),
(360,416,o),
(360,320,cs),
(360,192,ls),
(360,96,o),
(320,64,o),
(256,64,cs),
(192,64,o),
(152,96,o),
(152,192,cs)
);
}
);
width = 512;
},
{
layerId = "4FBB1917-F682-4041-B654-F2E0D2EF1242";
shapes = (
{
closed = 1;
nodes = (
(432,8,l),
(432,564,l),
(497,564,l),
(497,635,l),
(432,635,l),
(432,696,l),
(424,704,l),
(368,704,l),
(360,696,l),
(360,635,l),
(289,635,l),
(289,564,l),
(360,564,l),
(360,469,l),
(352,469,l),
(324,504,o),
(280,528,o),
(232,528,cs),
(144,528,o),
(80,472,o),
(80,352,cs),
(80,160,ls),
(80,40,o),
(144,-16,o),
(232,-16,cs),
(280,-16,o),
(324,8,o),
(352,48,c),
(360,48,l),
(368,8,l),
(376,0,l),
(424,0,l)
);
},
{
closed = 1;
nodes = (
(152,320,ls),
(152,416,o),
(192,448,o),
(256,448,cs),
(320,448,o),
(360,416,o),
(360,320,cs),
(360,192,ls),
(360,96,o),
(320,64,o),
(256,64,cs),
(192,64,o),
(152,96,o),
(152,192,cs)
);
}
);
width = 512;
}
);
unicode = 240;
},
{
color = 5;
glyphname = e;
layers = (
{
layerId = m01;
shapes = (
{
closed = 1;
nodes = (
(384,-16,o),
(432,56,o),
(432,140,cs),
(432,156,l),
(424,164,l),
(368,164,l),
(360,156,l),
(360,148,ls),
(360,92,o),
(320,64,o),
(256,64,cs),
(176,64,o),
(152,112,o),
(152,192,cs),
(152,224,l),
(160,232,l),
(424,232,l),
(432,240,l),
(432,328,ls),
(432,456,o),
(384,528,o),
(256,528,cs),
(128,528,o),
(80,456,o),
(80,328,cs),
(80,184,ls),
(80,56,o),
(128,-16,o),
(256,-16,cs)
);
},
{
closed = 1;
nodes = (
(152,312,l),
(152,320,ls),
(152,400,o),
(176,448,o),
(256,448,cs),
(336,448,o),
(360,400,o),
(360,320,cs),
(360,312,l),
(352,304,l),
(160,304,l)
);
}
);
width = 512;
},
{
associatedMasterId = m01;
layerId = "CD4ECD8E-D520-416F-B4DF-9670CFDD59DD";
name = "Jan 7, 23 at 16:02";
shapes = (
{
closed = 1;
nodes = (
(384,-16,o),
(432,56,o),
(432,184,cs),
(432,328,ls),
(432,456,o),
(384,528,o),
(256,528,cs),
(128,528,o),
(80,456,o),
(80,328,cs),
(80,184,ls),
(80,56,o),
(128,-16,o),
(256,-16,cs)
);
},
{
closed = 1;
nodes = (
(176,64,o),
(152,112,o),
(152,192,cs),
(152,320,ls),
(152,400,o),
(176,448,o),
(256,448,cs),
(336,448,o),
(360,400,o),
(360,320,cs),
(360,192,ls),
(360,112,o),
(336,64,o),
(256,64,cs)
);
}
);
width = 512;
},
{
associatedMasterId = m01;
layerId = "BF40FA97-4910-4B6D-A7EB-6CA55A45B02C";
name = "Jan 6, 23 at 23:24";
shapes = (
{
closed = 1;
nodes = (
(360,-16,o),
(424,40,o),
(424,124,cs),
(424,140,l),
(416,148,l),
(360,148,l),
(352,140,l),
(352,124,ls),
(352,84,o),
(315,64,o),
(257,64,cs),
(186,64,o),
(152,96,o),
(152,190,cs),
(152,216,l),
(160,224,l),
(424,224,l),
(432,232,l),
(432,352,ls),
(432,472,o),
(360,528,o),
(256,528,cs),
(152,528,o),
(80,472,o),
(80,352,cs),
(80,158,ls),
(80,40,o),
(152,-16,o),
(256,-16,cs)
);
},
{
closed = 1;
nodes = (
(152,304,l),
(152,320,ls),
(152,416,o),
(192,448,o),
(256,448,cs),
(320,448,o),
(360,416,o),
(360,320,cs),
(360,304,l),
(352,296,l),
(160,296,l)
);
}
);
width = 512;
},
{
layerId = "4FBB1917-F682-4041-B654-F2E0D2EF1242";
shapes = (
{
closed = 1;
nodes = (
(384,-16,o),
(464,56,o),
(464,168,cs),
(464,184,l),
(456,192,l),
(312,192,l),
(304,184,l),
(304,176,ls),
(304,160,o),
(288,144,o),
(256,144,cs),
(224,144,o),
(208,160,o),
(208,200,cs),
(208,232,l),
(216,240,l),
(456,240,l),
(464,248,l),
(464,320,ls),
(464,448,o),
(384,528,o),
(256,528,cs),
(128,528,o),
(48,448,o),
(48,320,cs),
(48,192,ls),
(48,64,o),
(128,-16,o),
(256,-16,cs)
);
},
{
closed = 1;
nodes = (
(208,296,l),
(208,312,ls),
(208,352,o),
(224,368,o),
(256,368,cs),
(288,368,o),
(304,352,o),
(304,312,cs),
(304,296,l),
(296,288,l),
(216,288,l)
);
}
);
width = 512;
},
{
associatedMasterId = "4FBB1917-F682-4041-B654-F2E0D2EF1242";
layerId = "CB80D00D-4CA4-443B-81B1-09D4A67210EB";
name = "Jan 11, 23 at 14:17";
shapes = (
{
closed = 1;
nodes = (
(384,-16,o),
(464,64,o),
(464,192,cs),
(464,320,ls),
(464,448,o),
(384,528,o),
(256,528,cs),
(128,528,o),
(48,448,o),
(48,320,cs),
(48,192,ls),
(48,64,o),
(128,-16,o),
(256,-16,cs)
);
},
{
closed = 1;
nodes = (
(216,144,o),
(208,168,o),
(208,208,cs),
(208,304,ls),
(208,344,o),
(216,368,o),
(256,368,cs),
(296,368,o),
(304,344,o),
(304,304,cs),
(304,208,ls),
(304,168,o),
(296,144,o),
(256,144,cs)
);
}
);
visible = 1;
width = 512;
}
);
unicode = 101;
},
{
color = 5;
glyphname = f;
layers = (
{
layerId = m01;
shapes = (
{
closed = 1;
nodes = (
(273,0,l),
(281,8,l),
(281,424,l),
(289,432,l),
(456,432,l),
(464,440,l),
(464,504,l),
(456,512,l),
(289,512,l),
(281,520,l),
(281,552,ls),
(281,581,o),
(285,624,o),
(330,624,cs),
(464,624,l),
(472,632,l),
(472,696,l),
(464,704,l),
(330,704,ls),
(242,704,o),
(209,627,o),
(209,548,cs),
(209,520,l),
(201,512,l),
(48,512,l),
(40,504,l),
(40,440,l),
(48,432,l),
(201,432,l),
(209,424,l),
(209,8,l),
(217,0,l)
);
}
);
width = 512;
},
{
layerId = "4FBB1917-F682-4041-B654-F2E0D2EF1242";
shapes = (
{
closed = 1;
nodes = (
(273,0,l),
(281,8,l),
(281,424,l),
(289,432,l),
(472,432,l),
(480,440,l),
(480,504,l),
(472,512,l),
(289,512,l),
(281,520,l),
(281,616,ls),
(281,645,o),
(285,688,o),
(330,688,cs),
(504,688,l),
(512,696,l),
(512,760,l),
(504,768,l),
(330,768,l),
(242,768,o),
(209,691,o),
(209,612,cs),
(209,520,l),
(201,512,l),
(56,512,l),
(48,504,l),
(48,440,l),
(56,432,l),
(201,432,l),
(209,424,l),
(209,8,l),
(217,0,l)
);
}
);
width = 512;
}
);
unicode = 102;
},
{
color = 5;
glyphname = g;
layers = (
{
anchors = (
{
name = top;
pos = (266,512);
}
);
layerId = m01;
shapes = (
{
closed = 1;
nodes = (
(258,-208,ls),
(394,-208,o),
(432,-144,o),
(432,-31,cs),
(432,504,l),
(424,512,l),
(376,512,l),
(368,504,l),
(360,464,l),
(352,464,l),
(323,505,o),
(280,528,o),
(232,528,cs),
(144,528,o),
(80,472,o),
(80,352,cs),
(80,216,ls),
(80,88,o),
(144,32,o),
(232,32,cs),
(280,32,o),
(325,48,o),
(352,91,c),
(360,91,l),
(360,-48,ls),
(360,-105,o),
(330,-128,o),
(258,-128,cs),
(136,-128,l),
(128,-136,l),
(128,-200,l),
(136,-208,l)
);
},
{
closed = 1;
nodes = (
(331,448,o),
(360,408,o),
(360,312,cs),
(360,248,ls),
(360,152,o),
(328,112,o),
(256,112,cs),
(184,112,o),
(152,152,o),
(152,248,cs),
(152,320,ls),
(152,416,o),
(184,448,o),
(256,448,cs)
);
}
);
width = 512;
},
{
anchors = (
{
name = top;
pos = (266,512);
}
);
layerId = "4FBB1917-F682-4041-B654-F2E0D2EF1242";
shapes = (
{
closed = 1;
nodes = (
(258,-208,ls),
(394,-208,o),
(432,-144,o),
(432,-31,cs),
(432,504,l),
(424,512,l),
(376,512,l),
(368,504,l),
(360,464,l),
(352,464,l),
(323,505,o),
(280,528,o),
(232,528,cs),
(144,528,o),
(80,472,o),
(80,352,cs),
(80,216,ls),
(80,88,o),
(144,32,o),
(232,32,cs),
(280,32,o),
(325,48,o),
(352,91,c),
(360,91,l),
(360,-48,ls),
(360,-105,o),
(330,-128,o),
(258,-128,cs),
(136,-128,l),
(128,-136,l),
(128,-200,l),
(136,-208,l)
);
},
{
closed = 1;
nodes = (
(331,448,o),
(360,408,o),
(360,312,cs),
(360,248,ls),
(360,152,o),
(328,112,o),
(256,112,cs),
(184,112,o),
(152,152,o),
(152,248,cs),
(152,320,ls),
(152,416,o),
(184,448,o),
(256,448,cs)
);
}
);
width = 512;
},
{
associatedMasterId = m01;
layerId = "D1631CC0-4779-4521-8789-D8D607E038AF";
name = "May 30, 22, 14:57";
shapes = (
{
closed = 1;
nodes = (
(450,-170,o),
(494,-110,o),
(494,-35,cs),
(494,50,o),
(393,98,o),
(297,98,cs),
(165,98,o),
(142,102,o),
(142,151,cs),
(142,186,o),
(174,205,o),
(219,205,cs),
(235,205,o),
(251,199,o),
(268,199,cs),
(372,199,o),
(444,272,o),
(444,360,cs),
(444,394,o),
(416,421,o),
(384,432,c),
(384,445,l),
(484,445,l),
(492,453,l),
(492,504,l),
(484,512,l),
(354,512,l),
(331,524,o),
(302,528,o),
(268,528,cs),
(164,528,o),
(92,464,o),
(92,360,cs),
(92,318,o),
(132,282,o),
(160,254,c),
(160,244,l),
(95,226,o),
(71,181,o),
(71,142,cs),
(71,79,o),
(115,58,o),
(125,55,c),
(125,38,l),
(62,9,o),
(55,-13,o),
(55,-59,cs),
(55,-145,o),
(118,-170,o),
(280,-170,cs)
);
},
{
closed = 1;
nodes = (
(204,280,o),
(164,312,o),
(164,360,cs),
(164,424,o),
(204,448,o),
(268,448,cs),
(332,448,o),
(372,424,o),
(372,360,cs),
(372,312,o),
(332,280,o),
(268,280,cs)
);
},
{
closed = 1;
nodes = (
(149,-95,o),
(139,-76,o),
(139,-33,cs),
(139,3,o),
(149,17,o),
(286,17,cs),
(423,17,o),
(433,0,o),
(433,-33,cs),
(433,-84,o),
(423,-95,o),
(286,-95,cs)
);
}
);
width = 512;
},
{
associatedMasterId = m01;
layerId = "F99DA99A-7A0A-4A2A-BA91-EE8FE13A40A3";
name = "May 30, 22, 16:35";
shapes = (
{
closed = 1;
nodes = (
(377,-208,o),
(432,-152,o),
(432,-50,cs),
(432,504,l),
(424,512,l),
(368,512,l),
(360,504,l),
(360,464,l),
(352,464,l),
(319,512,o),
(277,528,o),
(224,528,cs),
(135,528,o),
(80,472,o),
(80,344,cs),
(80,216,ls),
(80,88,o),
(144,32,o),
(232,32,cs),
(280,32,o),
(325,48,o),
(352,91,c),
(360,91,l),
(360,-60,ls),
(360,-109,o),
(309,-128,o),
(256,-128,cs),
(185,-128,o),
(152,-101,o),
(152,-65,cs),
(152,-36,l),
(144,-28,l),
(88,-28,l),
(80,-36,l),
(80,-65,ls),
(80,-156,o),
(139,-208,o),
(256,-208,cs)
);
},
{
closed = 1;
nodes = (
(331,448,o),
(360,408,o),
(360,312,cs),
(360,248,ls),
(360,152,o),
(328,112,o),
(256,112,cs),
(184,112,o),
(152,152,o),
(152,248,cs),
(152,312,ls),
(152,408,o),
(184,448,o),
(248,448,cs)
);
}
);
width = 512;
},
{
associatedMasterId = m01;
layerId = "8B8818E3-E5DE-4F1B-AF82-3C72EBF626D3";
name = "May 30, 22, 16:40";
shapes = (
{
closed = 1;
nodes = (
(377,-208,o),
(432,-152,o),
(432,-50,cs),
(432,504,l),
(424,512,l),
(368,512,l),
(360,504,l),
(360,464,l),
(352,464,l),
(319,512,o),
(277,528,o),
(224,528,cs),
(135,528,o),
(80,472,o),
(80,344,cs),
(80,168,ls),
(80,40,o),
(144,-16,o),
(232,-16,cs),
(280,-16,o),
(325,0,o),
(352,43,c),
(360,43,l),
(360,-60,ls),
(360,-109,o),
(309,-128,o),
(256,-128,c),
(88,-128,l),
(80,-136,l),
(80,-200,l),
(88,-208,l),
(256,-208,l)
);
},
{
closed = 1;
nodes = (
(331,448,o),
(360,408,o),
(360,312,cs),
(360,200,ls),
(360,104,o),
(328,64,o),
(256,64,cs),
(184,64,o),
(152,104,o),
(152,200,cs),
(152,312,ls),
(152,408,o),
(184,448,o),
(248,448,cs)
);
}
);
width = 512;
}
);
unicode = 103;
},
{
color = 5;
glyphname = h;
layers = (
{
layerId = m01;
shapes = (
{
closed = 1;
nodes = (
(144,0,l),
(152,8,l),
(152,321,ls),
(152,416,o),
(200,448,o),
(256,448,cs),
(312,448,o),
(360,416,o),
(360,321,cs),
(360,8,l),
(368,0,l),
(424,0,l),
(432,8,l),
(432,353,ls),
(432,472,o),
(377,528,o),
(292,528,cs),
(232,528,o),
(195,502,o),
(160,456,c),
(152,456,l),
(152,728,l),
(144,736,l),
(88,736,l),
(80,728,l),
(80,8,l),
(88,0,l)
);
}
);
width = 512;
},
{
layerId = "4FBB1917-F682-4041-B654-F2E0D2EF1242";
shapes = (
{
closed = 1;
nodes = (
(136,0,l),
(144,8,l),
(144,337,ls),
(144,421,o),
(206,448,o),
(262,448,cs),
(318,448,o),
(368,421,o),
(368,337,cs),
(368,8,l),
(376,0,l),
(432,0,l),
(440,8,l),
(440,353,ls),
(440,468,o),
(377,528,o),
(292,528,cs),
(232,528,o),
(187,502,o),
(152,456,c),
(144,456,l),
(144,760,l),
(136,768,l),
(80,768,l),
(72,760,l),
(72,8,l),
(80,0,l)
);
}
);
width = 512;
}
);
unicode = 104;
},
{
color = 5;
glyphname = i;
layers = (
{
layerId = m01;
shapes = (
{
closed = 1;
nodes = (
(440,0,l),
(448,8,l),
(448,72,l),
(440,80,l),
(308,80,l),
(300,88,l),
(300,504,l),
(292,512,l),
(102,512,l),
(94,504,l),
(94,440,l),
(102,432,l),
(220,432,l),
(228,424,l),
(228,88,l),
(220,80,l),
(72,80,l),
(64,72,l),
(64,8,l),
(72,0,l)
);
},
{
closed = 1;
nodes = (
(292,592,o),
(320,620,o),
(320,657,cs),
(320,693,o),
(292,720,o),
(256,720,cs),
(220,720,o),
(192,693,o),
(192,657,cs),
(192,620,o),
(220,592,o),
(256,592,cs)
);
}
);
width = 512;
},
{
layerId = "4FBB1917-F682-4041-B654-F2E0D2EF1242";
shapes = (
{
closed = 1;
nodes = (
(464,0,l),
(472,8,l),
(472,72,l),
(464,80,l),
(290,80,l),
(282,88,l),
(282,504,l),
(274,512,l),
(48,512,l),
(40,504,l),
(40,440,l),
(48,432,l),
(202,432,l),
(210,424,l),
(210,88,l),
(202,80,l),
(48,80,l),
(40,72,l),
(40,8,l),
(48,0,l)
);
},
{
closed = 1;
nodes = (
(264,605,o),
(292,633,o),
(292,670,cs),
(292,706,o),
(264,733,o),
(228,733,cs),
(192,733,o),
(164,706,o),
(164,670,cs),
(164,633,o),
(192,605,o),
(228,605,cs)
);
}
);
width = 512;
}
);
unicode = 105;
},
{
color = 5;
glyphname = idotless;
layers = (
{
anchors = (
{
name = top;
pos = (277,512);
}
);
layerId = m01;
shapes = (
{
closed = 1;
nodes = (
(440,0,l),
(448,8,l),
(448,72,l),
(440,80,l),
(326,80,l),
(318,88,l),
(318,504,l),
(310,512,l),
(102,512,l),
(94,504,l),
(94,440,l),
(102,432,l),
(238,432,l),
(246,424,l),
(246,88,l),
(238,80,l),
(72,80,l),
(64,72,l),
(64,8,l),
(72,0,l)
);
}
);
width = 512;
},
{
anchors = (
{
name = top;
pos = (277,512);
}
);
layerId = "4FBB1917-F682-4041-B654-F2E0D2EF1242";
shapes = (
{
closed = 1;
nodes = (
(440,0,l),
(448,8,l),
(448,72,l),
(440,80,l),
(326,80,l),
(318,88,l),
(318,504,l),
(310,512,l),
(102,512,l),
(94,504,l),
(94,440,l),
(102,432,l),
(238,432,l),
(246,424,l),
(246,88,l),
(238,80,l),
(72,80,l),
(64,72,l),
(64,8,l),
(72,0,l)
);
}
);
width = 512;
}
);
unicode = 305;
},
{
color = 5;
glyphname = j;
layers = (
{
layerId = m01;
shapes = (
{
closed = 1;
nodes = (
(160,-208,ls),
(296,-208,o),
(334,-144,o),
(334,-31,cs),
(334,504,l),
(326,512,l),
(126,512,l),
(118,504,l),
(118,440,l),
(126,432,l),
(254,432,l),
(262,424,l),
(262,-47,ls),
(262,-104,o),
(232,-128,o),
(160,-128,cs),
(40,-128,l),
(32,-136,l),
(32,-200,l),
(40,-208,l)
);
},
{
closed = 1;
nodes = (
(324,592,o),
(352,620,o),
(352,657,cs),
(352,693,o),
(324,720,o),
(288,720,cs),
(252,720,o),
(224,693,o),
(224,657,cs),
(224,620,o),
(252,592,o),
(288,592,cs)
);
}
);
width = 512;
},
{
layerId = "4FBB1917-F682-4041-B654-F2E0D2EF1242";
shapes = (
{
closed = 1;
nodes = (
(160,-208,ls),
(296,-208,o),
(334,-144,o),
(334,-31,cs),
(334,504,l),
(326,512,l),
(126,512,l),
(118,504,l),
(118,440,l),
(126,432,l),
(254,432,l),
(262,424,l),
(262,-47,ls),
(262,-104,o),
(232,-128,o),
(160,-128,cs),
(40,-128,l),
(32,-136,l),
(32,-200,l),
(40,-208,l)
);
},
{
closed = 1;
nodes = (
(324,592,o),
(352,620,o),
(352,657,cs),
(352,693,o),
(324,720,o),
(288,720,cs),
(252,720,o),
(224,693,o),
(224,657,cs),
(224,620,o),
(252,592,o),
(288,592,cs)
);
}
);
width = 512;
}
);
unicode = 106;
},
{
color = 5;
glyphname = jdotless;
layers = (
{
layerId = m01;
shapes = (
{
closed = 1;
nodes = (
(160,-208,ls),
(296,-208,o),
(334,-144,o),
(334,-31,cs),
(334,504,l),
(326,512,l),
(126,512,l),
(118,504,l),
(118,440,l),
(126,432,l),
(254,432,l),
(262,424,l),
(262,-47,ls),
(262,-104,o),
(232,-128,o),
(160,-128,cs),
(40,-128,l),
(32,-136,l),
(32,-200,l),
(40,-208,l)
);
}
);
width = 512;
},
{
layerId = "4FBB1917-F682-4041-B654-F2E0D2EF1242";
shapes = (
{
closed = 1;
nodes = (
(160,-208,ls),
(296,-208,o),
(334,-144,o),
(334,-31,cs),
(334,504,l),
(326,512,l),
(126,512,l),
(118,504,l),
(118,440,l),
(126,432,l),
(254,432,l),
(262,424,l),
(262,-47,ls),
(262,-104,o),
(232,-128,o),
(160,-128,cs),
(40,-128,l),
(32,-136,l),
(32,-200,l),
(40,-208,l)
);
}
);
width = 512;
}
);
unicode = 567;
},
{
color = 5;
glyphname = k;
layers = (
{
layerId = m01;
shapes = (
{
closed = 1;
nodes = (
(144,0,l),
(152,8,l),
(152,212,l),
(160,220,l),
(213,220,l),
(373,8,l),
(385,0,l),
(448,0,l),
(456,8,l),
(456,16,l),
(274,250,l),
(274,266,l),
(438,496,l),
(438,504,l),
(430,512,l),
(367,512,l),
(356,504,l),
(213,300,l),
(160,300,l),
(152,308,l),
(152,696,l),
(144,704,l),
(88,704,l),
(80,696,l),
(80,8,l),
(88,0,l)
);
}
);
width = 512;
},
{
layerId = "4FBB1917-F682-4041-B654-F2E0D2EF1242";
shapes = (
{
closed = 1;
nodes = (
(144,0,l),
(152,8,l),
(152,212,l),
(160,220,l),
(213,220,l),
(378,8,l),
(390,0,l),
(448,0,l),
(456,8,l),
(456,16,l),
(274,251,l),
(274,267,l),
(438,496,l),
(438,504,l),
(430,512,l),
(373,512,l),
(365,504,l),
(218,300,l),
(160,300,l),
(152,308,l),
(152,696,l),
(144,704,l),
(88,704,l),
(80,696,l),
(80,8,l),
(88,0,l)
);
}
);
width = 512;
}
);
unicode = 107;
},
{
color = 5;
glyphname = l;
layers = (
{
anchors = (
{
name = top;
pos = (239,736);
}
);
layerId = m01;
shapes = (
{
closed = 1;
nodes = (
(440,0,l),
(448,8,l),
(448,72,l),
(440,80,l),
(290,80,l),
(282,88,l),
(282,728,l),
(274,736,l),
(74,736,l),
(66,728,l),
(66,664,l),
(74,656,l),
(202,656,l),
(210,648,l),
(210,88,l),
(202,80,l),
(72,80,l),
(64,72,l),
(64,8,l),
(72,0,l)
);
}
);
width = 512;
},
{
anchors = (
{
name = top;
pos = (239,736);
}
);
layerId = "4FBB1917-F682-4041-B654-F2E0D2EF1242";
shapes = (
{
closed = 1;
nodes = (
(464,0,l),
(472,8,l),
(472,152,l),
(464,160,l),
(346,160,l),
(338,168,l),
(338,728,l),
(330,736,l),
(50,736,l),
(42,728,l),
(42,584,l),
(50,576,l),
(170,576,l),
(178,568,l),
(178,168,l),
(170,160,l),
(48,160,l),
(40,152,l),
(40,8,l),
(48,0,l)
);
}
);
width = 512;
}
);
unicode = 108;
},
{
color = 5;
glyphname = m;
layers = (
{
layerId = m01;
shapes = (
{
closed = 1;
nodes = (
(122,0,l),
(130,8,l),
(130,389,ls),
(130,425,o),
(143,448,o),
(177,448,cs),
(211,448,o),
(224,425,o),
(224,389,cs),
(224,8,l),
(232,0,l),
(280,0,l),
(288,8,l),
(288,389,ls),
(288,425,o),
(301,448,o),
(335,448,cs),
(369,448,o),
(382,425,o),
(382,389,cs),
(382,8,l),
(390,0,l),
(446,0,l),
(454,8,l),
(454,429,ls),
(454,489,o),
(428,528,o),
(368,528,cs),
(326,528,o),
(302,496,o),
(291,456,c),
(283,456,l),
(272,496,o),
(253,528,o),
(211,528,cs),
(169,528,o),
(148,498,o),
(140,456,c),
(132,456,l),
(124,504,l),
(116,512,l),
(66,512,l),
(58,504,l),
(58,8,l),
(66,0,l)
);
}
);
width = 512;
},
{
layerId = "4FBB1917-F682-4041-B654-F2E0D2EF1242";
shapes = (
{
closed = 1;
nodes = (
(122,0,l),
(130,8,l),
(130,382,ls),
(130,421,o),
(148,441,o),
(178,441,cs),
(208,441,o),
(226,421,o),
(226,382,cs),
(226,8,l),
(234,0,l),
(278,0,l),
(286,8,l),
(286,382,ls),
(286,421,o),
(304,441,o),
(334,441,cs),
(364,441,o),
(382,421,o),
(382,382,cs),
(382,8,l),
(390,0,l),
(444,0,l),
(452,8,l),
(452,426,ls),
(452,502,o),
(412,528,o),
(368,528,cs),
(334,528,o),
(302,502,o),
(291,464,c),
(283,464,l),
(272,502,o),
(248,528,o),
(211,528,cs),
(175,528,o),
(150,502,o),
(140,464,c),
(132,464,l),
(124,504,l),
(116,512,l),
(68,512,l),
(60,504,l),
(60,8,l),
(68,0,l)
);
}
);
width = 512;
},
{
associatedMasterId = m01;
layerId = "C947C2F9-0A37-4430-86EF-07D4059A75DF";
name = "Nov 12, 22, 20:09";
shapes = (
{
closed = 1;
nodes = (
(122,0,l),
(130,8,l),
(130,382,ls),
(130,421,o),
(148,441,o),
(178,441,cs),
(208,441,o),
(226,421,o),
(226,382,cs),
(226,8,l),
(234,0,l),
(278,0,l),
(286,8,l),
(286,382,ls),
(286,421,o),
(304,441,o),
(334,441,cs),
(364,441,o),
(382,421,o),
(382,382,cs),
(382,8,l),
(390,0,l),
(444,0,l),
(452,8,l),
(452,426,ls),
(452,502,o),
(412,528,o),
(368,528,cs),
(334,528,o),
(302,502,o),
(291,464,c),
(283,464,l),
(272,502,o),
(248,528,o),
(211,528,cs),
(175,528,o),
(150,502,o),
(140,464,c),
(132,464,l),
(124,504,l),
(116,512,l),
(68,512,l),
(60,504,l),
(60,8,l),
(68,0,l)
);
}
);
visible = 1;
width = 512;
}
);
unicode = 109;
},
{
color = 5;
glyphname = n;
layers = (
{
anchors = (
{
name = top;
pos = (260,512);
}
);
layerId = m01;
shapes = (
{
closed = 1;
nodes = (
(144,0,l),
(152,8,l),
(152,337,ls),
(152,421,o),
(200,448,o),
(256,448,cs),
(312,448,o),
(360,421,o),
(360,337,cs),
(360,8,l),
(368,0,l),
(424,0,l),
(432,8,l),
(432,369,ls),
(432,476,o),
(377,528,o),
(292,528,cs),
(232,528,o),
(190,503,o),
(160,464,c),
(152,464,l),
(144,504,l),
(136,512,l),
(88,512,l),
(80,504,l),
(80,8,l),
(88,0,l)
);
}
);
width = 512;
},
{
anchors = (
{
name = top;
pos = (260,512);
}
);
layerId = "4FBB1917-F682-4041-B654-F2E0D2EF1242";
shapes = (
{
closed = 1;
nodes = (
(136,0,l),
(144,8,l),
(144,329,ls),
(144,413,o),
(206,440,o),
(262,440,cs),
(318,440,o),
(368,413,o),
(368,329,cs),
(368,8,l),
(376,0,l),
(432,0,l),
(440,8,l),
(440,345,ls),
(440,460,o),
(377,520,o),
(292,520,cs),
(232,520,o),
(179,494,o),
(144,448,c),
(136,448,l),
(136,504,l),
(128,512,l),
(80,512,l),
(72,504,l),
(72,8,l),
(80,0,l)
);
}
);
width = 512;
}
);
unicode = 110;
},
{
color = 5;
glyphname = o;
layers = (
{
layerId = m01;
shapes = (
{
closed = 1;
nodes = (
(384,-16,o),
(432,56,o),
(432,184,cs),
(432,328,ls),
(432,456,o),
(384,528,o),
(256,528,cs),
(128,528,o),
(80,456,o),
(80,328,cs),
(80,184,ls),
(80,56,o),
(128,-16,o),
(256,-16,cs)
);
},
{
closed = 1;
nodes = (
(176,64,o),
(152,112,o),
(152,192,cs),
(152,320,ls),
(152,400,o),
(176,448,o),
(256,448,cs),
(336,448,o),
(360,400,o),
(360,320,cs),
(360,192,ls),
(360,112,o),
(336,64,o),
(256,64,cs)
);
}
);
width = 512;
},
{
layerId = "4FBB1917-F682-4041-B654-F2E0D2EF1242";
shapes = (
{
closed = 1;
nodes = (
(384,-16,o),
(464,64,o),
(464,192,cs),
(464,320,ls),
(464,448,o),
(384,528,o),
(256,528,cs),
(128,528,o),
(48,448,o),
(48,320,cs),
(48,192,ls),
(48,64,o),
(128,-16,o),
(256,-16,cs)
);
},
{
closed = 1;
nodes = (
(216,144,o),
(208,168,o),
(208,208,cs),
(208,304,ls),
(208,344,o),
(216,368,o),
(256,368,cs),
(296,368,o),
(304,344,o),
(304,304,cs),
(304,208,ls),
(304,168,o),
(296,144,o),
(256,144,cs)
);
}
);
width = 512;
},
{
associatedMasterId = m01;
layerId = "67EB2245-D95F-4AA6-A444-94E2EA7A426E";
name = "Jan 6, 23 at 23:33";
shapes = (
{
closed = 1;
nodes = (
(360,-16,o),
(432,40,o),
(432,160,cs),
(432,352,ls),
(432,472,o),
(360,528,o),
(256,528,cs),
(152,528,o),
(80,472,o),
(80,352,cs),
(80,160,ls),
(80,40,o),
(152,-16,o),
(256,-16,cs)
);
},
{
closed = 1;
nodes = (
(192,64,o),
(152,96,o),
(152,192,cs),
(152,320,ls),
(152,416,o),
(192,448,o),
(256,448,cs),
(320,448,o),
(360,416,o),
(360,320,cs),
(360,192,ls),
(360,96,o),
(320,64,o),
(256,64,cs)
);
}
);
width = 512;
}
);
unicode = 111;
},
{
color = 5;
glyphname = oslash;
layers = (
{
layerId = m01;
shapes = (
{
closed = 1;
nodes = (
(360,-16,o),
(432,40,o),
(432,160,cs),
(432,352,ls),
(432,472,o),
(360,528,o),
(256,528,cs),
(152,528,o),
(80,472,o),
(80,352,cs),
(80,160,ls),
(80,40,o),
(152,-16,o),
(256,-16,cs)
);
},
{
closed = 1;
nodes = (
(192,64,o),
(152,96,o),
(152,192,cs),
(152,320,ls),
(152,416,o),
(192,448,o),
(256,448,cs),
(320,448,o),
(360,416,o),
(360,320,cs),
(360,192,ls),
(360,96,o),
(320,64,o),
(256,64,cs)
);
}
);
width = 512;
},
{
layerId = "4FBB1917-F682-4041-B654-F2E0D2EF1242";
shapes = (
{
closed = 1;
nodes = (
(360,-16,o),
(432,40,o),
(432,160,cs),
(432,352,ls),
(432,472,o),
(360,528,o),
(256,528,cs),
(152,528,o),
(80,472,o),
(80,352,cs),
(80,160,ls),
(80,40,o),
(152,-16,o),
(256,-16,cs)
);
},
{
closed = 1;
nodes = (
(192,64,o),
(152,96,o),
(152,192,cs),
(152,320,ls),
(152,416,o),
(192,448,o),
(256,448,cs),
(320,448,o),
(360,416,o),
(360,320,cs),
(360,192,ls),
(360,96,o),
(320,64,o),
(256,64,cs)
);
}
);
width = 512;
}
);
unicode = 248;
},
{
color = 5;
glyphname = oe;
layers = (
{
layerId = m01;
shapes = (
{
closed = 1;
nodes = (
(212,-16,o),
(237,2,o),
(268,41,c),
(299,3,o),
(316,-16,o),
(376,-16,cs),
(480,-16,o),
(504,40,o),
(504,124,cs),
(504,140,l),
(496,148,l),
(440,148,l),
(432,140,l),
(432,124,ls),
(432,84,o),
(435,64,o),
(377,64,cs),
(306,64,o),
(304,96,o),
(304,190,cs),
(304,216,l),
(312,224,l),
(504,224,l),
(512,232,l),
(512,352,ls),
(512,472,o),
(480,528,o),
(376,528,cs),
(316,528,o),
(299,510,o),
(268,471,c),
(237,510,o),
(212,528,o),
(152,528,cs),
(48,528,o),
(0,472,o),
(0,352,cs),
(0,160,ls),
(0,40,o),
(48,-16,o),
(152,-16,cs)
);
},
{
closed = 1;
nodes = (
(72,320,ls),
(72,416,o),
(88,448,o),
(152,448,cs),
(216,448,o),
(232,416,o),
(232,320,cs),
(232,192,ls),
(232,96,o),
(216,64,o),
(152,64,cs),
(88,64,o),
(72,96,o),
(72,192,cs)
);
},
{
closed = 1;
nodes = (
(304,320,ls),
(304,416,o),
(312,448,o),
(376,448,cs),
(440,448,o),
(440,416,o),
(440,320,cs),
(440,304,l),
(432,296,l),
(312,296,l),
(304,304,l)
);
}
);
width = 512;
},
{
layerId = "4FBB1917-F682-4041-B654-F2E0D2EF1242";
shapes = (
{
closed = 1;
nodes = (
(212,-16,o),
(237,2,o),
(268,41,c),
(299,3,o),
(316,-16,o),
(376,-16,cs),
(480,-16,o),
(504,40,o),
(504,124,cs),
(504,140,l),
(496,148,l),
(440,148,l),
(432,140,l),
(432,124,ls),
(432,84,o),
(435,64,o),
(377,64,cs),
(306,64,o),
(304,96,o),
(304,190,cs),
(304,216,l),
(312,224,l),
(504,224,l),
(512,232,l),
(512,352,ls),
(512,472,o),
(480,528,o),
(376,528,cs),
(316,528,o),
(299,510,o),
(268,471,c),
(237,510,o),
(212,528,o),
(152,528,cs),
(48,528,o),
(0,472,o),
(0,352,cs),
(0,160,ls),
(0,40,o),
(48,-16,o),
(152,-16,cs)
);
},
{
closed = 1;
nodes = (
(72,320,ls),
(72,416,o),
(88,448,o),
(152,448,cs),
(216,448,o),
(232,416,o),
(232,320,cs),
(232,192,ls),
(232,96,o),
(216,64,o),
(152,64,cs),
(88,64,o),
(72,96,o),
(72,192,cs)
);
},
{
closed = 1;
nodes = (
(304,320,ls),
(304,416,o),
(312,448,o),
(376,448,cs),
(440,448,o),
(440,416,o),
(440,320,cs),
(440,304,l),
(432,296,l),
(312,296,l),
(304,304,l)
);
}
);
width = 512;
}
);
unicode = 339;
},
{
color = 5;
glyphname = p;
layers = (
{
layerId = m01;
shapes = (
{
closed = 1;
nodes = (
(152,-200,l),
(152,43,l),
(160,43,l),
(171,20,o),
(210,-16,o),
(264,-16,cs),
(376,-16,o),
(432,48,o),
(432,176,cs),
(432,336,ls),
(432,464,o),
(376,528,o),
(264,528,cs),
(210,528,o),
(171,499,o),
(152,472,c),
(144,472,l),
(136,504,l),
(128,512,l),
(88,512,l),
(80,504,l),
(80,-200,l),
(88,-208,l),
(144,-208,l)
);
},
{
closed = 1;
nodes = (
(184,64,o),
(152,113,o),
(152,192,cs),
(152,320,ls),
(152,416,o),
(192,448,o),
(256,448,cs),
(320,448,o),
(360,416,o),
(360,320,cs),
(360,192,ls),
(360,113,o),
(336,64,o),
(256,64,cs)
);
}
);
width = 512;
},
{
layerId = "4FBB1917-F682-4041-B654-F2E0D2EF1242";
shapes = (
{
closed = 1;
nodes = (
(152,-200,l),
(152,43,l),
(160,43,l),
(171,20,o),
(210,-16,o),
(264,-16,cs),
(376,-16,o),
(432,48,o),
(432,176,cs),
(432,336,ls),
(432,464,o),
(376,528,o),
(264,528,cs),
(210,528,o),
(171,499,o),
(152,472,c),
(144,472,l),
(136,504,l),
(128,512,l),
(88,512,l),
(80,504,l),
(80,-200,l),
(88,-208,l),
(144,-208,l)
);
},
{
closed = 1;
nodes = (
(184,64,o),
(152,113,o),
(152,192,cs),
(152,320,ls),
(152,416,o),
(192,448,o),
(256,448,cs),
(320,448,o),
(360,416,o),
(360,320,cs),
(360,192,ls),
(360,113,o),
(336,64,o),
(256,64,cs)
);
}
);
width = 512;
}
);
unicode = 112;
},
{
color = 5;
glyphname = thorn;
layers = (
{
layerId = m01;
shapes = (
{
closed = 1;
nodes = (
(144,-122,l),
(152,-114,l),
(152,48,l),
(160,48,l),
(188,8,o),
(232,-16,o),
(280,-16,cs),
(368,-16,o),
(432,40,o),
(432,160,cs),
(432,288,ls),
(432,408,o),
(368,464,o),
(280,464,cs),
(232,464,o),
(188,440,o),
(160,405,c),
(152,405,l),
(152,574,l),
(144,582,l),
(88,582,l),
(80,574,l),
(80,-114,l),
(88,-122,l)
);
},
{
closed = 1;
nodes = (
(192,64,o),
(152,96,o),
(152,192,cs),
(152,256,ls),
(152,352,o),
(192,384,o),
(256,384,cs),
(320,384,o),
(360,352,o),
(360,256,cs),
(360,192,ls),
(360,96,o),
(320,64,o),
(256,64,cs)
);
}
);
width = 512;
},
{
layerId = "4FBB1917-F682-4041-B654-F2E0D2EF1242";
shapes = (
{
closed = 1;
nodes = (
(144,-122,l),
(152,-114,l),
(152,48,l),
(160,48,l),
(188,8,o),
(232,-16,o),
(280,-16,cs),
(368,-16,o),
(432,40,o),
(432,160,cs),
(432,288,ls),
(432,408,o),
(368,464,o),
(280,464,cs),
(232,464,o),
(188,440,o),
(160,405,c),
(152,405,l),
(152,574,l),
(144,582,l),
(88,582,l),
(80,574,l),
(80,-114,l),
(88,-122,l)
);
},
{
closed = 1;
nodes = (
(192,64,o),
(152,96,o),
(152,192,cs),
(152,256,ls),
(152,352,o),
(192,384,o),
(256,384,cs),
(320,384,o),
(360,352,o),
(360,256,cs),
(360,192,ls),
(360,96,o),
(320,64,o),
(256,64,cs)
);
}
);
width = 512;
}
);
unicode = 254;
},
{
color = 5;
glyphname = q;
layers = (
{
layerId = m01;
shapes = (
{
closed = 1;
nodes = (
(424,-208,l),
(432,-200,l),
(432,504,l),
(424,512,l),
(384,512,l),
(376,504,l),
(368,472,l),
(360,472,l),
(341,499,o),
(302,528,o),
(248,528,cs),
(136,528,o),
(80,464,o),
(80,336,cs),
(80,176,ls),
(80,48,o),
(136,-16,o),
(248,-16,cs),
(302,-16,o),
(341,20,o),
(352,43,c),
(360,43,l),
(360,-200,l),
(368,-208,l)
);
},
{
closed = 1;
nodes = (
(176,64,o),
(152,113,o),
(152,192,cs),
(152,320,ls),
(152,416,o),
(192,448,o),
(256,448,cs),
(320,448,o),
(360,416,o),
(360,320,cs),
(360,192,ls),
(360,113,o),
(328,64,o),
(256,64,cs)
);
}
);
width = 512;
},
{
layerId = "4FBB1917-F682-4041-B654-F2E0D2EF1242";
shapes = (
{
closed = 1;
nodes = (
(424,-208,l),
(432,-200,l),
(432,504,l),
(424,512,l),
(384,512,l),
(376,504,l),
(368,472,l),
(360,472,l),
(341,499,o),
(302,528,o),
(248,528,cs),
(136,528,o),
(80,464,o),
(80,336,cs),
(80,176,ls),
(80,48,o),
(136,-16,o),
(248,-16,cs),
(302,-16,o),
(341,20,o),
(352,43,c),
(360,43,l),
(360,-200,l),
(368,-208,l)
);
},
{
closed = 1;
nodes = (
(176,64,o),
(152,113,o),
(152,192,cs),
(152,320,ls),
(152,416,o),
(192,448,o),
(256,448,cs),
(320,448,o),
(360,416,o),
(360,320,cs),
(360,192,ls),
(360,113,o),
(328,64,o),
(256,64,cs)
);
}
);
width = 512;
},
{
associatedMasterId = m01;
layerId = "E9AC2B28-F581-4F56-AE42-17BBE254D910";
name = "Jun 1, 22, 00:56";
shapes = (
{
closed = 1;
nodes = (
(360,-16,o),
(432,40,o),
(432,176,cs),
(432,336,ls),
(432,472,o),
(360,528,o),
(256,528,cs),
(152,528,o),
(80,472,o),
(80,336,cs),
(80,176,ls),
(80,40,o),
(152,-16,o),
(256,-16,cs)
);
},
{
closed = 1;
nodes = (
(192,64,o),
(152,96,o),
(152,192,cs),
(152,320,ls),
(152,416,o),
(192,448,o),
(256,448,cs),
(320,448,o),
(360,416,o),
(360,320,cs),
(360,192,ls),
(360,96,o),
(320,64,o),
(256,64,cs)
);
}
);
visible = 1;
width = 512;
}
);
unicode = 113;
},
{
color = 5;
glyphname = r;
layers = (
{
anchors = (
{
name = top;
pos = (269,512);
}
);
layerId = m01;
shapes = (
{
closed = 1;
nodes = (
(354,0,l),
(362,8,l),
(362,72,l),
(354,80,l),
(242,80,l),
(234,88,l),
(234,328,ls),
(234,392,o),
(250,448,o),
(322,448,cs),
(394,448,o),
(410,392,o),
(410,328,cs),
(410,312,l),
(418,304,l),
(474,304,l),
(482,312,l),
(482,336,ls),
(482,456,o),
(450,528,o),
(338,528,cs),
(302,528,o),
(260,512,o),
(234,456,c),
(226,456,l),
(218,464,l),
(226,496,l),
(226,504,l),
(218,512,l),
(74,512,l),
(66,504,l),
(66,440,l),
(74,432,l),
(154,432,l),
(162,424,l),
(162,88,l),
(154,80,l),
(72,80,l),
(64,72,l),
(64,8,l),
(72,0,l)
);
}
);
width = 512;
},
{
anchors = (
{
name = top;
pos = (269,512);
}
);
associatedMasterId = m01;
layerId = "29F90ED7-34F8-498C-A2D4-07C7C8596954";
name = "Jan 7, 23 at 17:01";
shapes = (
{
closed = 1;
nodes = (
(448,-16,o),
(496,56,o),
(496,184,cs),
(496,328,ls),
(496,456,o),
(448,528,o),
(320,528,cs),
(192,528,o),
(144,456,o),
(144,328,cs),
(144,184,ls),
(144,56,o),
(192,-16,o),
(320,-16,cs)
);
},
{
closed = 1;
nodes = (
(240,64,o),
(216,112,o),
(216,192,cs),
(216,320,ls),
(216,400,o),
(240,448,o),
(320,448,cs),
(400,448,o),
(424,400,o),
(424,320,cs),
(424,192,ls),
(424,112,o),
(400,64,o),
(320,64,cs)
);
}
);
width = 512;
},
{
anchors = (
{
name = top;
pos = (269,512);
}
);
associatedMasterId = m01;
layerId = "F568AF8C-40C6-4D4C-94D3-B7A898713697";
name = "Jan 7, 23 at 16:37";
shapes = (
{
closed = 1;
nodes = (
(144,0,l),
(152,8,l),
(152,345,ls),
(152,421,o),
(204,448,o),
(264,448,cs),
(324,448,o),
(376,421,o),
(376,345,cs),
(376,280,l),
(384,272,l),
(440,272,l),
(448,280,l),
(448,361,ls),
(448,476,o),
(386,528,o),
(301,528,cs),
(241,528,o),
(197,504,o),
(152,456,c),
(144,456,l),
(136,504,l),
(128,512,l),
(88,512,l),
(80,504,l),
(80,8,l),
(88,0,l)
);
}
);
width = 512;
},
{
anchors = (
{
name = top;
pos = (269,512);
}
);
layerId = "4FBB1917-F682-4041-B654-F2E0D2EF1242";
shapes = (
{
closed = 1;
nodes = (
(378,0,l),
(386,8,l),
(386,152,l),
(378,160,l),
(274,160,l),
(266,168,l),
(266,344,ls),
(266,376,o),
(278,392,o),
(302,392,cs),
(326,392,o),
(338,376,o),
(338,344,cs),
(338,312,l),
(346,304,l),
(490,304,l),
(498,312,l),
(498,344,ls),
(498,472,o),
(450,528,o),
(354,528,cs),
(310,528,o),
(260,512,o),
(234,456,c),
(226,456,l),
(218,464,l),
(226,496,l),
(226,504,l),
(218,512,l),
(66,512,l),
(58,504,l),
(58,360,l),
(66,352,l),
(114,352,l),
(122,344,l),
(122,168,l),
(114,160,l),
(48,160,l),
(40,152,l),
(40,8,l),
(48,0,l)
);
}
);
width = 512;
}
);
unicode = 114;
},
{
color = 5;
glyphname = s;
layers = (
{
anchors = (
{
name = top;
pos = (246,512);
}
);
layerId = m01;
shapes = (
{
closed = 1;
nodes = (
(360,-16,o),
(440,24,o),
(440,121,cs),
(440,225,o),
(378,256,o),
(258,296,cs),
(192,318,o),
(156,343,o),
(156,375,cs),
(156,415,o),
(176,448,o),
(256,448,cs),
(304,448,o),
(340,423,o),
(340,375,cs),
(340,358,l),
(348,350,l),
(404,350,l),
(412,358,l),
(412,391,ls),
(412,479,o),
(328,528,o),
(248,528,cs),
(144,528,o),
(84,479,o),
(84,391,cs),
(84,301,o),
(135,261,o),
(256,220,cs),
(328,196,o),
(368,171,o),
(368,137,cs),
(368,105,o),
(344,64,o),
(256,64,cs),
(168,64,o),
(144,89,o),
(144,137,cs),
(144,162,l),
(136,170,l),
(80,170,l),
(72,162,l),
(72,121,ls),
(72,32,o),
(144,-16,o),
(264,-16,cs)
);
}
);
width = 512;
},
{
anchors = (
{
name = top;
pos = (256,512);
}
);
layerId = "4FBB1917-F682-4041-B654-F2E0D2EF1242";
shapes = (
{
closed = 1;
nodes = (
(360,-16,o),
(432,24,o),
(432,121,cs),
(432,225,o),
(378,254,o),
(258,296,cs),
(197,317,o),
(164,343,o),
(164,375,cs),
(164,415,o),
(176,448,o),
(256,448,cs),
(312,448,o),
(340,415,o),
(340,375,cs),
(340,358,l),
(348,350,l),
(404,350,l),
(412,358,l),
(412,391,ls),
(412,479,o),
(352,528,o),
(248,528,cs),
(144,528,o),
(92,479,o),
(92,391,cs),
(92,313,o),
(135,261,o),
(256,220,cs),
(328,196,o),
(360,171,o),
(360,137,cs),
(360,105,o),
(344,64,o),
(256,64,cs),
(192,64,o),
(152,105,o),
(152,137,cs),
(152,162,l),
(144,170,l),
(88,170,l),
(80,162,l),
(80,121,ls),
(80,24,o),
(176,-16,o),
(264,-16,cs)
);
}
);
width = 512;
},
{
associatedMasterId = m01;
layerId = "231BC6AB-B228-4CB4-B45E-6179ADBE5AD1";
name = "May 31, 22, 18:10";
shapes = (
{
closed = 1;
nodes = (
(352,-16,o),
(432,16,o),
(432,113,cs),
(432,201,o),
(408,244,o),
(319,275,cs),
(233,305,ls),
(174,325,o),
(160,343,o),
(160,375,cs),
(160,416,o),
(176,448,o),
(256,448,cs),
(312,448,o),
(336,408,o),
(336,375,cs),
(336,358,l),
(344,350,l),
(400,350,l),
(408,358,l),
(408,391,ls),
(408,456,o),
(360,528,o),
(256,528,cs),
(128,528,o),
(88,464,o),
(88,391,cs),
(88,313,o),
(113,269,o),
(184,245,cs),
(292,209,ls),
(338,194,o),
(360,170,o),
(360,129,cs),
(360,88,o),
(344,64,o),
(256,64,cs),
(192,64,o),
(152,88,o),
(152,129,cs),
(152,154,l),
(144,162,l),
(88,162,l),
(80,154,l),
(80,113,ls),
(80,16,o),
(168,-16,o),
(256,-16,cs)
);
}
);
visible = 1;
width = 512;
}
);
unicode = 115;
},
{
color = 5;
glyphname = germandbls;
layers = (
{
layerId = m01;
shapes = (
{
closed = 1;
nodes = (
(153,616,l),
(161,624,l),
(256,624,ls),
(312,624,o),
(343,592,o),
(343,543,cs),
(343,497,ls),
(343,440,o),
(328,407,o),
(256,407,c),
(248,399,l),
(248,343,l),
(256,335,l),
(336,335,o),
(367,305,o),
(367,239,cs),
(367,161,ls),
(367,102,o),
(351,80,o),
(272,80,c),
(264,72,l),
(264,9,l),
(272,0,l),
(384,0,o),
(440,40,o),
(440,129,cs),
(440,271,ls),
(440,315,o),
(414,354,o),
(353,368,c),
(353,376,l),
(392,384,o),
(416,411,o),
(416,465,cs),
(416,575,ls),
(416,664,o),
(358,704,o),
(272,704,cs),
(88,704,l),
(80,696,l),
(80,8,l),
(88,0,l),
(145,0,l),
(153,8,l)
);
}
);
width = 512;
},
{
layerId = "4FBB1917-F682-4041-B654-F2E0D2EF1242";
shapes = (
{
closed = 1;
nodes = (
(153,616,l),
(161,624,l),
(256,624,ls),
(312,624,o),
(343,592,o),
(343,543,cs),
(343,497,ls),
(343,440,o),
(328,407,o),
(256,407,c),
(248,399,l),
(248,343,l),
(256,335,l),
(336,335,o),
(367,305,o),
(367,239,cs),
(367,161,ls),
(367,102,o),
(351,80,o),
(272,80,c),
(264,72,l),
(264,9,l),
(272,0,l),
(384,0,o),
(440,40,o),
(440,129,cs),
(440,271,ls),
(440,315,o),
(414,354,o),
(353,368,c),
(353,376,l),
(392,384,o),
(416,411,o),
(416,465,cs),
(416,575,ls),
(416,664,o),
(358,704,o),
(272,704,cs),
(88,704,l),
(80,696,l),
(80,8,l),
(88,0,l),
(145,0,l),
(153,8,l)
);
}
);
width = 512;
}
);
unicode = 223;
},
{
color = 5;
glyphname = t;
layers = (
{
layerId = m01;
shapes = (
{
closed = 1;
nodes = (
(439,0,l),
(447,8,l),
(448,72,l),
(440,80,l),
(335,80,ls),
(288,80,o),
(274,105,o),
(274,181,cs),
(274,424,l),
(282,432,l),
(440,432,l),
(448,440,l),
(448,504,l),
(440,512,l),
(282,512,l),
(274,520,l),
(274,664,l),
(266,672,l),
(210,672,l),
(202,664,l),
(202,520,l),
(194,512,l),
(40,512,l),
(32,504,l),
(32,440,l),
(40,432,l),
(194,432,l),
(202,424,l),
(202,149,ls),
(202,33,o),
(246,0,o),
(319,0,cs)
);
}
);
width = 512;
},
{
layerId = "4FBB1917-F682-4041-B654-F2E0D2EF1242";
shapes = (
{
closed = 1;
nodes = (
(392,0,l),
(400,8,l),
(401,72,l),
(393,80,l),
(343,80,ls),
(288,80,o),
(282,117,o),
(282,193,cs),
(282,424,l),
(290,432,l),
(442,432,l),
(450,440,l),
(450,504,l),
(442,512,l),
(290,512,l),
(282,520,l),
(282,640,l),
(274,648,l),
(218,648,l),
(210,640,l),
(210,520,l),
(202,512,l),
(103,512,l),
(95,504,l),
(95,440,l),
(103,432,l),
(202,432,l),
(210,424,l),
(210,181,ls),
(210,65,o),
(222,0,o),
(343,0,cs)
);
}
);
width = 512;
}
);
unicode = 116;
},
{
color = 5;
glyphname = u;
layers = (
{
layerId = m01;
shapes = (
{
closed = 1;
nodes = (
(368,512,l),
(360,504,l),
(360,167,ls),
(360,91,o),
(306,64,o),
(250,64,cs),
(194,64,o),
(152,91,o),
(152,167,cs),
(152,504,l),
(144,512,l),
(88,512,l),
(80,504,l),
(80,151,ls),
(80,36,o),
(127,-16,o),
(220,-16,cs),
(272,-16,o),
(322,8,o),
(352,64,c),
(360,64,l),
(368,8,l),
(376,0,l),
(424,0,l),
(432,8,l),
(432,504,l),
(424,512,l)
);
}
);
width = 512;
},
{
layerId = "4FBB1917-F682-4041-B654-F2E0D2EF1242";
shapes = (
{
closed = 1;
nodes = (
(376,512,l),
(368,504,l),
(368,167,ls),
(368,83,o),
(306,64,o),
(250,64,cs),
(194,64,o),
(144,83,o),
(144,167,cs),
(144,504,l),
(136,512,l),
(80,512,l),
(72,504,l),
(72,151,ls),
(72,36,o),
(135,-16,o),
(220,-16,cs),
(280,-16,o),
(333,18,o),
(368,64,c),
(376,64,l),
(376,8,l),
(384,0,l),
(432,0,l),
(440,8,l),
(440,504,l),
(432,512,l)
);
}
);
width = 512;
}
);
unicode = 117;
},
{
color = 5;
glyphname = v;
layers = (
{
layerId = m01;
shapes = (
{
closed = 1;
nodes = (
(304,0,l),
(312,8,l),
(448,496,l),
(448,504,l),
(440,512,l),
(384,512,l),
(376,504,l),
(264,96,l),
(248,96,l),
(136,504,l),
(128,512,l),
(72,512,l),
(64,504,l),
(64,496,l),
(200,8,l),
(208,0,l)
);
}
);
width = 512;
},
{
layerId = "4FBB1917-F682-4041-B654-F2E0D2EF1242";
shapes = (
{
closed = 1;
nodes = (
(320,0,l),
(328,8,l),
(456,496,l),
(456,504,l),
(448,512,l),
(384,512,l),
(376,504,l),
(264,80,l),
(248,80,l),
(136,504,l),
(128,512,l),
(64,512,l),
(56,504,l),
(56,496,l),
(184,8,l),
(192,0,l)
);
}
);
width = 512;
}
);
unicode = 118;
},
{
color = 5;
glyphname = w;
layers = (
{
anchors = (
{
name = top;
pos = (253,512);
}
);
layerId = m01;
shapes = (
{
closed = 1;
nodes = (
(187,0,l),
(195,8,l),
(250,304,l),
(262,304,l),
(317,8,l),
(325,0,l),
(405,0,l),
(413,8,l),
(472,496,l),
(472,504,l),
(464,512,l),
(415,512,l),
(407,504,l),
(364,96,l),
(350,96,l),
(296,376,l),
(288,384,l),
(224,384,l),
(216,376,l),
(162,96,l),
(148,96,l),
(105,504,l),
(97,512,l),
(48,512,l),
(40,504,l),
(40,496,l),
(99,8,l),
(107,0,l)
);
}
);
width = 512;
},
{
anchors = (
{
name = top;
pos = (253,512);
}
);
layerId = "4FBB1917-F682-4041-B654-F2E0D2EF1242";
shapes = (
{
closed = 1;
nodes = (
(179,0,l),
(187,8,l),
(248,182,l),
(264,182,l),
(325,8,l),
(333,0,l),
(429,0,l),
(437,8,l),
(495,504,l),
(487,512,l),
(427,512,l),
(419,504,l),
(382,102,l),
(366,102,l),
(296,312,l),
(288,320,l),
(224,320,l),
(216,312,l),
(146,102,l),
(130,102,l),
(93,496,l),
(93,504,l),
(85,512,l),
(25,512,l),
(17,504,l),
(17,496,l),
(75,8,l),
(83,0,l)
);
}
);
width = 512;
}
);
unicode = 119;
},
{
color = 5;
glyphname = x;
layers = (
{
layerId = m01;
shapes = (
{
closed = 1;
nodes = (
(144,0,l),
(152,8,l),
(249,179,l),
(259,179,l),
(360,8,l),
(368,0,l),
(432,0,l),
(440,8,l),
(440,16,l),
(299,251,l),
(299,259,l),
(440,496,l),
(440,504,l),
(432,512,l),
(368,512,l),
(360,504,l),
(262,331,l),
(253,331,l),
(152,504,l),
(144,512,l),
(80,512,l),
(72,504,l),
(72,496,l),
(214,259,l),
(214,251,l),
(72,16,l),
(72,8,l),
(80,0,l)
);
}
);
width = 512;
},
{
layerId = "4FBB1917-F682-4041-B654-F2E0D2EF1242";
shapes = (
{
closed = 1;
nodes = (
(120,0,l),
(128,8,l),
(248,200,l),
(264,200,l),
(384,8,l),
(392,0,l),
(456,0,l),
(464,8,l),
(464,16,l),
(312,256,l),
(312,264,l),
(464,496,l),
(464,504,l),
(456,512,l),
(392,512,l),
(384,504,l),
(264,312,l),
(248,312,l),
(128,504,l),
(120,512,l),
(56,512,l),
(48,504,l),
(48,496,l),
(200,264,l),
(200,256,l),
(48,16,l),
(48,8,l),
(56,0,l)
);
}
);
width = 512;
}
);
unicode = 120;
},
{
color = 5;
glyphname = y;
layers = (
{
anchors = (
{
name = top;
pos = (263,512);
}
);
layerId = m01;
shapes = (
{
closed = 1;
nodes = (
(242,0,l),
(242,-8,l),
(226,-67,ls),
(213,-114,o),
(192,-128,o),
(153,-128,cs),
(72,-128,l),
(64,-136,l),
(64,-200,l),
(72,-208,l),
(166,-208,ls),
(242,-208,o),
(260,-172,o),
(274,-124,cs),
(448,496,l),
(448,504,l),
(440,512,l),
(384,512,l),
(376,504,l),
(264,80,l),
(248,80,l),
(136,504,l),
(128,512,l),
(72,512,l),
(64,504,l),
(64,496,l),
(200,8,l),
(208,0,l)
);
}
);
width = 512;
},
{
anchors = (
{
name = top;
pos = (263,512);
}
);
layerId = "4FBB1917-F682-4041-B654-F2E0D2EF1242";
shapes = (
{
closed = 1;
nodes = (
(250,0,l),
(250,-8,l),
(232,-67,ls),
(218,-113,o),
(177,-128,o),
(141,-128,cs),
(86,-128,l),
(78,-136,l),
(78,-200,l),
(86,-208,l),
(149,-208,ls),
(242,-208,o),
(269,-172,o),
(282,-124,cs),
(456,496,l),
(456,504,l),
(448,512,l),
(392,512,l),
(384,504,l),
(272,80,l),
(240,80,l),
(128,504,l),
(120,512,l),
(64,512,l),
(56,504,l),
(56,496,l),
(192,8,l),
(200,0,l)
);
}
);
width = 512;
},
{
associatedMasterId = m01;
layerId = "10F54978-4A74-4793-A9CA-1A3E65A0BD43";
name = "May 30, 22, 19:52";
shapes = (
{
closed = 1;
nodes = (
(304,0,l),
(312,8,l),
(448,496,l),
(448,504,l),
(440,512,l),
(384,512,l),
(376,504,l),
(264,80,l),
(248,80,l),
(136,504,l),
(128,512,l),
(72,512,l),
(64,504,l),
(64,496,l),
(200,8,l),
(208,0,l)
);
}
);
visible = 1;
width = 512;
}
);
unicode = 121;
},
{
color = 5;
glyphname = z;
layers = (
{
anchors = (
{
name = top;
pos = (259,512);
}
);
layerId = m01;
shapes = (
{
closed = 1;
nodes = (
(416,0,l),
(424,8,l),
(424,72,l),
(416,80,l),
(173,80,l),
(173,88,l),
(424,432,l),
(424,504,l),
(416,512,l),
(96,512,l),
(88,504,l),
(88,440,l),
(96,432,l),
(339,432,l),
(339,424,l),
(88,80,l),
(88,8,l),
(96,0,l)
);
}
);
width = 512;
},
{
anchors = (
{
name = top;
pos = (259,512);
}
);
layerId = "4FBB1917-F682-4041-B654-F2E0D2EF1242";
shapes = (
{
closed = 1;
nodes = (
(432,0,l),
(440,8,l),
(440,72,l),
(432,80,l),
(166,80,l),
(158,88,l),
(440,432,l),
(440,504,l),
(432,512,l),
(80,512,l),
(72,504,l),
(72,440,l),
(80,432,l),
(351,432,l),
(359,424,l),
(72,80,l),
(72,8,l),
(80,0,l)
);
}
);
width = 512;
}
);
unicode = 122;
},
{
color = 5;
glyphname = ordfeminine;
layers = (
{
layerId = m01;
shapes = (
{
closed = 1;
nodes = (
(215,416,o),
(191,425,o),
(191,463,cs),
(191,512,o),
(217,527,o),
(261,527,cs),
(298,527,l),
(303,522,l),
(303,448,l),
(284,423,o),
(261,416,o),
(239,416,cs)
);
},
{
closed = 1;
nodes = (
(263,364,o),
(288,379,o),
(306,402,c),
(311,402,l),
(316,377,o),
(343,374,o),
(364,374,c),
(379,374,l),
(385,379,l),
(385,422,l),
(379,427,l),
(370,427,ls),
(356,427,o),
(351,438,o),
(351,459,cs),
(351,617,ls),
(351,684,o),
(332,720,o),
(253,720,cs),
(202,720,o),
(161,699,o),
(161,636,cs),
(161,618,l),
(166,613,l),
(203,613,l),
(208,618,l),
(208,637,ls),
(208,661,o),
(226,668,o),
(253,668,cs),
(288,668,o),
(303,656,o),
(303,623,cs),
(303,579,l),
(298,574,l),
(252,574,ls),
(188,574,o),
(143,547,o),
(143,463,cs),
(143,396,o),
(187,364,o),
(234,364,cs)
);
}
);
width = 512;
},
{
layerId = "4FBB1917-F682-4041-B654-F2E0D2EF1242";
shapes = (
{
closed = 1;
nodes = (
(215,416,o),
(191,425,o),
(191,463,cs),
(191,512,o),
(217,527,o),
(261,527,cs),
(298,527,l),
(303,522,l),
(303,448,l),
(284,423,o),
(261,416,o),
(239,416,cs)
);
},
{
closed = 1;
nodes = (
(263,364,o),
(288,379,o),
(306,402,c),
(311,402,l),
(316,377,o),
(343,374,o),
(364,374,c),
(379,374,l),
(385,379,l),
(385,422,l),
(379,427,l),
(370,427,ls),
(356,427,o),
(351,438,o),
(351,459,cs),
(351,617,ls),
(351,684,o),
(332,720,o),
(253,720,cs),
(202,720,o),
(161,699,o),
(161,636,cs),
(161,618,l),
(166,613,l),
(203,613,l),
(208,618,l),
(208,637,ls),
(208,661,o),
(226,668,o),
(253,668,cs),
(288,668,o),
(303,656,o),
(303,623,cs),
(303,579,l),
(298,574,l),
(252,574,ls),
(188,574,o),
(143,547,o),
(143,463,cs),
(143,396,o),
(187,364,o),
(234,364,cs)
);
}
);
width = 512;
}
);
unicode = 170;
},
{
color = 5;
glyphname = ordmasculine;
layers = (
{
layerId = m01;
shapes = (
{
closed = 1;
nodes = (
(215,416,o),
(191,425,o),
(191,463,cs),
(191,512,o),
(217,527,o),
(261,527,cs),
(298,527,l),
(303,522,l),
(303,448,l),
(284,423,o),
(261,416,o),
(239,416,cs)
);
},
{
closed = 1;
nodes = (
(263,364,o),
(319,379,o),
(337,402,c),
(349,533,l),
(298,574,l),
(252,574,ls),
(188,574,o),
(143,547,o),
(143,463,cs),
(143,396,o),
(187,364,o),
(234,364,cs)
);
}
);
width = 512;
},
{
layerId = "4FBB1917-F682-4041-B654-F2E0D2EF1242";
shapes = (
{
closed = 1;
nodes = (
(215,416,o),
(191,425,o),
(191,463,cs),
(191,512,o),
(217,527,o),
(261,527,cs),
(298,527,l),
(303,522,l),
(303,448,l),
(284,423,o),
(261,416,o),
(239,416,cs)
);
},
{
closed = 1;
nodes = (
(263,364,o),
(319,379,o),
(337,402,c),
(349,533,l),
(298,574,l),
(252,574,ls),
(188,574,o),
(143,547,o),
(143,463,cs),
(143,396,o),
(187,364,o),
(234,364,cs)
);
}
);
width = 512;
}
);
unicode = 186;
},
{
color = 5;
glyphname = "hamza-ar";
layers = (
{
layerId = m01;
shapes = (
{
closed = 1;
nodes = (
(363,164,l),
(376,178,l),
(376,229,l),
(363,243,l),
(273,243,l),
(259,256,l),
(259,283,ls),
(259,298,o),
(268,306,o),
(284,306,cs),
(329,306,l),
(343,319,l),
(343,376,l),
(329,389,l),
(268,389,ls),
(203,389,o),
(186,354,o),
(186,296,cs),
(186,256,l),
(173,243,l),
(149,243,l),
(136,229,l),
(136,178,l),
(149,164,l)
);
}
);
width = 512;
},
{
layerId = "4FBB1917-F682-4041-B654-F2E0D2EF1242";
shapes = (
{
closed = 1;
nodes = (
(320,289,l),
(328,297,l),
(328,328,l),
(320,336,l),
(266,336,l),
(258,344,l),
(258,360,ls),
(258,369,o),
(263,374,o),
(273,374,cs),
(300,374,l),
(308,382,l),
(308,416,l),
(300,424,l),
(263,424,ls),
(224,424,o),
(214,403,o),
(214,368,cs),
(214,344,l),
(206,336,l),
(192,336,l),
(184,328,l),
(184,297,l),
(192,289,l)
);
}
);
width = 512;
}
);
unicode = 1569;
},
{
color = 5;
glyphname = "alef-ar";
layers = (
{
anchors = (
{
name = bottom;
pos = (256,0);
},
{
name = top;
pos = (256,704);
}
);
layerId = m01;
shapes = (
{
closed = 1;
nodes = (
(284,0,l),
(292,8,l),
(292,696,l),
(284,704,l),
(228,704,l),
(220,696,l),
(220,8,l),
(228,0,l)
);
}
);
width = 512;
},
{
anchors = (
{
name = bottom;
pos = (256,0);
},
{
name = top;
pos = (256,704);
}
);
layerId = "4FBB1917-F682-4041-B654-F2E0D2EF1242";
shapes = (
{
closed = 1;
nodes = (
(312,0,l),
(320,8,l),
(320,696,l),
(312,704,l),
(200,704,l),
(192,696,l),
(192,8,l),
(200,0,l)
);
}
);
width = 512;
}
);
unicode = 1575;
},
{
color = 5;
glyphname = "alef-ar.fina";
layers = (
{
anchors = (
{
name = bottom;
pos = (208,0);
},
{
name = top;
pos = (132,736);
}
);
layerId = m01;
shapes = (
{
closed = 1;
nodes = (
(472,0,l),
(480,8,l),
(480,72,l),
(472,80,l),
(232,80,ls),
(184,80,o),
(168,96,o),
(168,144,cs),
(168,728,l),
(160,736,l),
(104,736,l),
(96,728,l),
(96,128,ls),
(96,32,o),
(128,0,o),
(224,0,cs)
);
}
);
width = 512;
},
{
anchors = (
{
name = bottom;
pos = (300,0);
},
{
name = top;
pos = (240,768);
}
);
layerId = "4FBB1917-F682-4041-B654-F2E0D2EF1242";
shapes = (
{
closed = 1;
nodes = (
(488,0,l),
(496,8,l),
(496,72,l),
(488,80,l),
(312,80,ls),
(280,80,o),
(272,88,o),
(272,120,cs),
(272,696,l),
(264,704,l),
(208,704,l),
(200,696,l),
(200,96,ls),
(200,40,o),
(216,0,o),
(280,0,cs)
);
}
);
width = 512;
},
{
anchors = (
{
name = bottom;
pos = (268,0);
},
{
name = top;
pos = (84,704);
}
);
associatedMasterId = m01;
layerId = "BDAA0C7E-0619-45A2-AE27-7F736F01D2EF";
name = "Nov 6, 22, 13:51";
shapes = (
{
closed = 1;
nodes = (
(360,0,l),
(360,80,l),
(184,80,ls),
(136,80,o),
(120,96,o),
(120,144,cs),
(120,696,l),
(112,704,l),
(56,704,l),
(48,696,l),
(48,128,ls),
(48,32,o),
(80,0,o),
(176,0,cs)
);
}
);
width = 512;
}
);
},
{
color = 5;
glyphname = "behDotless-ar";
layers = (
{
anchors = (
{
name = bottom;
pos = (256,0);
},
{
name = top;
pos = (256,384);
}
);
layerId = m01;
shapes = (
{
closed = 1;
nodes = (
(352,0,ls),
(448,0,o),
(480,32,o),
(480,128,cs),
(480,376,l),
(472,384,l),
(416,384,l),
(408,376,l),
(408,144,ls),
(408,96,o),
(392,80,o),
(344,80,cs),
(168,80,ls),
(120,80,o),
(104,96,o),
(104,144,cs),
(104,376,l),
(96,384,l),
(40,384,l),
(32,376,l),
(32,128,ls),
(32,32,o),
(64,0,o),
(160,0,cs)
);
}
);
width = 512;
},
{
anchors = (
{
name = bottom;
pos = (306,0);
},
{
name = top;
pos = (310,312);
}
);
layerId = "4FBB1917-F682-4041-B654-F2E0D2EF1242";
shapes = (
{
closed = 1;
nodes = (
(496,0,ls),
(560,0,o),
(576,40,o),
(576,96,cs),
(576,280,l),
(568,288,l),
(456,288,l),
(448,280,l),
(448,248,ls),
(448,216,o),
(440,208,o),
(408,208,cs),
(192,208,ls),
(160,208,o),
(152,216,o),
(152,248,cs),
(152,280,l),
(144,288,l),
(32,288,l),
(24,280,l),
(24,96,ls),
(24,40,o),
(40,0,o),
(104,0,cs)
);
}
);
width = 512;
}
);
unicode = 1646;
},
{
color = 5;
glyphname = "behDotless-ar.fina";
layers = (
{
anchors = (
{
name = bottom;
pos = (256,0);
},
{
name = top;
pos = (232,384);
}
);
layerId = m01;
shapes = (
{
closed = 1;
nodes = (
(312,0,ls),
(344,0,o),
(368,16,o),
(376,32,c),
(392,32,l),
(400,16,o),
(424,0,o),
(456,0,cs),
(472,0,l),
(480,8,l),
(480,72,l),
(472,80,l),
(452,80,ls),
(428,80,o),
(420,88,o),
(420,112,cs),
(420,376,l),
(412,384,l),
(356,384,l),
(348,376,l),
(348,112,ls),
(348,88,o),
(340,80,o),
(316,80,cs),
(168,80,ls),
(120,80,o),
(104,96,o),
(104,144,cs),
(104,376,l),
(96,384,l),
(40,384,l),
(32,376,l),
(32,128,ls),
(32,32,o),
(64,0,o),
(160,0,cs)
);
}
);
width = 512;
},
{
anchors = (
{
name = bottom;
pos = (248,0);
},
{
name = top;
pos = (248,247);
}
);
layerId = "4FBB1917-F682-4041-B654-F2E0D2EF1242";
shapes = (
{
closed = 1;
nodes = (
(312,0,ls),
(344,0,o),
(368,16,o),
(376,32,c),
(392,32,l),
(400,16,o),
(424,0,o),
(456,0,cs),
(472,0,l),
(480,8,l),
(480,72,l),
(472,80,l),
(452,80,ls),
(428,80,o),
(420,88,o),
(420,112,cs),
(420,376,l),
(412,384,l),
(356,384,l),
(348,376,l),
(348,112,ls),
(348,88,o),
(340,80,o),
(316,80,cs),
(168,80,ls),
(120,80,o),
(104,96,o),
(104,144,cs),
(104,376,l),
(96,384,l),
(40,384,l),
(32,376,l),
(32,128,ls),
(32,32,o),
(64,0,o),
(160,0,cs)
);
}
);
width = 512;
},
{
anchors = (
{
name = bottom;
pos = (256,0);
},
{
name = top;
pos = (232,384);
}
);
associatedMasterId = m01;
layerId = "C8673147-7D82-459D-8568-0741AE10A778";
name = "Jan 8, 23 at 20:43";
shapes = (
{
closed = 1;
nodes = (
(472,0,l),
(480,8,l),
(480,72,l),
(472,80,l),
(440,80,l),
(432,88,l),
(432,376,l),
(424,384,l),
(368,384,l),
(360,376,l),
(360,88,l),
(352,80,l),
(168,80,ls),
(120,80,o),
(104,96,o),
(104,144,cs),
(104,376,l),
(96,384,l),
(40,384,l),
(32,376,l),
(32,128,ls),
(32,32,o),
(64,0,o),
(160,0,cs)
);
}
);
width = 512;
}
);
},
{
color = 5;
glyphname = "behDotless-ar.medi";
layers = (
{
anchors = (
{
name = bottom;
pos = (256,0);
},
{
name = top;
pos = (256,384);
}
);
layerId = m01;
shapes = (
{
closed = 1;
nodes = (
(220,112,ls),
(220,88,o),
(212,80,o),
(188,80,cs),
(40,80,l),
(32,72,l),
(32,8,l),
(40,0,l),
(184,0,ls),
(216,0,o),
(240,16,o),
(248,32,c),
(264,32,l),
(272,16,o),
(296,0,o),
(328,0,cs),
(472,0,l),
(480,8,l),
(480,72,l),
(472,80,l),
(324,80,ls),
(300,80,o),
(292,88,o),
(292,112,cs),
(292,376,l),
(284,384,l),
(228,384,l),
(220,376,l)
);
}
);
width = 512;
},
{
anchors = (
{
name = bottom;
pos = (256,0);
},
{
name = top;
pos = (256,384);
}
);
layerId = "4FBB1917-F682-4041-B654-F2E0D2EF1242";
shapes = (
{
closed = 1;
nodes = (
(176,192,ls),
(176,168,o),
(168,160,o),
(144,160,cs),
(40,160,l),
(32,152,l),
(32,8,l),
(40,0,l),
(184,0,ls),
(216,0,o),
(240,16,o),
(248,32,c),
(264,32,l),
(272,16,o),
(296,0,o),
(328,0,cs),
(472,0,l),
(480,8,l),
(480,152,l),
(472,160,l),
(368,160,ls),
(344,160,o),
(336,168,o),
(336,192,cs),
(336,376,l),
(328,384,l),
(184,384,l),
(176,376,l)
);
}
);
width = 512;
},
{
anchors = (
{
name = bottom;
pos = (256,0);
},
{
name = top;
pos = (256,336);
}
);
associatedMasterId = m01;
layerId = "9A56AB9D-B825-4465-A961-317555585998";
name = "Jan 7, 23 at 20:11";
shapes = (
{
closed = 1;
nodes = (
(220,112,ls),
(220,88,o),
(212,80,o),
(188,80,cs),
(40,80,l),
(32,72,l),
(32,8,l),
(40,0,l),
(188,0,ls),
(220,0,o),
(240,16,o),
(248,32,c),
(264,32,l),
(272,16,o),
(292,0,o),
(324,0,cs),
(472,0,l),
(480,8,l),
(480,72,l),
(472,80,l),
(324,80,ls),
(300,80,o),
(292,88,o),
(292,112,cs),
(292,328,l),
(284,336,l),
(228,336,l),
(220,328,l)
);
}
);
width = 512;
},
{
anchors = (
{
name = bottom;
pos = (256,0);
},
{
name = top;
pos = (256,336);
}
);
associatedMasterId = m01;
layerId = "4A9BA517-FC67-4962-9E1D-DCE53424FB8B";
name = "Jan 7, 23 at 20:15";
shapes = (
{
closed = 1;
nodes = (
(472,0,l),
(480,8,l),
(480,72,l),
(472,80,l),
(300,80,l),
(292,88,l),
(292,328,l),
(284,336,l),
(228,336,l),
(220,328,l),
(220,88,l),
(212,80,l),
(40,80,l),
(32,72,l),
(32,8,l),
(40,0,l)
);
}
);
width = 512;
}
);
},
{
color = 5;
glyphname = "behDotless-ar.init";
layers = (
{
anchors = (
{
name = bottom;
pos = (296,0);
},
{
name = top;
pos = (396,384);
}
);
layerId = m01;
shapes = (
{
closed = 1;
nodes = (
(304,0,ls),
(400,0,o),
(432,32,o),
(432,128,cs),
(432,376,l),
(424,384,l),
(368,384,l),
(360,376,l),
(360,144,ls),
(360,96,o),
(344,80,o),
(296,80,cs),
(40,80,l),
(32,72,l),
(32,8,l),
(40,0,l)
);
}
);
width = 512;
},
{
anchors = (
{
name = bottom;
pos = (176,0);
},
{
name = top;
pos = (333,232);
}
);
layerId = "4FBB1917-F682-4041-B654-F2E0D2EF1242";
shapes = (
{
closed = 1;
nodes = (
(288,0,ls),
(352,0,o),
(368,40,o),
(368,96,cs),
(368,224,l),
(360,232,l),
(304,232,l),
(296,224,l),
(296,120,ls),
(296,88,o),
(288,80,o),
(256,80,cs),
(24,80,l),
(16,72,l),
(16,8,l),
(24,0,l)
);
}
);
width = 512;
}
);
},
{
color = 5;
glyphname = "hah-ar";
layers = (
{
anchors = (
{
name = bottom;
pos = (328,0);
},
{
name = top;
pos = (279,336);
}
);
layerId = m01;
shapes = (
{
closed = 1;
nodes = (
(384,0,ls),
(432,0,o),
(448,16,o),
(448,64,cs),
(448,208,ls),
(448,304,o),
(416,336,o),
(320,336,cs),
(136,336,l),
(128,328,l),
(128,264,l),
(136,256,l),
(312,256,ls),
(360,256,o),
(376,240,o),
(376,192,cs),
(376,96,ls),
(376,84,o),
(372,80,o),
(360,80,cs),
(288,80,ls),
(144,80,o),
(64,0,o),
(64,-144,cs),
(64,-176,ls),
(64,-320,o),
(136,-408,o),
(288,-408,cs),
(392,-408,l),
(400,-400,l),
(400,-336,l),
(392,-328,l),
(296,-328,ls),
(176,-328,o),
(136,-272,o),
(136,-160,cs),
(136,-48,o),
(184,0,o),
(296,0,cs)
);
}
);
width = 512;
},
{
anchors = (
{
name = bottom;
pos = (328,0);
},
{
name = top;
pos = (255,336);
}
);
layerId = "4FBB1917-F682-4041-B654-F2E0D2EF1242";
shapes = (
{
closed = 1;
nodes = (
(384,0,ls),
(432,0,o),
(448,16,o),
(448,64,cs),
(448,208,ls),
(448,304,o),
(416,336,o),
(320,336,cs),
(136,336,l),
(128,328,l),
(128,264,l),
(136,256,l),
(312,256,ls),
(360,256,o),
(376,240,o),
(376,192,cs),
(376,96,ls),
(376,84,o),
(372,80,o),
(360,80,cs),
(288,80,ls),
(144,80,o),
(64,0,o),
(64,-144,cs),
(64,-176,ls),
(64,-320,o),
(136,-408,o),
(288,-408,cs),
(392,-408,l),
(400,-400,l),
(400,-336,l),
(392,-328,l),
(296,-328,ls),
(176,-328,o),
(136,-272,o),
(136,-160,cs),
(136,-48,o),
(184,0,o),
(296,0,cs)
);
}
);
width = 512;
},
{
anchors = (
{
name = bottom;
pos = (296,0);
},
{
name = top;
pos = (255,336);
}
);
associatedMasterId = m01;
layerId = "2BFA7424-CDD7-4BC9-AFF7-C41A79EA8F83";
name = "Jan 15, 23 at 22:02";
shapes = (
{
closed = 1;
nodes = (
(440,0,l),
(448,8,l),
(448,208,ls),
(448,304,o),
(416,336,o),
(320,336,cs),
(136,336,l),
(128,328,l),
(128,264,l),
(136,256,l),
(312,256,ls),
(360,256,o),
(376,240,o),
(376,192,cs),
(376,88,l),
(368,80,l),
(160,80,ls),
(96,80,o),
(64,48,o),
(64,-16,cs),
(64,-280,ls),
(64,-376,o),
(96,-408,o),
(192,-408,cs),
(440,-408,l),
(448,-400,l),
(448,-336,l),
(440,-328,l),
(200,-328,ls),
(152,-328,o),
(136,-312,o),
(136,-264,cs),
(136,-32,ls),
(136,-8,o),
(144,0,o),
(168,0,cs)
);
}
);
visible = 1;
width = 512;
}
);
unicode = 1581;
},
{
color = 5;
glyphname = "hah-ar.fina";
layers = (
{
anchors = (
{
name = bottom;
pos = (328,0);
},
{
name = top;
pos = (255,336);
}
);
layerId = m01;
shapes = (
{
closed = 1;
nodes = (
(472,0,l),
(480,8,l),
(480,71,l),
(472,80,l),
(456,80,l),
(448,88,l),
(448,208,ls),
(448,304,o),
(416,336,o),
(320,336,cs),
(136,336,l),
(128,328,l),
(128,264,l),
(136,256,l),
(312,256,ls),
(360,256,o),
(376,240,o),
(376,192,cs),
(376,96,ls),
(376,84,o),
(372,80,o),
(360,80,cs),
(288,80,ls),
(144,80,o),
(64,0,o),
(64,-144,cs),
(64,-176,ls),
(64,-320,o),
(136,-408,o),
(288,-408,cs),
(392,-408,l),
(400,-400,l),
(400,-336,l),
(392,-328,l),
(296,-328,ls),
(176,-328,o),
(136,-272,o),
(136,-160,cs),
(136,-48,o),
(184,0,o),
(296,0,cs)
);
}
);
width = 512;
},
{
anchors = (
{
name = bottom;
pos = (328,0);
},
{
name = top;
pos = (255,336);
}
);
layerId = "4FBB1917-F682-4041-B654-F2E0D2EF1242";
shapes = (
{
closed = 1;
nodes = (
(472,0,l),
(480,8,l),
(480,71,l),
(472,80,l),
(456,80,l),
(448,88,l),
(448,208,ls),
(448,304,o),
(416,336,o),
(320,336,cs),
(136,336,l),
(128,328,l),
(128,264,l),
(136,256,l),
(312,256,ls),
(360,256,o),
(376,240,o),
(376,192,cs),
(376,96,ls),
(376,84,o),
(372,80,o),
(360,80,cs),
(288,80,ls),
(144,80,o),
(64,0,o),
(64,-144,cs),
(64,-176,ls),
(64,-320,o),
(136,-408,o),
(288,-408,cs),
(392,-408,l),
(400,-400,l),
(400,-336,l),
(392,-328,l),
(296,-328,ls),
(176,-328,o),
(136,-272,o),
(136,-160,cs),
(136,-48,o),
(184,0,o),
(296,0,cs)
);
}
);
width = 512;
}
);
},
{
color = 5;
glyphname = "hah-ar.medi";
layers = (
{
anchors = (
{
name = bottom;
pos = (256,0);
},
{
name = top;
pos = (256,336);
}
);
layerId = m01;
shapes = (
{
closed = 1;
nodes = (
(472,0,l),
(480,8,l),
(480,71,l),
(472,80,l),
(432,80,l),
(432,208,ls),
(432,304,o),
(400,336,o),
(304,336,cs),
(88,336,l),
(80,328,l),
(80,264,l),
(88,256,l),
(296,256,ls),
(344,256,o),
(360,240,o),
(360,192,cs),
(360,88,l),
(352,80,l),
(40,80,l),
(32,72,l),
(32,8,l),
(40,0,l)
);
}
);
width = 512;
},
{
anchors = (
{
name = bottom;
pos = (288,0);
},
{
name = top;
pos = (283,288);
}
);
layerId = "4FBB1917-F682-4041-B654-F2E0D2EF1242";
shapes = (
{
closed = 1;
nodes = (
(488,0,l),
(496,8,l),
(496,71,l),
(488,80,l),
(456,80,l),
(456,184,ls),
(456,264,o),
(432,288,o),
(352,288,cs),
(120,288,l),
(112,280,l),
(112,216,l),
(120,208,l),
(336,208,ls),
(368,208,o),
(384,200,o),
(384,168,cs),
(384,88,l),
(376,80,l),
(24,80,l),
(16,72,l),
(16,8,l),
(24,0,l)
);
}
);
width = 512;
}
);
},
{
color = 5;
glyphname = "hah-ar.init";
layers = (
{
anchors = (
{
name = bottom;
pos = (240,0);
},
{
name = top;
pos = (255,336);
}
);
layerId = m01;
shapes = (
{
closed = 1;
nodes = (
(368,0,ls),
(416,0,o),
(432,16,o),
(432,64,cs),
(432,208,ls),
(432,304,o),
(400,336,o),
(304,336,cs),
(136,336,l),
(128,328,l),
(128,264,l),
(136,256,l),
(296,256,ls),
(344,256,o),
(360,240,o),
(360,192,cs),
(360,96,ls),
(360,84,o),
(356,80,o),
(344,80,cs),
(40,80,l),
(32,72,l),
(32,8,l),
(40,0,l)
);
}
);
width = 512;
},
{
anchors = (
{
name = bottom;
pos = (240,0);
},
{
name = top;
pos = (239,336);
}
);
associatedMasterId = m01;
layerId = "EB4B3C2D-6C55-4488-890F-4A9C973F199B";
name = "Jan 9, 23 at 20:23";
shapes = (
{
closed = 1;
nodes = (
(424,0,l),
(432,8,l),
(432,208,ls),
(432,304,o),
(400,336,o),
(304,336,cs),
(136,336,l),
(128,328,l),
(128,264,l),
(136,256,l),
(296,256,ls),
(344,256,o),
(360,240,o),
(360,192,cs),
(360,88,l),
(352,80,l),
(40,80,l),
(32,72,l),
(32,8,l),
(40,0,l)
);
}
);
visible = 1;
width = 512;
},
{
anchors = (
{
name = bottom;
pos = (296,32);
},
{
name = top;
pos = (315,299);
}
);
associatedMasterId = m01;
layerId = "D8DEB170-7E98-4C64-A282-55085F545EF3";
name = "Jul 1, 22, 13:19";
shapes = (
{
closed = 1;
nodes = (
(66,0,ls),
(274,0,o),
(348,128,o),
(464,128,cs),
(488,128,l),
(496,136,l),
(496,200,l),
(488,208,l),
(464,208,ls),
(372,208,o),
(292,280,o),
(120,280,cs),
(90,280,l),
(82,272,l),
(82,208,l),
(90,200,l),
(120,200,ls),
(192,200,o),
(269,187,o),
(331,163,c),
(331,155,l),
(232,118,o),
(198,80,o),
(58,80,cs),
(24,80,l),
(16,72,l),
(16,8,l),
(24,0,l)
);
}
);
width = 512;
},
{
anchors = (
{
name = bottom;
pos = (240,0);
},
{
name = top;
pos = (239,336);
}
);
layerId = "4FBB1917-F682-4041-B654-F2E0D2EF1242";
shapes = (
{
closed = 1;
nodes = (
(368,0,ls),
(416,0,o),
(432,16,o),
(432,64,cs),
(432,208,ls),
(432,304,o),
(400,336,o),
(304,336,cs),
(136,336,l),
(128,328,l),
(128,264,l),
(136,256,l),
(296,256,ls),
(344,256,o),
(360,240,o),
(360,192,cs),
(360,96,ls),
(360,84,o),
(356,80,o),
(344,80,cs),
(40,80,l),
(32,72,l),
(32,8,l),
(40,0,l)
);
}
);
width = 512;
}
);
},
{
color = 5;
glyphname = "dal-ar";
layers = (
{
anchors = (
{
name = top;
pos = (396,384);
}
);
layerId = m01;
shapes = (
{
closed = 1;
nodes = (
(360,112,ls),
(360,88,o),
(352,80,o),
(328,80,cs),
(184,80,ls),
(156,80,o),
(152,92,o),
(152,112,cs),
(152,136,l),
(144,144,l),
(88,144,l),
(80,136,l),
(80,96,ls),
(80,32,o),
(112,0,o),
(176,0,cs),
(336,0,ls),
(408,0,o),
(432,32,o),
(432,96,cs),
(432,376,l),
(424,384,l),
(368,384,l),
(360,376,l)
);
}
);
width = 512;
},
{
anchors = (
{
name = top;
pos = (396,384);
}
);
layerId = "4FBB1917-F682-4041-B654-F2E0D2EF1242";
shapes = (
{
closed = 1;
nodes = (
(360,112,ls),
(360,88,o),
(352,80,o),
(328,80,cs),
(184,80,ls),
(156,80,o),
(152,92,o),
(152,112,cs),
(152,136,l),
(144,144,l),
(88,144,l),
(80,136,l),
(80,96,ls),
(80,32,o),
(112,0,o),
(176,0,cs),
(336,0,ls),
(408,0,o),
(432,32,o),
(432,96,cs),
(432,376,l),
(424,384,l),
(368,384,l),
(360,376,l)
);
}
);
width = 512;
},
{
anchors = (
{
name = top;
pos = (360,384);
}
);
associatedMasterId = m01;
layerId = "3683DDD8-10D0-4F62-A5C5-93CAA0D5A192";
name = "Jan 16, 23 at 23:04";
shapes = (
{
closed = 1;
nodes = (
(236,0,ls),
(268,0,o),
(292,16,o),
(300,32,c),
(316,32,l),
(324,16,o),
(348,0,o),
(380,0,cs),
(472,0,l),
(480,8,l),
(480,72,l),
(472,80,l),
(376,80,ls),
(352,80,o),
(344,88,o),
(344,112,cs),
(344,376,l),
(336,384,l),
(280,384,l),
(272,376,l),
(272,112,ls),
(272,88,o),
(264,80,o),
(240,80,cs),
(184,80,ls),
(156,80,o),
(152,92,o),
(152,112,cs),
(152,136,l),
(144,144,l),
(88,144,l),
(80,136,l),
(80,96,ls),
(80,32,o),
(112,0,o),
(176,0,cs)
);
}
);
visible = 1;
width = 512;
}
);
unicode = 1583;
},
{
color = 5;
glyphname = "dal-ar.fina";
layers = (
{
anchors = (
{
name = top;
pos = (308,384);
}
);
layerId = m01;
shapes = (
{
closed = 1;
nodes = (
(236,0,ls),
(268,0,o),
(292,16,o),
(300,32,c),
(316,32,l),
(324,16,o),
(348,0,o),
(380,0,cs),
(472,0,l),
(480,8,l),
(480,72,l),
(472,80,l),
(376,80,ls),
(352,80,o),
(344,88,o),
(344,112,cs),
(344,376,l),
(336,384,l),
(280,384,l),
(272,376,l),
(272,112,ls),
(272,88,o),
(264,80,o),
(240,80,cs),
(184,80,ls),
(156,80,o),
(152,92,o),
(152,112,cs),
(152,136,l),
(144,144,l),
(88,144,l),
(80,136,l),
(80,96,ls),
(80,32,o),
(112,0,o),
(176,0,cs)
);
}
);
width = 512;
},
{
anchors = (
{
name = top;
pos = (308,384);
}
);
layerId = "4FBB1917-F682-4041-B654-F2E0D2EF1242";
shapes = (
{
closed = 1;
nodes = (
(236,0,ls),
(268,0,o),
(292,16,o),
(300,32,c),
(316,32,l),
(324,16,o),
(348,0,o),
(380,0,cs),
(472,0,l),
(480,8,l),
(480,72,l),
(472,80,l),
(376,80,ls),
(352,80,o),
(344,88,o),
(344,112,cs),
(344,376,l),
(336,384,l),
(280,384,l),
(272,376,l),
(272,112,ls),
(272,88,o),
(264,80,o),
(240,80,cs),
(184,80,ls),
(156,80,o),
(152,92,o),
(152,112,cs),
(152,136,l),
(144,144,l),
(88,144,l),
(80,136,l),
(80,96,ls),
(80,32,o),
(112,0,o),
(176,0,cs)
);
}
);
width = 512;
},
{
anchors = (
{
name = top;
pos = (257,288);
}
);
associatedMasterId = m01;
layerId = "15E501BC-B713-4983-B8A5-B3B728822FD6";
name = "Nov 6, 22, 13:09";
shapes = (
{
closed = 1;
nodes = (
(480,8,l),
(480,72,l),
(472,80,l),
(316,80,l),
(308,88,l),
(308,192,ls),
(308,256,o),
(292,288,o),
(228,288,cs),
(188,288,l),
(180,280,l),
(180,216,l),
(188,208,l),
(212,208,ls),
(236,208,o),
(236,200,o),
(236,176,cs),
(236,88,l),
(228,80,l),
(72,80,l),
(64,72,l),
(64,8,l),
(72,0,l),
(472,0,l)
);
}
);
width = 512;
}
);
},
{
color = 5;
glyphname = "reh-ar";
layers = (
{
anchors = (
{
name = top;
pos = (340,192);
}
);
layerId = m01;
shapes = (
{
closed = 1;
nodes = (
(248,-208,ls),
(344,-208,o),
(376,-176,o),
(376,-80,cs),
(376,184,l),
(368,192,l),
(312,192,l),
(304,184,l),
(304,-64,ls),
(304,-112,o),
(288,-128,o),
(240,-128,cs),
(88,-128,l),
(80,-136,l),
(80,-200,l),
(88,-208,l)
);
}
);
width = 512;
},
{
anchors = (
{
name = top;
pos = (340,192);
}
);
layerId = "4FBB1917-F682-4041-B654-F2E0D2EF1242";
shapes = (
{
closed = 1;
nodes = (
(248,-256,ls),
(344,-256,o),
(376,-224,o),
(376,-128,cs),
(376,184,l),
(368,192,l),
(312,192,l),
(304,184,l),
(304,-112,ls),
(304,-160,o),
(288,-176,o),
(240,-176,cs),
(48,-176,l),
(40,-184,l),
(40,-248,l),
(48,-256,l)
);
}
);
width = 512;
},
{
anchors = (
{
name = top;
pos = (340,192);
}
);
associatedMasterId = m01;
layerId = "BB4DAABF-2E20-47EE-A090-0D5F180B7810";
name = "Jan 8, 23 at 23:06";
shapes = (
{
closed = 1;
nodes = (
(376,184,l),
(368,192,l),
(312,192,l),
(304,184,l),
(304,-208,ls),
(304,-256,o),
(288,-272,o),
(240,-272,cs),
(144,-272,l),
(136,-280,l),
(136,-344,l),
(144,-352,l),
(248,-352,ls),
(344,-352,o),
(376,-320,o),
(376,-224,cs)
);
}
);
visible = 1;
width = 512;
}
);
unicode = 1585;
},
{
color = 5;
glyphname = "reh-ar.fina";
layers = (
{
anchors = (
{
name = top;
pos = (268,192);
}
);
layerId = m01;
shapes = (
{
closed = 1;
nodes = (
(176,-208,ls),
(272,-208,o),
(304,-176,o),
(304,-80,cs),
(304,-8,l),
(312,0,l),
(472,0,l),
(480,8,l),
(480,71,l),
(472,80,l),
(312,80,l),
(304,88,l),
(304,184,l),
(296,192,l),
(240,192,l),
(232,184,l),
(232,-64,ls),
(232,-112,o),
(216,-128,o),
(168,-128,cs),
(72,-128,l),
(64,-136,l),
(64,-200,l),
(72,-208,l)
);
}
);
width = 512;
},
{
anchors = (
{
name = top;
pos = (196,192);
}
);
layerId = "4FBB1917-F682-4041-B654-F2E0D2EF1242";
shapes = (
{
closed = 1;
nodes = (
(104,-256,ls),
(200,-256,o),
(232,-224,o),
(232,-128,cs),
(232,-8,l),
(240,0,l),
(472,0,l),
(480,8,l),
(480,71,l),
(472,80,l),
(240,80,l),
(232,88,l),
(232,184,l),
(224,192,l),
(168,192,l),
(160,184,l),
(160,-112,ls),
(160,-160,o),
(144,-176,o),
(96,-176,cs),
(8,-176,l),
(0,-184,l),
(0,-248,l),
(8,-256,l)
);
}
);
width = 512;
},
{
anchors = (
{
name = top;
pos = (196,157);
}
);
associatedMasterId = m01;
layerId = "33231CE7-9336-4B69-9672-0423AD56A260";
name = "Nov 8, 22, 19:47";
shapes = (
{
closed = 1;
nodes = (
(21,-208,ls),
(49,-208,o),
(77,-210,o),
(121,-148,cs),
(200,-36,ls),
(226,1,o),
(238,0,o),
(259,0,cs),
(472,0,l),
(480,8,l),
(480,71,l),
(472,80,l),
(240,80,l),
(232,88,l),
(232,149,l),
(224,157,l),
(168,157,l),
(160,149,l),
(160,69,ls),
(160,43,o),
(155,28,o),
(134,0,cs),
(85,-65,ls),
(61,-97,o),
(27,-128,o),
(0,-128,cs),
(-104,-128,l),
(-112,-136,l),
(-112,-200,l),
(-104,-208,l)
);
}
);
visible = 1;
width = 512;
}
);
},
{
color = 5;
glyphname = "seen-ar";
layers = (
{
anchors = (
{
name = bottom;
pos = (313,0);
},
{
name = top;
pos = (315,336);
}
);
layerId = m01;
shapes = (
{
closed = 1;
nodes = (
(136,-129,ls),
(136,-177,o),
(120,-193,o),
(72,-193,cs),
(64,-193,ls),
(16,-193,o),
(0,-177,o),
(0,-129,cs),
(0,-8,l),
(-8,0,l),
(-64,0,l),
(-72,-8,l),
(-72,-145,ls),
(-72,-241,o),
(-40,-273,o),
(56,-273,cs),
(80,-273,ls),
(176,-273,o),
(208,-241,o),
(208,-145,cs),
(208,0,l),
(360,0,ls),
(456,0,o),
(488,32,o),
(488,128,cs),
(488,328,l),
(480,336,l),
(424,336,l),
(416,328,l),
(416,144,ls),
(416,96,o),
(400,80,o),
(352,80,c),
(344,88,l),
(344,328,l),
(336,336,l),
(288,336,l),
(280,328,l),
(280,88,l),
(272,80,l),
(216,80,l),
(208,88,l),
(208,328,l),
(200,336,l),
(144,336,l),
(136,328,l)
);
}
);
width = 512;
},
{
anchors = (
{
name = bottom;
pos = (313,0);
},
{
name = top;
pos = (315,336);
}
);
layerId = "4FBB1917-F682-4041-B654-F2E0D2EF1242";
shapes = (
{
closed = 1;
nodes = (
(136,-129,ls),
(136,-177,o),
(120,-193,o),
(72,-193,cs),
(64,-193,ls),
(16,-193,o),
(0,-177,o),
(0,-129,cs),
(0,-8,l),
(-8,0,l),
(-64,0,l),
(-72,-8,l),
(-72,-145,ls),
(-72,-241,o),
(-40,-273,o),
(56,-273,cs),
(80,-273,ls),
(176,-273,o),
(208,-241,o),
(208,-145,cs),
(208,0,l),
(360,0,ls),
(456,0,o),
(488,32,o),
(488,128,cs),
(488,328,l),
(480,336,l),
(424,336,l),
(416,328,l),
(416,144,ls),
(416,96,o),
(400,80,o),
(352,80,c),
(344,88,l),
(344,328,l),
(336,336,l),
(288,336,l),
(280,328,l),
(280,88,l),
(272,80,l),
(216,80,l),
(208,88,l),
(208,328,l),
(200,336,l),
(144,336,l),
(136,328,l)
);
}
);
width = 512;
}
);
unicode = 1587;
},
{
color = 5;
glyphname = "seen-ar.fina";
layers = (
{
anchors = (
{
name = bottom;
pos = (313,0);
},
{
name = top;
pos = (315,336);
}
);
layerId = m01;
shapes = (
{
closed = 1;
nodes = (
(136,-129,ls),
(136,-177,o),
(120,-193,o),
(72,-193,cs),
(64,-193,ls),
(16,-193,o),
(0,-177,o),
(0,-129,cs),
(0,-8,l),
(-8,0,l),
(-64,0,l),
(-72,-8,l),
(-72,-145,ls),
(-72,-241,o),
(-40,-273,o),
(56,-273,cs),
(80,-273,ls),
(176,-273,o),
(208,-241,o),
(208,-145,cs),
(208,0,l),
(360,0,ls),
(456,0,o),
(488,32,o),
(488,128,cs),
(488,328,l),
(480,336,l),
(424,336,l),
(416,328,l),
(416,144,ls),
(416,96,o),
(400,80,o),
(352,80,c),
(344,88,l),
(344,328,l),
(336,336,l),
(288,336,l),
(280,328,l),
(280,88,l),
(272,80,l),
(216,80,l),
(208,88,l),
(208,328,l),
(200,336,l),
(144,336,l),
(136,328,l)
);
}
);
width = 512;
},
{
anchors = (
{
name = bottom;
pos = (313,0);
},
{
name = top;
pos = (315,336);
}
);
layerId = "4FBB1917-F682-4041-B654-F2E0D2EF1242";
shapes = (
{
closed = 1;
nodes = (
(136,-129,ls),
(136,-177,o),
(120,-193,o),
(72,-193,cs),
(64,-193,ls),
(16,-193,o),
(0,-177,o),
(0,-129,cs),
(0,-8,l),
(-8,0,l),
(-64,0,l),
(-72,-8,l),
(-72,-145,ls),
(-72,-241,o),
(-40,-273,o),
(56,-273,cs),
(80,-273,ls),
(176,-273,o),
(208,-241,o),
(208,-145,cs),
(208,0,l),
(360,0,ls),
(456,0,o),
(488,32,o),
(488,128,cs),
(488,328,l),
(480,336,l),
(424,336,l),
(416,328,l),
(416,144,ls),
(416,96,o),
(400,80,o),
(352,80,c),
(344,88,l),
(344,328,l),
(336,336,l),
(288,336,l),
(280,328,l),
(280,88,l),
(272,80,l),
(216,80,l),
(208,88,l),
(208,328,l),
(200,336,l),
(144,336,l),
(136,328,l)
);
}
);
width = 512;
}
);
},
{
color = 5;
glyphname = "seen-ar.medi";
layers = (
{
anchors = (
{
name = bottom;
pos = (261,0);
},
{
name = top;
pos = (256,384);
}
);
layerId = m01;
shapes = (
{
closed = 1;
nodes = (
(48,0,ls),
(80,0,o),
(96,17,o),
(104,32,c),
(120,32,l),
(128,16,o),
(152,0,o),
(184,0,cs),
(216,0,o),
(240,16,o),
(248,32,c),
(264,32,l),
(272,16,o),
(296,0,o),
(328,0,cs),
(360,0,o),
(384,16,o),
(392,32,c),
(408,32,l),
(415,17,o),
(435,0,o),
(464,0,cs),
(472,0,l),
(480,8,l),
(480,72,l),
(472,80,l),
(464,80,ls),
(440,80,o),
(436,88,o),
(436,112,cs),
(436,376,l),
(428,384,l),
(376,384,l),
(368,376,l),
(368,112,ls),
(368,88,o),
(352,80,o),
(328,80,cs),
(304,80,o),
(288,88,o),
(288,112,cs),
(288,376,l),
(280,384,l),
(232,384,l),
(224,376,l),
(224,112,ls),
(224,88,o),
(208,80,o),
(184,80,cs),
(160,80,o),
(144,88,o),
(144,112,cs),
(144,376,l),
(136,384,l),
(84,384,l),
(76,376,l),
(76,112,ls),
(76,88,o),
(64,80,o),
(48,80,cs),
(40,80,l),
(32,72,l),
(32,8,l),
(40,0,l)
);
}
);
width = 512;
},
{
anchors = (
{
name = bottom;
pos = (256,0);
},
{
name = top;
pos = (256,247);
}
);
layerId = "4FBB1917-F682-4041-B654-F2E0D2EF1242";
shapes = (
{
closed = 1;
nodes = (
(48,0,ls),
(80,0,o),
(96,17,o),
(104,32,c),
(120,32,l),
(128,16,o),
(152,0,o),
(184,0,cs),
(216,0,o),
(240,16,o),
(248,32,c),
(264,32,l),
(272,16,o),
(296,0,o),
(328,0,cs),
(360,0,o),
(384,16,o),
(392,32,c),
(408,32,l),
(415,17,o),
(435,0,o),
(464,0,cs),
(472,0,l),
(480,8,l),
(480,72,l),
(472,80,l),
(464,80,ls),
(440,80,o),
(436,88,o),
(436,112,cs),
(436,376,l),
(428,384,l),
(372,384,l),
(364,376,l),
(364,112,ls),
(364,88,o),
(352,80,o),
(328,80,cs),
(304,80,o),
(292,88,o),
(292,112,cs),
(292,376,l),
(284,384,l),
(228,384,l),
(220,376,l),
(220,112,ls),
(220,88,o),
(208,80,o),
(184,80,cs),
(160,80,o),
(148,88,o),
(148,112,cs),
(148,376,l),
(140,384,l),
(84,384,l),
(76,376,l),
(76,112,ls),
(76,88,o),
(64,80,o),
(48,80,cs),
(40,80,l),
(32,72,l),
(32,8,l),
(40,0,l)
);
}
);
width = 512;
},
{
anchors = (
{
name = bottom;
pos = (261,0);
},
{
name = top;
pos = (256,336);
}
);
associatedMasterId = m01;
layerId = "38139913-84A0-4520-9820-7B4847E6D27A";
name = "Jan 8, 23 at 20:48";
shapes = (
{
closed = 1;
nodes = (
(472,0,l),
(480,8,l),
(480,72,l),
(472,80,l),
(460,80,l),
(452,88,l),
(452,328,l),
(444,336,l),
(388,336,l),
(380,328,l),
(380,88,l),
(372,80,l),
(300,80,l),
(292,88,l),
(292,328,l),
(284,336,l),
(228,336,l),
(220,328,l),
(220,88,l),
(212,80,l),
(140,80,l),
(132,88,l),
(132,328,l),
(124,336,l),
(68,336,l),
(60,328,l),
(60,88,l),
(52,80,l),
(40,80,l),
(32,72,l),
(32,8,l),
(40,0,l)
);
}
);
width = 512;
}
);
},
{
color = 5;
glyphname = "seen-ar.init";
layers = (
{
anchors = (
{
name = bottom;
pos = (256,0);
},
{
name = top;
pos = (256,384);
}
);
layerId = m01;
shapes = (
{
closed = 1;
nodes = (
(48,0,ls),
(80,0,o),
(96,17,o),
(104,32,c),
(120,32,l),
(128,16,o),
(152,0,o),
(184,0,cs),
(216,0,o),
(240,16,o),
(248,32,c),
(264,32,l),
(272,16,o),
(296,0,o),
(328,0,cs),
(408,0,o),
(436,32,o),
(436,112,cs),
(436,376,l),
(428,384,l),
(376,384,l),
(368,376,l),
(368,112,ls),
(368,88,o),
(352,80,o),
(328,80,cs),
(304,80,o),
(288,88,o),
(288,112,cs),
(288,376,l),
(280,384,l),
(232,384,l),
(224,376,l),
(224,112,ls),
(224,88,o),
(208,80,o),
(184,80,cs),
(160,80,o),
(144,88,o),
(144,112,cs),
(144,376,l),
(136,384,l),
(84,384,l),
(76,376,l),
(76,112,ls),
(76,88,o),
(64,80,o),
(48,80,cs),
(40,80,l),
(32,72,l),
(32,8,l),
(40,0,l)
);
}
);
width = 512;
},
{
anchors = (
{
name = bottom;
pos = (256,0);
},
{
name = top;
pos = (256,384);
}
);
layerId = "4FBB1917-F682-4041-B654-F2E0D2EF1242";
shapes = (
{
closed = 1;
nodes = (
(48,0,ls),
(80,0,o),
(96,17,o),
(104,32,c),
(120,32,l),
(128,16,o),
(152,0,o),
(184,0,cs),
(216,0,o),
(240,16,o),
(248,32,c),
(264,32,l),
(272,16,o),
(296,0,o),
(328,0,cs),
(408,0,o),
(436,32,o),
(436,112,cs),
(436,376,l),
(428,384,l),
(376,384,l),
(368,376,l),
(368,112,ls),
(368,88,o),
(352,80,o),
(328,80,cs),
(304,80,o),
(288,88,o),
(288,112,cs),
(288,376,l),
(280,384,l),
(232,384,l),
(224,376,l),
(224,112,ls),
(224,88,o),
(208,80,o),
(184,80,cs),
(160,80,o),
(144,88,o),
(144,112,cs),
(144,376,l),
(136,384,l),
(84,384,l),
(76,376,l),
(76,112,ls),
(76,88,o),
(64,80,o),
(48,80,cs),
(40,80,l),
(32,72,l),
(32,8,l),
(40,0,l)
);
}
);
width = 512;
}
);
},
{
color = 5;
glyphname = "sad-ar";
layers = (
{
anchors = (
{
name = top;
pos = (295,334);
}
);
layerId = m01;
shapes = (
{
closed = 1;
nodes = (
(96,-129,ls),
(96,-177,o),
(96,-193,o),
(48,-193,cs),
(0,-193,o),
(0,-177,o),
(0,-129,cs),
(0,-8,l),
(-8,0,l),
(-64,0,l),
(-72,-8,l),
(-72,-145,ls),
(-72,-241,o),
(-56,-273,o),
(40,-273,cs),
(56,-273,ls),
(152,-273,o),
(168,-241,o),
(168,-145,cs),
(168,0,l),
(360,0,ls),
(456,0,o),
(480,32,o),
(480,128,cs),
(480,176,ls),
(480,280,o),
(456,336,o),
(360,336,cs),
(264,336,o),
(256,280,o),
(256,176,cs),
(256,80,l),
(176,80,l),
(168,88,l),
(168,192,l),
(160,208,l),
(104,208,l),
(96,200,l)
);
},
{
closed = 1;
nodes = (
(312,168,ls),
(312,224,o),
(312,256,o),
(360,256,cs),
(408,256,o),
(408,208,o),
(408,152,cs),
(408,104,o),
(400,80,o),
(352,80,cs),
(312,80,l)
);
}
);
width = 512;
},
{
anchors = (
{
name = top;
pos = (295,334);
}
);
layerId = "4FBB1917-F682-4041-B654-F2E0D2EF1242";
shapes = (
{
closed = 1;
nodes = (
(96,-129,ls),
(96,-177,o),
(96,-193,o),
(48,-193,cs),
(0,-193,o),
(0,-177,o),
(0,-129,cs),
(0,-8,l),
(-8,0,l),
(-64,0,l),
(-72,-8,l),
(-72,-145,ls),
(-72,-241,o),
(-56,-273,o),
(40,-273,cs),
(56,-273,ls),
(152,-273,o),
(168,-241,o),
(168,-145,cs),
(168,0,l),
(360,0,ls),
(456,0,o),
(480,32,o),
(480,128,cs),
(480,176,ls),
(480,280,o),
(456,336,o),
(360,336,cs),
(264,336,o),
(256,280,o),
(256,176,cs),
(256,80,l),
(176,80,l),
(168,88,l),
(168,192,l),
(160,208,l),
(104,208,l),
(96,200,l)
);
},
{
closed = 1;
nodes = (
(312,168,ls),
(312,224,o),
(312,256,o),
(360,256,cs),
(408,256,o),
(408,208,o),
(408,152,cs),
(408,104,o),
(400,80,o),
(352,80,cs),
(312,80,l)
);
}
);
width = 512;
}
);
unicode = 1589;
},
{
color = 5;
glyphname = "sad-ar.fina";
layers = (
{
anchors = (
{
name = top;
pos = (295,334);
}
);
layerId = m01;
shapes = (
{
closed = 1;
nodes = (
(96,-129,ls),
(96,-177,o),
(96,-193,o),
(48,-193,cs),
(0,-193,o),
(0,-177,o),
(0,-129,cs),
(0,-8,l),
(-8,0,l),
(-64,0,l),
(-72,-8,l),
(-72,-145,ls),
(-72,-241,o),
(-56,-273,o),
(40,-273,cs),
(56,-273,ls),
(152,-273,o),
(168,-241,o),
(168,-145,cs),
(168,0,l),
(472,0,l),
(480,8,l),
(480,176,ls),
(480,280,o),
(456,336,o),
(360,336,cs),
(264,336,o),
(256,280,o),
(256,176,cs),
(256,80,l),
(176,80,l),
(168,88,l),
(168,192,l),
(160,208,l),
(104,208,l),
(96,200,l)
);
},
{
closed = 1;
nodes = (
(312,168,ls),
(312,224,o),
(312,256,o),
(360,256,cs),
(408,256,o),
(408,208,o),
(408,152,cs),
(408,88,l),
(400,80,l),
(312,80,l)
);
}
);
width = 512;
},
{
anchors = (
{
name = top;
pos = (295,334);
}
);
layerId = "4FBB1917-F682-4041-B654-F2E0D2EF1242";
shapes = (
{
closed = 1;
nodes = (
(96,-129,ls),
(96,-177,o),
(96,-193,o),
(48,-193,cs),
(0,-193,o),
(0,-177,o),
(0,-129,cs),
(0,-8,l),
(-8,0,l),
(-64,0,l),
(-72,-8,l),
(-72,-145,ls),
(-72,-241,o),
(-56,-273,o),
(40,-273,cs),
(56,-273,ls),
(152,-273,o),
(168,-241,o),
(168,-145,cs),
(168,0,l),
(472,0,l),
(480,8,l),
(480,176,ls),
(480,280,o),
(456,336,o),
(360,336,cs),
(264,336,o),
(256,280,o),
(256,176,cs),
(256,80,l),
(176,80,l),
(168,88,l),
(168,192,l),
(160,208,l),
(104,208,l),
(96,200,l)
);
},
{
closed = 1;
nodes = (
(312,168,ls),
(312,224,o),
(312,256,o),
(360,256,cs),
(408,256,o),
(408,208,o),
(408,152,cs),
(408,88,l),
(400,80,l),
(312,80,l)
);
}
);
width = 512;
}
);
},
{
color = 5;
glyphname = "sad-ar.medi";
layers = (
{
anchors = (
{
name = top;
pos = (320,308);
}
);
layerId = m01;
shapes = (
{
closed = 1;
nodes = (
(152,88,l),
(152,96,l),
(152,112,ls),
(152,188,o),
(245,228,o),
(296,228,cs),
(344,228,o),
(360,212,o),
(360,164,cs),
(360,112,ls),
(360,88,o),
(352,80,o),
(328,80,cs),
(160,80,l)
);
},
{
closed = 1;
nodes = (
(328,0,ls),
(360,0,o),
(380,16,o),
(388,32,c),
(404,32,l),
(412,16,o),
(432,0,o),
(464,0,cs),
(472,0,l),
(480,8,l),
(480,72,l),
(472,80,l),
(464,80,ls),
(440,80,o),
(432,88,o),
(432,112,cs),
(432,180,ls),
(432,276,o),
(400,308,o),
(304,308,cs),
(245,308,o),
(184,277,o),
(152,232,c),
(144,232,l),
(152,264,l),
(152,376,l),
(144,384,l),
(88,384,l),
(80,376,l),
(80,88,l),
(72,80,l),
(40,80,l),
(32,72,l),
(32,8,l),
(40,0,l)
);
}
);
width = 512;
},
{
anchors = (
{
name = top;
pos = (320,308);
}
);
layerId = "4FBB1917-F682-4041-B654-F2E0D2EF1242";
shapes = (
{
closed = 1;
nodes = (
(152,88,l),
(152,96,l),
(152,112,ls),
(152,188,o),
(245,228,o),
(296,228,cs),
(344,228,o),
(360,212,o),
(360,164,cs),
(360,112,ls),
(360,88,o),
(352,80,o),
(328,80,cs),
(160,80,l)
);
},
{
closed = 1;
nodes = (
(328,0,ls),
(360,0,o),
(380,16,o),
(388,32,c),
(404,32,l),
(412,16,o),
(432,0,o),
(464,0,cs),
(472,0,l),
(480,8,l),
(480,72,l),
(472,80,l),
(464,80,ls),
(440,80,o),
(432,88,o),
(432,112,cs),
(432,180,ls),
(432,276,o),
(400,308,o),
(304,308,cs),
(245,308,o),
(184,277,o),
(152,232,c),
(144,232,l),
(152,264,l),
(152,376,l),
(144,384,l),
(88,384,l),
(80,376,l),
(80,88,l),
(72,80,l),
(40,80,l),
(32,72,l),
(32,8,l),
(40,0,l)
);
}
);
width = 512;
}
);
},
{
color = 5;
glyphname = "sad-ar.init";
layers = (
{
anchors = (
{
name = top;
pos = (288,308);
}
);
layerId = m01;
shapes = (
{
closed = 1;
nodes = (
(152,88,l),
(152,96,l),
(152,112,ls),
(152,188,o),
(245,228,o),
(296,228,cs),
(344,228,o),
(360,212,o),
(360,164,cs),
(360,112,ls),
(360,88,o),
(352,80,o),
(328,80,cs),
(160,80,l)
);
},
{
closed = 1;
nodes = (
(336,0,ls),
(408,0,o),
(432,24,o),
(432,96,cs),
(432,180,ls),
(432,276,o),
(400,308,o),
(304,308,cs),
(245,308,o),
(184,277,o),
(152,232,c),
(144,232,l),
(152,264,l),
(152,376,l),
(144,384,l),
(88,384,l),
(80,376,l),
(80,88,l),
(72,80,l),
(40,80,l),
(32,72,l),
(32,8,l),
(40,0,l)
);
}
);
width = 512;
},
{
anchors = (
{
name = top;
pos = (320,308);
}
);
layerId = "4FBB1917-F682-4041-B654-F2E0D2EF1242";
shapes = (
{
closed = 1;
nodes = (
(152,88,l),
(152,96,l),
(152,112,ls),
(152,188,o),
(245,228,o),
(296,228,cs),
(344,228,o),
(360,212,o),
(360,164,cs),
(360,112,ls),
(360,88,o),
(352,80,o),
(328,80,cs),
(160,80,l)
);
},
{
closed = 1;
nodes = (
(336,0,ls),
(408,0,o),
(432,24,o),
(432,96,cs),
(432,180,ls),
(432,276,o),
(400,308,o),
(304,308,cs),
(245,308,o),
(184,277,o),
(152,232,c),
(144,232,l),
(152,264,l),
(152,376,l),
(144,384,l),
(88,384,l),
(80,376,l),
(80,88,l),
(72,80,l),
(40,80,l),
(32,72,l),
(32,8,l),
(40,0,l)
);
}
);
width = 512;
}
);
},
{
color = 5;
glyphname = "tah-ar";
layers = (
{
anchors = (
{
name = top;
pos = (360,336);
}
);
layerId = m01;
shapes = (
{
closed = 1;
nodes = (
(360,0,ls),
(456,0,o),
(480,32,o),
(480,128,cs),
(480,176,ls),
(480,280,o),
(456,336,o),
(360,336,cs),
(264,336,o),
(240,280,o),
(240,176,cs),
(240,80,l),
(160,80,l),
(152,88,l),
(152,696,l),
(144,704,l),
(88,704,l),
(80,696,l),
(80,88,l),
(72,80,l),
(40,80,l),
(32,72,l),
(32,8,l),
(40,0,l)
);
},
{
closed = 1;
nodes = (
(312,168,ls),
(312,224,o),
(312,256,o),
(360,256,cs),
(408,256,o),
(408,208,o),
(408,152,cs),
(408,104,o),
(400,80,o),
(352,80,cs),
(312,80,l)
);
}
);
width = 512;
},
{
anchors = (
{
name = top;
pos = (360,336);
}
);
layerId = "4FBB1917-F682-4041-B654-F2E0D2EF1242";
shapes = (
{
closed = 1;
nodes = (
(360,0,ls),
(456,0,o),
(480,32,o),
(480,128,cs),
(480,176,ls),
(480,280,o),
(456,336,o),
(360,336,cs),
(264,336,o),
(240,280,o),
(240,176,cs),
(240,80,l),
(160,80,l),
(152,88,l),
(152,696,l),
(144,704,l),
(88,704,l),
(80,696,l),
(80,88,l),
(72,80,l),
(40,80,l),
(32,72,l),
(32,8,l),
(40,0,l)
);
},
{
closed = 1;
nodes = (
(312,168,ls),
(312,224,o),
(312,256,o),
(360,256,cs),
(408,256,o),
(408,208,o),
(408,152,cs),
(408,104,o),
(400,80,o),
(352,80,cs),
(312,80,l)
);
}
);
width = 512;
}
);
metricWidth = space;
unicode = 1591;
},
{
color = 5;
glyphname = "tah-ar.fina";
layers = (
{
anchors = (
{
name = top;
pos = (360,336);
}
);
layerId = m01;
shapes = (
{
closed = 1;
nodes = (
(360,0,ls),
(456,0,o),
(480,32,o),
(480,128,cs),
(480,176,ls),
(480,280,o),
(456,336,o),
(360,336,cs),
(264,336,o),
(240,280,o),
(240,176,cs),
(240,80,l),
(160,80,l),
(152,88,l),
(152,696,l),
(144,704,l),
(88,704,l),
(80,696,l),
(80,88,l),
(72,80,l),
(40,80,l),
(32,72,l),
(32,8,l),
(40,0,l)
);
},
{
closed = 1;
nodes = (
(312,168,ls),
(312,224,o),
(312,256,o),
(360,256,cs),
(408,256,o),
(408,208,o),
(408,152,cs),
(408,104,o),
(400,80,o),
(352,80,cs),
(312,80,l)
);
}
);
width = 512;
},
{
anchors = (
{
name = top;
pos = (360,336);
}
);
layerId = "4FBB1917-F682-4041-B654-F2E0D2EF1242";
shapes = (
{
closed = 1;
nodes = (
(360,0,ls),
(456,0,o),
(480,32,o),
(480,128,cs),
(480,176,ls),
(480,280,o),
(456,336,o),
(360,336,cs),
(264,336,o),
(240,280,o),
(240,176,cs),
(240,80,l),
(160,80,l),
(152,88,l),
(152,696,l),
(144,704,l),
(88,704,l),
(80,696,l),
(80,88,l),
(72,80,l),
(40,80,l),
(32,72,l),
(32,8,l),
(40,0,l)
);
},
{
closed = 1;
nodes = (
(312,168,ls),
(312,224,o),
(312,256,o),
(360,256,cs),
(408,256,o),
(408,208,o),
(408,152,cs),
(408,104,o),
(400,80,o),
(352,80,cs),
(312,80,l)
);
}
);
width = 512;
}
);
metricWidth = space;
},
{
color = 5;
glyphname = "tah-ar.medi";
layers = (
{
anchors = (
{
name = top;
pos = (304,308);
}
);
layerId = m01;
shapes = (
{
closed = 1;
nodes = (
(152,88,l),
(152,96,l),
(152,112,ls),
(152,188,o),
(245,228,o),
(296,228,cs),
(344,228,o),
(360,212,o),
(360,164,cs),
(360,112,ls),
(360,88,o),
(352,80,o),
(328,80,cs),
(160,80,l)
);
},
{
closed = 1;
nodes = (
(328,0,ls),
(360,0,o),
(380,16,o),
(388,32,c),
(404,32,l),
(412,16,o),
(432,0,o),
(464,0,cs),
(472,0,l),
(480,8,l),
(480,72,l),
(472,80,l),
(464,80,ls),
(440,80,o),
(432,88,o),
(432,112,cs),
(432,180,ls),
(432,276,o),
(400,308,o),
(304,308,cs),
(245,308,o),
(184,277,o),
(152,232,c),
(144,232,l),
(152,264,l),
(152,728,l),
(144,736,l),
(88,736,l),
(80,728,l),
(80,88,l),
(72,80,l),
(40,80,l),
(32,72,l),
(32,8,l),
(40,0,l)
);
}
);
width = 512;
},
{
anchors = (
{
name = top;
pos = (304,312);
}
);
layerId = "4FBB1917-F682-4041-B654-F2E0D2EF1242";
shapes = (
{
closed = 1;
nodes = (
(152,88,l),
(152,96,l),
(152,112,ls),
(152,176,o),
(221,232,o),
(296,232,cs),
(344,232,o),
(360,216,o),
(360,168,cs),
(360,112,ls),
(360,88,o),
(352,80,o),
(328,80,cs),
(160,80,l)
);
},
{
closed = 1;
nodes = (
(328,0,ls),
(360,0,o),
(380,16,o),
(388,32,c),
(404,32,l),
(412,16,o),
(432,0,o),
(464,0,cs),
(472,0,l),
(480,8,l),
(480,72,l),
(472,80,l),
(464,80,ls),
(440,80,o),
(432,88,o),
(432,112,cs),
(432,184,ls),
(432,280,o),
(400,312,o),
(304,312,cs),
(245,312,o),
(184,273,o),
(152,220,c),
(144,220,l),
(152,268,l),
(152,728,l),
(144,736,l),
(88,736,l),
(80,728,l),
(80,88,l),
(72,80,l),
(40,80,l),
(32,72,l),
(32,8,l),
(40,0,l)
);
}
);
width = 512;
},
{
anchors = (
{
name = top;
pos = (360,336);
}
);
associatedMasterId = m01;
layerId = "6EF4AC9C-CE04-47CF-95E4-668C39EFE0E6";
name = "Jan 8, 23 at 22:35";
shapes = (
{
closed = 1;
nodes = (
(256,0,ls),
(352,0,o),
(376,32,o),
(376,128,cs),
(376,176,ls),
(376,280,o),
(352,336,o),
(256,336,cs),
(160,336,o),
(136,280,o),
(136,176,cs),
(136,80,l),
(40,80,l),
(32,72,l),
(32,8,l),
(40,0,l)
);
},
{
closed = 1;
nodes = (
(208,168,ls),
(208,224,o),
(208,256,o),
(256,256,cs),
(304,256,o),
(304,208,o),
(304,152,cs),
(304,104,o),
(296,80,o),
(248,80,cs),
(208,80,l)
);
}
);
visible = 1;
width = 512;
}
);
metricWidth = space;
},
{
color = 5;
glyphname = "tah-ar.init";
layers = (
{
anchors = (
{
name = top;
pos = (360,336);
}
);
layerId = m01;
shapes = (
{
closed = 1;
nodes = (
(360,0,ls),
(456,0,o),
(480,32,o),
(480,128,cs),
(480,176,ls),
(480,280,o),
(456,336,o),
(360,336,cs),
(264,336,o),
(240,280,o),
(240,176,cs),
(240,80,l),
(160,80,l),
(152,88,l),
(152,696,l),
(144,704,l),
(88,704,l),
(80,696,l),
(80,88,l),
(72,80,l),
(40,80,l),
(32,72,l),
(32,8,l),
(40,0,l)
);
},
{
closed = 1;
nodes = (
(312,168,ls),
(312,224,o),
(312,256,o),
(360,256,cs),
(408,256,o),
(408,208,o),
(408,152,cs),
(408,104,o),
(400,80,o),
(352,80,cs),
(312,80,l)
);
}
);
width = 512;
},
{
anchors = (
{
name = top;
pos = (360,336);
}
);
layerId = "4FBB1917-F682-4041-B654-F2E0D2EF1242";
shapes = (
{
closed = 1;
nodes = (
(360,0,ls),
(456,0,o),
(480,32,o),
(480,128,cs),
(480,176,ls),
(480,280,o),
(456,336,o),
(360,336,cs),
(264,336,o),
(240,280,o),
(240,176,cs),
(240,80,l),
(160,80,l),
(152,88,l),
(152,696,l),
(144,704,l),
(88,704,l),
(80,696,l),
(80,88,l),
(72,80,l),
(40,80,l),
(32,72,l),
(32,8,l),
(40,0,l)
);
},
{
closed = 1;
nodes = (
(312,168,ls),
(312,224,o),
(312,256,o),
(360,256,cs),
(408,256,o),
(408,208,o),
(408,152,cs),
(408,104,o),
(400,80,o),
(352,80,cs),
(312,80,l)
);
}
);
width = 512;
}
);
metricWidth = space;
},
{
color = 5;
glyphname = "ain-ar";
layers = (
{
anchors = (
{
name = top;
pos = (358,336);
}
);
layerId = m01;
shapes = (
{
closed = 1;
nodes = (
(389,-320,l),
(397,-312,l),
(397,-248,l),
(389,-240,l),
(136,-240,ls),
(112,-240,o),
(104,-232,o),
(104,-208,cs),
(104,-32,ls),
(104,-8,o),
(112,0,o),
(136,0,cs),
(472,0,l),
(480,8,l),
(480,72,l),
(472,80,l),
(300,80,l),
(292,88,l),
(292,200,ls),
(292,240,o),
(308,256,o),
(340,256,cs),
(440,256,l),
(448,264,l),
(448,328,l),
(440,336,l),
(324,336,ls),
(244,336,o),
(220,282,o),
(220,208,cs),
(220,88,l),
(212,80,l),
(128,80,ls),
(64,80,o),
(32,48,o),
(32,-16,cs),
(32,-224,ls),
(32,-288,o),
(64,-320,o),
(128,-320,cs)
);
}
);
width = 512;
},
{
anchors = (
{
name = top;
pos = (358,336);
}
);
layerId = "4FBB1917-F682-4041-B654-F2E0D2EF1242";
shapes = (
{
closed = 1;
nodes = (
(389,-320,l),
(397,-312,l),
(397,-248,l),
(389,-240,l),
(136,-240,ls),
(112,-240,o),
(104,-232,o),
(104,-208,cs),
(104,-32,ls),
(104,-8,o),
(112,0,o),
(136,0,cs),
(472,0,l),
(480,8,l),
(480,72,l),
(472,80,l),
(300,80,l),
(292,88,l),
(292,200,ls),
(292,240,o),
(308,256,o),
(340,256,cs),
(440,256,l),
(448,264,l),
(448,328,l),
(440,336,l),
(324,336,ls),
(244,336,o),
(220,282,o),
(220,208,cs),
(220,88,l),
(212,80,l),
(128,80,ls),
(64,80,o),
(32,48,o),
(32,-16,cs),
(32,-224,ls),
(32,-288,o),
(64,-320,o),
(128,-320,cs)
);
}
);
width = 512;
}
);
unicode = 1593;
},
{
color = 5;
glyphname = "ain-ar.fina";
layers = (
{
anchors = (
{
name = top;
pos = (256,336);
}
);
layerId = m01;
shapes = (
{
closed = 1;
nodes = (
(72,-109,o),
(111,-83,o),
(210,18,cs),
(252,61,l),
(260,61,l),
(302,18,ls),
(316,4,o),
(324,0,o),
(344,0,cs),
(472,0,l),
(480,8,l),
(480,72,l),
(472,80,l),
(368,80,ls),
(347,80,o),
(337,80,o),
(324,93,cs),
(308,109,l),
(308,117,l),
(441,252,l),
(445,260,l),
(445,328,l),
(437,336,l),
(75,336,l),
(67,328,l),
(67,260,l),
(71,252,l),
(204,117,l),
(204,109,l),
(188,93,ls),
(35,-60,o),
(0,-96,o),
(0,-176,cs),
(0,-250,o),
(24,-304,o),
(104,-304,cs),
(404,-304,l),
(412,-296,l),
(412,-232,l),
(404,-224,l),
(120,-224,ls),
(88,-224,o),
(72,-208,o),
(72,-168,cs)
);
},
{
closed = 1;
nodes = (
(163,256,l),
(167,264,l),
(345,264,l),
(349,256,l),
(260,166,l),
(252,166,l)
);
}
);
width = 512;
},
{
anchors = (
{
name = top;
pos = (256,336);
}
);
layerId = "4FBB1917-F682-4041-B654-F2E0D2EF1242";
shapes = (
{
closed = 1;
nodes = (
(72,-109,o),
(111,-83,o),
(210,18,cs),
(252,61,l),
(260,61,l),
(302,18,ls),
(316,4,o),
(324,0,o),
(344,0,cs),
(472,0,l),
(480,8,l),
(480,72,l),
(472,80,l),
(368,80,ls),
(347,80,o),
(337,80,o),
(324,93,cs),
(308,109,l),
(308,117,l),
(441,252,l),
(445,260,l),
(445,328,l),
(437,336,l),
(75,336,l),
(67,328,l),
(67,260,l),
(71,252,l),
(204,117,l),
(204,109,l),
(188,93,ls),
(35,-60,o),
(0,-96,o),
(0,-176,cs),
(0,-250,o),
(24,-304,o),
(104,-304,cs),
(404,-304,l),
(412,-296,l),
(412,-232,l),
(404,-224,l),
(120,-224,ls),
(88,-224,o),
(72,-208,o),
(72,-168,cs)
);
},
{
closed = 1;
nodes = (
(163,256,l),
(167,264,l),
(345,264,l),
(349,256,l),
(260,166,l),
(252,166,l)
);
}
);
width = 512;
}
);
},
{
color = 5;
glyphname = "ain-ar.medi";
layers = (
{
anchors = (
{
name = top;
pos = (256,336);
}
);
layerId = m01;
shapes = (
{
closed = 1;
nodes = (
(168,0,ls),
(188,0,o),
(196,4,o),
(210,18,cs),
(252,61,l),
(260,61,l),
(302,18,ls),
(316,4,o),
(324,0,o),
(344,0,cs),
(472,0,l),
(480,8,l),
(480,72,l),
(472,80,l),
(368,80,ls),
(347,80,o),
(337,80,o),
(324,93,cs),
(308,109,l),
(308,117,l),
(401,212,ls),
(428,239,o),
(433,256,o),
(433,272,cs),
(433,312,o),
(409,336,o),
(369,336,cs),
(143,336,ls),
(103,336,o),
(79,312,o),
(79,272,cs),
(79,256,o),
(84,239,o),
(111,212,cs),
(204,117,l),
(204,109,l),
(188,93,ls),
(175,80,o),
(166,80,o),
(147,80,cs),
(40,80,l),
(32,72,l),
(32,8,l),
(40,0,l)
);
},
{
closed = 1;
nodes = (
(178,256,o),
(182,264,o),
(194,264,cs),
(318,264,ls),
(330,264,o),
(334,256,o),
(334,248,cs),
(334,242,o),
(331,238,o),
(325,232,cs),
(260,166,l),
(252,166,l),
(187,232,ls),
(181,238,o),
(178,242,o),
(178,248,cs)
);
}
);
width = 512;
},
{
anchors = (
{
name = top;
pos = (256,336);
}
);
associatedMasterId = m01;
layerId = "D6611813-F927-4594-AA07-5EBD788CBA88";
name = "Jan 8, 23 at 23:08";
shapes = (
{
closed = 1;
nodes = (
(168,0,ls),
(188,0,o),
(196,4,o),
(210,18,cs),
(252,61,l),
(260,61,l),
(302,18,ls),
(316,4,o),
(324,0,o),
(344,0,cs),
(472,0,l),
(480,8,l),
(480,72,l),
(472,80,l),
(368,80,ls),
(347,80,o),
(337,80,o),
(324,93,cs),
(308,109,l),
(308,117,l),
(441,252,l),
(445,260,l),
(445,328,l),
(437,336,l),
(75,336,l),
(67,328,l),
(67,260,l),
(71,252,l),
(204,117,l),
(204,109,l),
(188,93,ls),
(175,80,o),
(166,80,o),
(147,80,cs),
(40,80,l),
(32,72,l),
(32,8,l),
(40,0,l)
);
},
{
closed = 1;
nodes = (
(163,256,l),
(167,264,l),
(345,264,l),
(349,256,l),
(260,166,l),
(252,166,l)
);
}
);
width = 512;
},
{
associatedMasterId = m01;
layerId = "0BFC3F62-97CE-494D-A81A-2FD6976635E6";
name = "Oct 30, 22, 13:31";
shapes = (
{
closed = 1;
nodes = (
(320,0,l),
(416,0,l),
(99,320,l),
(3,320,l)
);
},
{
closed = 1;
nodes = (
(96,0,l),
(192,0,l),
(509,320,l),
(413,320,l)
);
},
{
closed = 1;
nodes = (
(14,220,l),
(128,106,l),
(140,118,l),
(26,232,l)
);
}
);
width = 512;
},
{
anchors = (
{
name = top;
pos = (256,336);
}
);
layerId = "4FBB1917-F682-4041-B654-F2E0D2EF1242";
shapes = (
{
closed = 1;
nodes = (
(168,0,ls),
(188,0,o),
(196,4,o),
(210,18,cs),
(252,61,l),
(260,61,l),
(302,18,ls),
(316,4,o),
(324,0,o),
(344,0,cs),
(472,0,l),
(480,8,l),
(480,72,l),
(472,80,l),
(368,80,ls),
(347,80,o),
(337,80,o),
(324,93,cs),
(308,109,l),
(308,117,l),
(401,212,ls),
(428,239,o),
(433,256,o),
(433,272,cs),
(433,312,o),
(409,336,o),
(369,336,cs),
(143,336,ls),
(103,336,o),
(79,312,o),
(79,272,cs),
(79,256,o),
(84,239,o),
(111,212,cs),
(204,117,l),
(204,109,l),
(188,93,ls),
(175,80,o),
(166,80,o),
(147,80,cs),
(40,80,l),
(32,72,l),
(32,8,l),
(40,0,l)
);
},
{
closed = 1;
nodes = (
(178,256,o),
(182,264,o),
(194,264,cs),
(318,264,ls),
(330,264,o),
(334,256,o),
(334,248,cs),
(334,242,o),
(331,238,o),
(325,232,cs),
(260,166,l),
(252,166,l),
(187,232,ls),
(181,238,o),
(178,242,o),
(178,248,cs)
);
}
);
width = 512;
},
{
anchors = (
{
name = top;
pos = (256,336);
}
);
associatedMasterId = m01;
layerId = "7FA983AF-14BE-4EBE-A030-CFD89D110F71";
name = "Jan 17, 23 at 22:15";
shapes = (
{
closed = 1;
nodes = (
(168,0,ls),
(188,0,o),
(196,4,o),
(210,18,cs),
(252,61,l),
(260,61,l),
(302,18,ls),
(316,4,o),
(324,0,o),
(344,0,cs),
(472,0,l),
(480,8,l),
(480,72,l),
(472,80,l),
(368,80,ls),
(347,80,o),
(337,80,o),
(324,93,cs),
(308,109,l),
(308,117,l),
(373,183,ls),
(432,243,o),
(445,260,o),
(445,287,cs),
(445,328,o),
(421,336,o),
(381,336,cs),
(123,336,ls),
(78,336,o),
(67,320,o),
(67,287,cs),
(67,262,o),
(81,242,o),
(111,212,cs),
(204,117,l),
(204,109,l),
(188,93,ls),
(175,80,o),
(166,80,o),
(147,80,cs),
(40,80,l),
(32,72,l),
(32,8,l),
(40,0,l)
);
},
{
closed = 1;
nodes = (
(187,232,ls),
(180,239,o),
(171,246,o),
(171,256,cs),
(171,259,o),
(172,264,o),
(191,264,cs),
(318,264,ls),
(334,264,o),
(338,260,o),
(338,256,cs),
(338,250,o),
(336,243,o),
(325,232,cs),
(260,166,l),
(252,166,l)
);
}
);
visible = 1;
width = 512;
}
);
},
{
color = 5;
glyphname = "ain-ar.init";
layers = (
{
anchors = (
{
name = top;
pos = (334,384);
}
);
layerId = m01;
shapes = (
{
closed = 1;
nodes = (
(472,0,l),
(480,8,l),
(480,72,l),
(472,80,l),
(276,80,l),
(268,88,l),
(268,240,ls),
(268,288,o),
(284,304,o),
(332,304,cs),
(440,304,l),
(448,312,l),
(448,376,l),
(440,384,l),
(324,384,ls),
(228,384,o),
(196,346,o),
(196,256,cs),
(196,88,l),
(188,80,l),
(40,80,l),
(32,72,l),
(32,8,l),
(40,0,l)
);
}
);
width = 512;
},
{
anchors = (
{
name = top;
pos = (334,336);
}
);
layerId = "4FBB1917-F682-4041-B654-F2E0D2EF1242";
shapes = (
{
closed = 1;
nodes = (
(472,0,l),
(480,8,l),
(480,72,l),
(472,80,l),
(276,80,l),
(268,88,l),
(268,200,ls),
(268,240,o),
(284,256,o),
(316,256,cs),
(440,256,l),
(448,264,l),
(448,328,l),
(440,336,l),
(300,336,ls),
(220,336,o),
(196,282,o),
(196,208,cs),
(196,88,l),
(188,80,l),
(40,80,l),
(32,72,l),
(32,8,l),
(40,0,l)
);
}
);
width = 512;
}
);
},
{
color = 5;
glyphname = "fehDotless-ar";
layers = (
{
anchors = (
{
name = top;
pos = (352,416);
}
);
layerId = m01;
shapes = (
{
closed = 1;
nodes = (
(408,0,ls),
(456,0,o),
(480,24,o),
(480,72,cs),
(480,344,ls),
(480,392,o),
(456,416,o),
(408,416,cs),
(296,416,ls),
(248,416,o),
(224,392,o),
(224,344,cs),
(224,232,ls),
(224,184,o),
(248,160,o),
(296,160,cs),
(400,160,l),
(408,152,l),
(408,104,ls),
(408,88,o),
(400,80,o),
(384,80,cs),
(168,80,ls),
(120,80,o),
(104,96,o),
(104,144,cs),
(104,200,l),
(96,208,l),
(40,208,l),
(32,200,l),
(32,128,ls),
(32,32,o),
(64,0,o),
(160,0,cs)
);
},
{
closed = 1;
nodes = (
(296,312,ls),
(296,328,o),
(304,336,o),
(320,336,cs),
(384,336,ls),
(400,336,o),
(408,328,o),
(408,312,cs),
(408,232,l),
(400,224,l),
(320,224,ls),
(304,224,o),
(296,232,o),
(296,248,cs)
);
}
);
width = 512;
},
{
anchors = (
{
name = top;
pos = (352,416);
}
);
layerId = "4FBB1917-F682-4041-B654-F2E0D2EF1242";
shapes = (
{
closed = 1;
nodes = (
(408,0,ls),
(456,0,o),
(480,24,o),
(480,72,cs),
(480,344,ls),
(480,392,o),
(456,416,o),
(408,416,cs),
(296,416,ls),
(248,416,o),
(224,392,o),
(224,344,cs),
(224,232,ls),
(224,184,o),
(248,160,o),
(296,160,cs),
(400,160,l),
(408,152,l),
(408,104,ls),
(408,88,o),
(400,80,o),
(384,80,cs),
(168,80,ls),
(120,80,o),
(104,96,o),
(104,144,cs),
(104,200,l),
(96,208,l),
(40,208,l),
(32,200,l),
(32,128,ls),
(32,32,o),
(64,0,o),
(160,0,cs)
);
},
{
closed = 1;
nodes = (
(296,312,ls),
(296,328,o),
(304,336,o),
(320,336,cs),
(384,336,ls),
(400,336,o),
(408,328,o),
(408,312,cs),
(408,232,l),
(400,224,l),
(320,224,ls),
(304,224,o),
(296,232,o),
(296,248,cs)
);
}
);
width = 512;
}
);
unicode = 1697;
},
{
color = 5;
glyphname = "fehDotless-ar.fina";
layers = (
{
anchors = (
{
name = top;
pos = (352,416);
}
);
layerId = m01;
shapes = (
{
closed = 1;
nodes = (
(408,0,ls),
(456,0,o),
(480,24,o),
(480,72,cs),
(480,344,ls),
(480,392,o),
(456,416,o),
(408,416,cs),
(296,416,ls),
(248,416,o),
(224,392,o),
(224,344,cs),
(224,232,ls),
(224,184,o),
(248,160,o),
(296,160,cs),
(400,160,l),
(408,152,l),
(408,104,ls),
(408,88,o),
(400,80,o),
(384,80,cs),
(168,80,ls),
(120,80,o),
(104,96,o),
(104,144,cs),
(104,200,l),
(96,208,l),
(40,208,l),
(32,200,l),
(32,128,ls),
(32,32,o),
(64,0,o),
(160,0,cs)
);
},
{
closed = 1;
nodes = (
(296,312,ls),
(296,328,o),
(304,336,o),
(320,336,cs),
(384,336,ls),
(400,336,o),
(408,328,o),
(408,312,cs),
(408,232,l),
(400,224,l),
(320,224,ls),
(304,224,o),
(296,232,o),
(296,248,cs)
);
}
);
width = 512;
},
{
anchors = (
{
name = top;
pos = (352,416);
}
);
layerId = "4FBB1917-F682-4041-B654-F2E0D2EF1242";
shapes = (
{
closed = 1;
nodes = (
(408,0,ls),
(456,0,o),
(480,24,o),
(480,72,cs),
(480,344,ls),
(480,392,o),
(456,416,o),
(408,416,cs),
(296,416,ls),
(248,416,o),
(224,392,o),
(224,344,cs),
(224,232,ls),
(224,184,o),
(248,160,o),
(296,160,cs),
(400,160,l),
(408,152,l),
(408,104,ls),
(408,88,o),
(400,80,o),
(384,80,cs),
(168,80,ls),
(120,80,o),
(104,96,o),
(104,144,cs),
(104,200,l),
(96,208,l),
(40,208,l),
(32,200,l),
(32,128,ls),
(32,32,o),
(64,0,o),
(160,0,cs)
);
},
{
closed = 1;
nodes = (
(296,312,ls),
(296,328,o),
(304,336,o),
(320,336,cs),
(384,336,ls),
(400,336,o),
(408,328,o),
(408,312,cs),
(408,232,l),
(400,224,l),
(320,224,ls),
(304,224,o),
(296,232,o),
(296,248,cs)
);
}
);
width = 512;
}
);
},
{
color = 5;
glyphname = "fehDotless-ar.medi";
layers = (
{
anchors = (
{
name = top;
pos = (256,384);
}
);
layerId = m01;
shapes = (
{
closed = 1;
nodes = (
(184,0,l),
(216,0,o),
(240,16,o),
(248,32,c),
(264,32,l),
(272,16,o),
(296,0,o),
(328,0,c),
(472,0,l),
(480,8,l),
(480,71,l),
(472,80,l),
(376,80,l),
(376,88,l),
(384,96,o),
(400,112,o),
(400,144,cs),
(400,256,ls),
(400,336,o),
(352,384,o),
(272,384,cs),
(240,384,ls),
(160,384,o),
(112,336,o),
(112,256,cs),
(112,144,ls),
(112,112,o),
(128,96,o),
(136,88,c),
(136,80,l),
(40,80,l),
(32,72,l),
(32,8,l),
(40,0,l)
);
},
{
closed = 1;
nodes = (
(200,80,o),
(184,112,o),
(184,176,cs),
(184,240,ls),
(184,288,o),
(200,304,o),
(248,304,cs),
(264,304,ls),
(312,304,o),
(328,288,o),
(328,240,cs),
(328,176,ls),
(328,112,o),
(312,80,o),
(264,80,cs),
(248,80,ls)
);
}
);
width = 512;
},
{
anchors = (
{
name = top;
pos = (256,336);
}
);
layerId = "4FBB1917-F682-4041-B654-F2E0D2EF1242";
shapes = (
{
closed = 1;
nodes = (
(184,0,l),
(216,0,o),
(240,16,o),
(248,32,c),
(264,32,l),
(272,16,o),
(296,0,o),
(328,0,c),
(472,0,l),
(480,8,l),
(480,71,l),
(472,80,l),
(368,80,l),
(368,88,l),
(384,96,o),
(400,112,o),
(400,144,cs),
(400,208,ls),
(400,288,o),
(352,336,o),
(272,336,cs),
(240,336,ls),
(160,336,o),
(112,288,o),
(112,208,cs),
(112,144,ls),
(112,112,o),
(128,96,o),
(144,88,c),
(144,80,l),
(40,80,l),
(32,72,l),
(32,8,l),
(40,0,l)
);
},
{
closed = 1;
nodes = (
(192,80,o),
(184,88,o),
(184,112,cs),
(184,200,ls),
(184,240,o),
(200,256,o),
(240,256,cs),
(272,256,ls),
(312,256,o),
(328,240,o),
(328,200,cs),
(328,112,ls),
(328,88,o),
(320,80,o),
(296,80,cs),
(216,80,ls)
);
}
);
width = 512;
},
{
anchors = (
{
name = top;
pos = (256,336);
}
);
associatedMasterId = m01;
layerId = "1FF031B6-A9C6-4B9C-B847-46CD6F04746D";
name = "Jan 9, 23 at 22:25";
shapes = (
{
closed = 1;
nodes = (
(472,0,l),
(480,8,l),
(480,72,l),
(472,80,l),
(408,80,l),
(400,88,l),
(400,240,ls),
(400,304,o),
(368,336,o),
(304,336,cs),
(208,336,ls),
(144,336,o),
(112,304,o),
(112,240,cs),
(112,88,l),
(104,80,l),
(40,80,l),
(32,72,l),
(32,8,l),
(40,0,l)
);
},
{
closed = 1;
nodes = (
(184,88,l),
(184,224,ls),
(184,248,o),
(192,256,o),
(216,256,cs),
(296,256,ls),
(320,256,o),
(328,248,o),
(328,224,cs),
(328,88,l),
(320,80,l),
(192,80,l)
);
}
);
visible = 1;
width = 512;
}
);
},
{
color = 5;
glyphname = "fehDotless-ar.init";
layers = (
{
anchors = (
{
name = top;
pos = (296,400);
}
);
layerId = m01;
shapes = (
{
closed = 1;
nodes = (
(336,0,ls),
(408,0,o),
(432,32,o),
(432,96,cs),
(432,256,ls),
(432,336,o),
(384,384,o),
(304,384,cs),
(288,384,ls),
(208,384,o),
(160,336,o),
(160,256,cs),
(160,232,ls),
(160,160,o),
(184,136,o),
(256,136,cs),
(352,136,l),
(360,128,l),
(360,112,ls),
(360,88,o),
(352,80,o),
(328,80,cs),
(40,80,l),
(32,72,l),
(32,8,l),
(40,0,l)
);
},
{
closed = 1;
nodes = (
(240,208,o),
(232,216,o),
(232,240,cs),
(232,248,ls),
(232,288,o),
(248,304,o),
(288,304,cs),
(304,304,ls),
(344,304,o),
(360,288,o),
(360,248,cs),
(360,216,l),
(352,208,l),
(264,208,ls)
);
}
);
width = 512;
},
{
anchors = (
{
name = top;
pos = (352,416);
}
);
associatedMasterId = m01;
layerId = "E08346D9-5606-4C37-8DD9-B8D12B320B09";
name = "Jan 7, 23 at 21:09";
shapes = (
{
closed = 1;
nodes = (
(408,0,ls),
(456,0,o),
(480,24,o),
(480,72,cs),
(480,344,ls),
(480,392,o),
(456,416,o),
(408,416,cs),
(296,416,ls),
(248,416,o),
(224,392,o),
(224,344,cs),
(224,232,ls),
(224,184,o),
(248,160,o),
(296,160,cs),
(400,160,l),
(408,152,l),
(408,104,ls),
(408,88,o),
(400,80,o),
(384,80,cs),
(40,80,l),
(32,72,l),
(32,8,l),
(40,0,l)
);
},
{
closed = 1;
nodes = (
(304,224,o),
(296,232,o),
(296,248,cs),
(296,312,ls),
(296,328,o),
(304,336,o),
(320,336,cs),
(384,336,ls),
(400,336,o),
(408,328,o),
(408,312,cs),
(408,232,l),
(400,224,l),
(320,224,ls)
);
}
);
width = 512;
},
{
anchors = (
{
name = top;
pos = (344,416);
}
);
associatedMasterId = m01;
layerId = "2D7EFE3E-FCC3-4E42-AD34-5678298D2ABF";
name = "Nov 8, 22, 20:28";
shapes = (
{
closed = 1;
nodes = (
(352,0,ls),
(448,0,o),
(480,32,o),
(480,128,cs),
(480,320,ls),
(480,384,o),
(448,416,o),
(384,416,cs),
(304,416,ls),
(240,416,o),
(208,384,o),
(208,320,cs),
(208,272,ls),
(208,200,o),
(232,176,o),
(304,176,cs),
(400,176,l),
(408,168,l),
(408,144,ls),
(408,96,o),
(392,80,o),
(344,80,cs),
(40,80,l),
(32,72,l),
(32,8,l),
(40,0,l)
);
},
{
closed = 1;
nodes = (
(288,240,o),
(280,248,o),
(280,272,cs),
(280,304,ls),
(280,328,o),
(288,336,o),
(312,336,cs),
(376,336,ls),
(400,336,o),
(408,328,o),
(408,304,cs),
(408,248,l),
(400,240,l),
(312,240,ls)
);
}
);
width = 512;
},
{
anchors = (
{
name = top;
pos = (256,512);
}
);
layerId = "4FBB1917-F682-4041-B654-F2E0D2EF1242";
shapes = (
{
closed = 1;
nodes = (
(368,0,ls),
(440,0,o),
(464,32,o),
(464,96,cs),
(464,352,ls),
(464,456,o),
(408,512,o),
(304,512,cs),
(208,512,ls),
(104,512,o),
(48,456,o),
(48,352,cs),
(48,304,ls),
(48,232,o),
(72,208,o),
(144,208,cs),
(296,208,l),
(304,200,l),
(304,176,ls),
(304,164,o),
(300,160,o),
(288,160,cs),
(40,160,l),
(32,152,l),
(32,8,l),
(40,0,l)
);
},
{
closed = 1;
nodes = (
(208,264,o),
(200,272,o),
(200,296,cs),
(200,304,ls),
(200,336,o),
(208,352,o),
(248,352,cs),
(256,352,ls),
(296,352,o),
(304,336,o),
(304,304,cs),
(304,272,l),
(296,264,l),
(232,264,ls)
);
}
);
width = 512;
}
);
},
{
color = 5;
glyphname = "qafDotless-ar";
layers = (
{
anchors = (
{
name = top;
pos = (352,272);
}
);
layerId = m01;
shapes = (
{
closed = 1;
nodes = (
(408,-208,ls),
(456,-208,o),
(480,-184,o),
(480,-136,cs),
(480,200,ls),
(480,248,o),
(456,272,o),
(408,272,cs),
(296,272,ls),
(248,272,o),
(224,248,o),
(224,200,cs),
(224,72,ls),
(224,24,o),
(248,0,o),
(296,0,cs),
(400,0,l),
(408,-8,l),
(408,-104,ls),
(408,-120,o),
(400,-128,o),
(384,-128,cs),
(168,-128,ls),
(120,-128,o),
(104,-112,o),
(104,-64,cs),
(104,-8,l),
(96,0,l),
(40,0,l),
(32,-8,l),
(32,-80,ls),
(32,-176,o),
(64,-208,o),
(160,-208,cs)
);
},
{
closed = 1;
nodes = (
(296,168,ls),
(296,184,o),
(304,192,o),
(320,192,cs),
(384,192,ls),
(400,192,o),
(408,184,o),
(408,168,cs),
(408,88,l),
(400,80,l),
(320,80,ls),
(304,80,o),
(296,88,o),
(296,104,cs)
);
}
);
width = 512;
},
{
anchors = (
{
name = top;
pos = (352,272);
}
);
layerId = "4FBB1917-F682-4041-B654-F2E0D2EF1242";
shapes = (
{
closed = 1;
nodes = (
(408,-208,ls),
(456,-208,o),
(480,-184,o),
(480,-136,cs),
(480,200,ls),
(480,248,o),
(456,272,o),
(408,272,cs),
(296,272,ls),
(248,272,o),
(224,248,o),
(224,200,cs),
(224,72,ls),
(224,24,o),
(248,0,o),
(296,0,cs),
(400,0,l),
(408,-8,l),
(408,-104,ls),
(408,-120,o),
(400,-128,o),
(384,-128,cs),
(168,-128,ls),
(120,-128,o),
(104,-112,o),
(104,-64,cs),
(104,-8,l),
(96,0,l),
(40,0,l),
(32,-8,l),
(32,-80,ls),
(32,-176,o),
(64,-208,o),
(160,-208,cs)
);
},
{
closed = 1;
nodes = (
(296,168,ls),
(296,184,o),
(304,192,o),
(320,192,cs),
(384,192,ls),
(400,192,o),
(408,184,o),
(408,168,cs),
(408,88,l),
(400,80,l),
(320,80,ls),
(304,80,o),
(296,88,o),
(296,104,cs)
);
}
);
width = 512;
}
);
unicode = 1647;
},
{
color = 5;
glyphname = "qafDotless-ar.fina";
layers = (
{
anchors = (
{
name = top;
pos = (352,272);
}
);
layerId = m01;
shapes = (
{
closed = 1;
nodes = (
(408,-208,ls),
(456,-208,o),
(480,-184,o),
(480,-136,cs),
(480,200,ls),
(480,248,o),
(456,272,o),
(408,272,cs),
(296,272,ls),
(248,272,o),
(224,248,o),
(224,200,cs),
(224,72,ls),
(224,24,o),
(248,0,o),
(296,0,cs),
(400,0,l),
(408,-8,l),
(408,-104,ls),
(408,-120,o),
(400,-128,o),
(384,-128,cs),
(168,-128,ls),
(120,-128,o),
(104,-112,o),
(104,-64,cs),
(104,-8,l),
(96,0,l),
(40,0,l),
(32,-8,l),
(32,-80,ls),
(32,-176,o),
(64,-208,o),
(160,-208,cs)
);
},
{
closed = 1;
nodes = (
(296,168,ls),
(296,184,o),
(304,192,o),
(320,192,cs),
(384,192,ls),
(400,192,o),
(408,184,o),
(408,168,cs),
(408,88,l),
(400,80,l),
(320,80,ls),
(304,80,o),
(296,88,o),
(296,104,cs)
);
}
);
width = 512;
},
{
anchors = (
{
name = top;
pos = (352,272);
}
);
layerId = "4FBB1917-F682-4041-B654-F2E0D2EF1242";
shapes = (
{
closed = 1;
nodes = (
(408,-208,ls),
(456,-208,o),
(480,-184,o),
(480,-136,cs),
(480,200,ls),
(480,248,o),
(456,272,o),
(408,272,cs),
(296,272,ls),
(248,272,o),
(224,248,o),
(224,200,cs),
(224,72,ls),
(224,24,o),
(248,0,o),
(296,0,cs),
(400,0,l),
(408,-8,l),
(408,-104,ls),
(408,-120,o),
(400,-128,o),
(384,-128,cs),
(168,-128,ls),
(120,-128,o),
(104,-112,o),
(104,-64,cs),
(104,-8,l),
(96,0,l),
(40,0,l),
(32,-8,l),
(32,-80,ls),
(32,-176,o),
(64,-208,o),
(160,-208,cs)
);
},
{
closed = 1;
nodes = (
(296,168,ls),
(296,184,o),
(304,192,o),
(320,192,cs),
(384,192,ls),
(400,192,o),
(408,184,o),
(408,168,cs),
(408,88,l),
(400,80,l),
(320,80,ls),
(304,80,o),
(296,88,o),
(296,104,cs)
);
}
);
width = 512;
}
);
},
{
color = 5;
glyphname = "kaf-ar";
layers = (
{
layerId = m01;
shapes = (
{
closed = 1;
nodes = (
(472,0,l),
(480,8,l),
(480,696,l),
(472,704,l),
(416,704,l),
(408,696,l),
(408,88,l),
(400,80,l),
(168,80,ls),
(120,80,o),
(104,96,o),
(104,144,cs),
(104,248,l),
(96,256,l),
(40,256,l),
(32,248,l),
(32,128,ls),
(32,32,o),
(64,0,o),
(160,0,cs)
);
},
{
closed = 1;
nodes = (
(312,152,l),
(320,160,l),
(320,200,l),
(312,208,l),
(274,208,l),
(266,216,l),
(266,232,ls),
(266,248,o),
(274,256,o),
(290,256,cs),
(306,256,l),
(314,264,l),
(314,304,l),
(306,312,l),
(286,312,ls),
(238,312,o),
(222,296,o),
(222,248,cs),
(222,216,l),
(214,208,l),
(200,208,l),
(192,200,l),
(192,160,l),
(200,152,l)
);
}
);
width = 512;
},
{
layerId = "4FBB1917-F682-4041-B654-F2E0D2EF1242";
shapes = (
{
closed = 1;
nodes = (
(456,0,l),
(464,8,l),
(464,592,l),
(456,600,l),
(400,600,l),
(392,592,l),
(392,88,l),
(384,80,l),
(128,80,ls),
(96,80,o),
(88,88,o),
(88,120,cs),
(88,160,l),
(80,168,l),
(24,168,l),
(16,160,l),
(16,96,ls),
(16,40,o),
(32,0,o),
(96,0,c)
);
},
{
closed = 1;
nodes = (
(314,153,l),
(322,161,l),
(322,192,l),
(314,200,l),
(260,200,l),
(252,208,l),
(252,224,ls),
(252,233,o),
(257,238,o),
(267,238,cs),
(294,238,l),
(302,246,l),
(302,280,l),
(294,288,l),
(257,288,ls),
(218,288,o),
(208,267,o),
(208,232,cs),
(208,208,l),
(200,200,l),
(186,200,l),
(178,192,l),
(178,161,l),
(186,153,l)
);
}
);
width = 512;
}
);
unicode = 1603;
},
{
color = 5;
glyphname = "kaf-ar.fina";
layers = (
{
layerId = m01;
shapes = (
{
closed = 1;
nodes = (
(324,0,ls),
(356,0,o),
(380,16,o),
(388,32,c),
(404,32,l),
(411,19,o),
(432,0,o),
(456,0,cs),
(472,0,l),
(480,8,l),
(480,72,l),
(472,80,l),
(464,80,ls),
(440,80,o),
(432,90,o),
(432,112,cs),
(432,728,l),
(424,736,l),
(368,736,l),
(360,728,l),
(360,112,ls),
(360,88,o),
(352,80,o),
(328,80,cs),
(200,80,ls),
(128,80,o),
(104,104,o),
(104,176,cs),
(104,248,l),
(96,256,l),
(40,256,l),
(32,248,l),
(32,168,ls),
(32,40,o),
(72,0,o),
(200,0,cs)
);
},
{
closed = 1;
nodes = (
(288,152,l),
(296,160,l),
(296,200,l),
(288,208,l),
(266,208,l),
(258,216,l),
(258,232,ls),
(258,248,o),
(266,256,o),
(282,256,cs),
(288,256,l),
(296,264,l),
(296,304,l),
(288,312,l),
(278,312,ls),
(230,312,o),
(214,296,o),
(214,248,cs),
(214,216,l),
(206,208,l),
(192,208,l),
(184,200,l),
(184,160,l),
(192,152,l)
);
}
);
width = 512;
},
{
associatedMasterId = m01;
layerId = "7CA067BC-CA70-4D7D-97B4-F915B4BC85AF";
name = "Jan 8, 23 at 18:22";
shapes = (
{
closed = 1;
nodes = (
(340,0,ls),
(372,0,o),
(396,16,o),
(404,32,c),
(420,32,l),
(427,19,o),
(440,0,o),
(464,0,cs),
(472,0,l),
(480,8,l),
(480,72,l),
(472,80,l),
(456,80,o),
(448,84,o),
(448,104,cs),
(448,728,l),
(440,736,l),
(384,736,l),
(376,728,l),
(376,112,ls),
(376,88,o),
(372,80,o),
(344,80,cs),
(168,80,ls),
(120,80,o),
(104,96,o),
(104,144,cs),
(104,248,l),
(96,256,l),
(40,256,l),
(32,248,l),
(32,128,ls),
(32,32,o),
(64,0,o),
(160,0,cs)
);
},
{
closed = 1;
nodes = (
(296,152,l),
(304,160,l),
(304,200,l),
(296,208,l),
(258,208,l),
(250,216,l),
(250,232,ls),
(250,248,o),
(258,256,o),
(274,256,cs),
(290,256,l),
(298,264,l),
(298,304,l),
(290,312,l),
(270,312,ls),
(222,312,o),
(206,296,o),
(206,248,cs),
(206,216,l),
(198,208,l),
(184,208,l),
(176,200,l),
(176,160,l),
(184,152,l)
);
}
);
visible = 1;
width = 512;
},
{
associatedMasterId = m01;
layerId = "4AD3AAF0-2149-499C-874A-8D0B7B1163B8";
name = "Nov 7, 22, 22:25";
shapes = (
{
closed = 1;
nodes = (
(472,0,l),
(480,8,l),
(480,72,l),
(472,80,l),
(456,80,l),
(448,88,l),
(448,696,l),
(440,704,l),
(384,704,l),
(376,696,l),
(376,88,l),
(368,80,l),
(168,80,ls),
(120,80,o),
(104,96,o),
(104,144,cs),
(104,328,l),
(96,336,l),
(40,336,l),
(32,328,l),
(32,128,ls),
(32,32,o),
(64,0,o),
(160,0,cs)
);
},
{
closed = 1;
nodes = (
(260,160,ls),
(284,160,o),
(296,172,o),
(296,196,cs),
(296,228,ls),
(296,252,o),
(284,264,o),
(260,264,cs),
(248,264,ls),
(240,264,o),
(236,268,o),
(236,276,cs),
(236,284,o),
(240,288,o),
(248,288,cs),
(260,288,l),
(268,296,l),
(268,328,l),
(260,336,l),
(236,336,ls),
(212,336,o),
(200,324,o),
(200,300,cs),
(200,260,ls),
(200,241,o),
(213,232,o),
(228,232,cs),
(248,232,ls),
(256,232,o),
(260,228,o),
(260,220,cs),
(260,212,o),
(256,208,o),
(248,208,cs),
(204,208,l),
(200,204,l),
(200,164,l),
(204,160,l)
);
},
{
closed = 1;
nodes = (
(344,768,l),
(352,776,l),
(352,824,l),
(344,832,l),
(274,832,l),
(266,840,l),
(266,856,ls),
(266,872,o),
(274,880,o),
(290,880,cs),
(306,880,l),
(314,888,l),
(314,936,l),
(306,944,l),
(278,944,ls),
(230,944,o),
(214,928,o),
(214,880,cs),
(214,840,l),
(206,832,l),
(168,832,l),
(160,824,l),
(160,776,l),
(168,768,l)
);
}
);
width = 512;
},
{
layerId = "4FBB1917-F682-4041-B654-F2E0D2EF1242";
shapes = (
{
closed = 1;
nodes = (
(324,0,ls),
(356,0,o),
(380,16,o),
(388,32,c),
(404,32,l),
(411,19,o),
(432,0,o),
(456,0,cs),
(472,0,l),
(480,8,l),
(480,72,l),
(472,80,l),
(464,80,ls),
(440,80,o),
(432,90,o),
(432,112,cs),
(432,728,l),
(424,736,l),
(368,736,l),
(360,728,l),
(360,112,ls),
(360,88,o),
(352,80,o),
(328,80,cs),
(200,80,ls),
(128,80,o),
(104,104,o),
(104,176,cs),
(104,248,l),
(96,256,l),
(40,256,l),
(32,248,l),
(32,168,ls),
(32,40,o),
(72,0,o),
(200,0,cs)
);
},
{
closed = 1;
nodes = (
(280,152,l),
(288,160,l),
(288,200,l),
(280,208,l),
(250,208,l),
(242,216,l),
(242,232,ls),
(242,248,o),
(250,256,o),
(266,256,cs),
(274,256,l),
(282,264,l),
(282,304,l),
(274,312,l),
(262,312,ls),
(214,312,o),
(206,296,o),
(206,248,cs),
(206,216,l),
(198,208,l),
(184,208,l),
(176,200,l),
(176,160,l),
(184,152,l)
);
}
);
width = 512;
}
);
},
{
color = 5;
glyphname = "kaf-ar.medi";
layers = (
{
layerId = m01;
shapes = (
{
closed = 1;
nodes = (
(328,0,ls),
(360,0,o),
(380,16,o),
(388,32,c),
(404,32,l),
(412,16,o),
(432,0,o),
(464,0,cs),
(472,0,l),
(480,8,l),
(480,72,l),
(472,80,l),
(464,80,ls),
(440,80,o),
(432,88,o),
(432,112,cs),
(432,184,ls),
(432,280,o),
(400,312,o),
(304,312,cs),
(184,312,ls),
(160,312,o),
(152,320,o),
(152,344,cs),
(152,368,ls),
(152,416,o),
(168,432,o),
(216,432,cs),
(304,432,l),
(312,440,l),
(312,504,l),
(304,512,l),
(208,512,ls),
(112,512,o),
(80,480,o),
(80,384,cs),
(80,328,ls),
(80,264,o),
(104,232,o),
(176,232,cs),
(296,232,ls),
(344,232,o),
(360,216,o),
(360,168,cs),
(360,112,ls),
(360,88,o),
(352,80,o),
(328,80,cs),
(40,80,l),
(32,72,l),
(32,8,l),
(40,0,l)
);
}
);
width = 512;
},
{
layerId = "4FBB1917-F682-4041-B654-F2E0D2EF1242";
shapes = (
{
closed = 1;
nodes = (
(296,0,ls),
(328,0,o),
(352,16,o),
(360,32,c),
(376,32,l),
(384,16,o),
(408,0,o),
(440,0,cs),
(472,0,l),
(480,8,l),
(481,148,l),
(473,156,l),
(464,156,ls),
(452,156,o),
(448,160,o),
(448,172,cs),
(448,200,ls),
(448,272,o),
(432,304,o),
(336,304,cs),
(240,304,ls),
(228,304,o),
(224,308,o),
(224,320,cs),
(224,328,ls),
(224,344,o),
(232,352,o),
(248,352,cs),
(336,352,l),
(344,360,l),
(344,504,l),
(336,512,l),
(216,512,ls),
(104,512,o),
(64,472,o),
(64,360,cs),
(64,304,ls),
(64,240,o),
(88,208,o),
(160,208,cs),
(256,208,ls),
(280,208,o),
(288,200,o),
(288,176,cs),
(288,172,ls),
(288,164,o),
(284,160,o),
(276,160,cs),
(40,160,l),
(32,152,l),
(32,8,l),
(40,0,l)
);
}
);
width = 512;
},
{
associatedMasterId = m01;
layerId = "D6D5A707-FF24-484A-81B5-D1340C2C92AB";
name = "Jan 7, 23 at 20:23";
shapes = (
{
closed = 1;
nodes = (
(472,0,l),
(480,8,l),
(480,72,l),
(472,80,l),
(440,80,l),
(432,88,l),
(432,216,ls),
(432,264,o),
(408,288,o),
(360,288,cs),
(160,288,ls),
(144,288,o),
(136,296,o),
(136,312,cs),
(136,409,ls),
(136,424,o),
(144,432,o),
(160,432,cs),
(282,432,l),
(290,440,l),
(290,504,l),
(282,512,l),
(136,512,ls),
(88,512,o),
(64,488,o),
(64,440,cs),
(64,280,ls),
(64,232,o),
(89,208,o),
(136,208,cs),
(336,208,ls),
(352,208,o),
(360,200,o),
(360,184,cs),
(360,88,l),
(352,80,l),
(40,80,l),
(32,72,l),
(32,8,l),
(40,0,l)
);
}
);
width = 512;
}
);
unicode = 65244;
},
{
color = 5;
glyphname = "kaf-ar.init";
layers = (
{
layerId = m01;
shapes = (
{
closed = 1;
nodes = (
(336,0,ls),
(408,0,o),
(432,32,o),
(432,96,cs),
(432,184,ls),
(432,280,o),
(400,312,o),
(304,312,cs),
(184,312,ls),
(160,312,o),
(152,320,o),
(152,344,cs),
(152,368,ls),
(152,416,o),
(168,432,o),
(216,432,cs),
(312,432,l),
(320,440,l),
(320,504,l),
(312,512,l),
(208,512,ls),
(112,512,o),
(80,480,o),
(80,384,cs),
(80,328,ls),
(80,264,o),
(104,232,o),
(176,232,cs),
(296,232,ls),
(344,232,o),
(360,216,o),
(360,168,cs),
(360,112,ls),
(360,88,o),
(352,80,o),
(328,80,cs),
(40,80,l),
(32,72,l),
(32,8,l),
(40,0,l)
);
}
);
width = 512;
},
{
layerId = "4FBB1917-F682-4041-B654-F2E0D2EF1242";
shapes = (
{
closed = 1;
nodes = (
(368,0,ls),
(440,0,o),
(464,32,o),
(464,96,cs),
(464,176,ls),
(464,272,o),
(432,304,o),
(336,304,cs),
(240,304,ls),
(228,304,o),
(224,308,o),
(224,320,cs),
(224,328,ls),
(224,344,o),
(232,352,o),
(248,352,cs),
(336,352,l),
(344,360,l),
(344,504,l),
(336,512,l),
(216,512,ls),
(104,512,o),
(64,472,o),
(64,360,cs),
(64,304,ls),
(64,240,o),
(88,208,o),
(160,208,cs),
(272,208,ls),
(296,208,o),
(304,200,o),
(304,176,cs),
(304,172,ls),
(304,164,o),
(300,160,o),
(292,160,cs),
(40,160,l),
(32,152,l),
(32,8,l),
(40,0,l)
);
}
);
width = 512;
},
{
associatedMasterId = m01;
layerId = "660D3B4B-804F-48ED-A3BF-331AC66658B7";
name = "Jan 7, 23 at 18:31";
shapes = (
{
closed = 1;
nodes = (
(360,0,ls),
(408,0,o),
(432,24,o),
(432,72,cs),
(432,240,ls),
(432,288,o),
(408,312,o),
(360,312,cs),
(160,312,ls),
(144,312,o),
(136,320,o),
(136,336,cs),
(136,409,ls),
(136,424,o),
(144,432,o),
(160,432,cs),
(352,432,l),
(360,440,l),
(360,504,l),
(352,512,l),
(136,512,ls),
(88,512,o),
(64,488,o),
(64,440,cs),
(64,304,ls),
(64,256,o),
(89,232,o),
(136,232,cs),
(336,232,ls),
(352,232,o),
(360,224,o),
(360,208,cs),
(360,104,ls),
(360,88,o),
(352,80,o),
(336,80,cs),
(40,80,l),
(32,72,l),
(32,8,l),
(40,0,l)
);
}
);
width = 512;
}
);
unicode = 65243;
},
{
color = 5;
glyphname = "keheh-ar";
layers = (
{
layerId = m01;
shapes = (
{
closed = 1;
nodes = (
(424,0,l),
(472,0,o),
(496,24,o),
(496,72,cs),
(496,224,ls),
(496,272,o),
(472,296,o),
(424,296,cs),
(160,296,ls),
(144,296,o),
(136,304,o),
(136,320,cs),
(136,409,ls),
(136,424,o),
(144,432,o),
(160,432,cs),
(282,432,l),
(290,440,l),
(290,504,l),
(282,512,l),
(136,512,ls),
(88,512,o),
(64,488,o),
(64,440,cs),
(64,288,ls),
(64,240,o),
(89,216,o),
(136,216,cs),
(400,216,ls),
(416,216,o),
(424,208,o),
(424,192,cs),
(424,104,ls),
(424,88,o),
(416,80,o),
(400,80,cs),
(32,80,l),
(24,72,l),
(24,8,l),
(32,0,l)
);
}
);
width = 512;
},
{
layerId = "4FBB1917-F682-4041-B654-F2E0D2EF1242";
shapes = (
{
closed = 1;
nodes = (
(424,0,l),
(472,0,o),
(496,24,o),
(496,72,cs),
(496,224,ls),
(496,272,o),
(472,296,o),
(424,296,cs),
(160,296,ls),
(144,296,o),
(136,304,o),
(136,320,cs),
(136,409,ls),
(136,424,o),
(144,432,o),
(160,432,cs),
(282,432,l),
(290,440,l),
(290,504,l),
(282,512,l),
(136,512,ls),
(88,512,o),
(64,488,o),
(64,440,cs),
(64,288,ls),
(64,240,o),
(89,216,o),
(136,216,cs),
(400,216,ls),
(416,216,o),
(424,208,o),
(424,192,cs),
(424,104,ls),
(424,88,o),
(416,80,o),
(400,80,cs),
(32,80,l),
(24,72,l),
(24,8,l),
(32,0,l)
);
}
);
width = 512;
}
);
metricWidth = space;
unicode = 1705;
},
{
color = 5;
glyphname = "keheh-ar.fina";
layers = (
{
layerId = m01;
shapes = (
{
closed = 1;
nodes = (
(472,0,l),
(480,8,l),
(480,72,l),
(472,80,l),
(440,80,l),
(432,88,l),
(432,216,ls),
(432,264,o),
(408,288,o),
(360,288,cs),
(160,288,ls),
(144,288,o),
(136,296,o),
(136,312,cs),
(136,409,ls),
(136,424,o),
(144,432,o),
(160,432,cs),
(282,432,l),
(290,440,l),
(290,504,l),
(282,512,l),
(136,512,ls),
(88,512,o),
(64,488,o),
(64,440,cs),
(64,280,ls),
(64,232,o),
(89,208,o),
(136,208,cs),
(336,208,ls),
(352,208,o),
(360,200,o),
(360,184,cs),
(360,88,l),
(352,80,l),
(40,80,l),
(32,72,l),
(32,8,l),
(40,0,l)
);
}
);
width = 512;
},
{
layerId = "4FBB1917-F682-4041-B654-F2E0D2EF1242";
shapes = (
{
closed = 1;
nodes = (
(472,0,l),
(480,8,l),
(480,72,l),
(472,80,l),
(440,80,l),
(432,88,l),
(432,216,ls),
(432,264,o),
(408,288,o),
(360,288,cs),
(160,288,ls),
(144,288,o),
(136,296,o),
(136,312,cs),
(136,409,ls),
(136,424,o),
(144,432,o),
(160,432,cs),
(282,432,l),
(290,440,l),
(290,504,l),
(282,512,l),
(136,512,ls),
(88,512,o),
(64,488,o),
(64,440,cs),
(64,280,ls),
(64,232,o),
(89,208,o),
(136,208,cs),
(336,208,ls),
(352,208,o),
(360,200,o),
(360,184,cs),
(360,88,l),
(352,80,l),
(40,80,l),
(32,72,l),
(32,8,l),
(40,0,l)
);
}
);
width = 512;
}
);
metricWidth = space;
},
{
color = 5;
glyphname = "gaf-ar";
layers = (
{
layerId = m01;
shapes = (
{
ref = "keheh-ar";
},
{
closed = 1;
nodes = (
(280,544,l),
(288,552,l),
(288,583,l),
(280,592,l),
(72,592,l),
(64,584,l),
(64,552,l),
(72,544,l)
);
}
);
width = 512;
},
{
layerId = "4FBB1917-F682-4041-B654-F2E0D2EF1242";
shapes = (
{
ref = "keheh-ar";
},
{
closed = 1;
nodes = (
(280,544,l),
(288,552,l),
(288,583,l),
(280,592,l),
(72,592,l),
(64,584,l),
(64,552,l),
(72,544,l)
);
}
);
width = 512;
}
);
metricWidth = space;
unicode = 1711;
},
{
color = 5;
glyphname = "gaf-ar.fina";
layers = (
{
layerId = m01;
shapes = (
{
ref = "keheh-ar.fina";
},
{
closed = 1;
nodes = (
(280,544,l),
(288,552,l),
(288,583,l),
(280,592,l),
(72,592,l),
(64,584,l),
(64,552,l),
(72,544,l)
);
}
);
width = 512;
},
{
layerId = "4FBB1917-F682-4041-B654-F2E0D2EF1242";
shapes = (
{
ref = "keheh-ar.fina";
},
{
closed = 1;
nodes = (
(280,544,l),
(288,552,l),
(288,583,l),
(280,592,l),
(72,592,l),
(64,584,l),
(64,552,l),
(72,544,l)
);
}
);
width = 512;
}
);
metricWidth = space;
},
{
color = 5;
glyphname = "gaf-ar.medi";
layers = (
{
layerId = m01;
shapes = (
{
ref = "kaf-ar.medi";
},
{
closed = 1;
nodes = (
(280,544,l),
(288,552,l),
(288,583,l),
(280,592,l),
(72,592,l),
(64,584,l),
(64,552,l),
(72,544,l)
);
}
);
width = 512;
},
{
layerId = "4FBB1917-F682-4041-B654-F2E0D2EF1242";
shapes = (
{
ref = "kaf-ar.medi";
},
{
closed = 1;
nodes = (
(280,544,l),
(288,552,l),
(288,583,l),
(280,592,l),
(72,592,l),
(64,584,l),
(64,552,l),
(72,544,l)
);
}
);
width = 512;
}
);
metricWidth = space;
},
{
color = 5;
glyphname = "gaf-ar.init";
layers = (
{
layerId = m01;
shapes = (
{
ref = "kaf-ar.init";
},
{
closed = 1;
nodes = (
(280,544,l),
(288,552,l),
(288,583,l),
(280,592,l),
(72,592,l),
(64,584,l),
(64,552,l),
(72,544,l)
);
}
);
width = 512;
},
{
layerId = "4FBB1917-F682-4041-B654-F2E0D2EF1242";
shapes = (
{
ref = "kaf-ar.init";
},
{
closed = 1;
nodes = (
(280,544,l),
(288,552,l),
(288,583,l),
(280,592,l),
(72,592,l),
(64,584,l),
(64,552,l),
(72,544,l)
);
}
);
width = 512;
}
);
metricWidth = space;
},
{
color = 5;
glyphname = "lam-ar";
layers = (
{
layerId = m01;
shapes = (
{
closed = 1;
nodes = (
(400,-232,ls),
(464,-232,o),
(480,-192,o),
(480,-136,c),
(480,616,l),
(472,624,l),
(416,624,l),
(408,616,l),
(408,-112,ls),
(408,-144,o),
(400,-152,o),
(368,-152,cs),
(144,-152,ls),
(112,-152,o),
(104,-144,o),
(104,-112,cs),
(104,-56,l),
(96,-48,l),
(40,-48,l),
(32,-56,l),
(32,-136,ls),
(32,-192,o),
(48,-232,o),
(112,-232,cs)
);
}
);
width = 512;
},
{
layerId = "4FBB1917-F682-4041-B654-F2E0D2EF1242";
shapes = (
{
closed = 1;
nodes = (
(400,-232,ls),
(464,-232,o),
(480,-192,o),
(480,-136,c),
(480,616,l),
(472,624,l),
(416,624,l),
(408,616,l),
(408,-112,ls),
(408,-144,o),
(400,-152,o),
(368,-152,cs),
(144,-152,ls),
(112,-152,o),
(104,-144,o),
(104,-112,cs),
(104,-56,l),
(96,-48,l),
(40,-48,l),
(32,-56,l),
(32,-136,ls),
(32,-192,o),
(48,-232,o),
(112,-232,cs)
);
}
);
width = 512;
}
);
metricWidth = space;
unicode = 1604;
},
{
color = 5;
glyphname = "lam-ar.fina";
layers = (
{
layerId = m01;
shapes = (
{
closed = 1;
nodes = (
(328,-208,ls),
(392,-208,o),
(408,-168,o),
(408,-112,cs),
(408,-8,l),
(416,0,l),
(480,0,l),
(488,8,l),
(488,72,l),
(480,80,l),
(416,80,l),
(408,88,l),
(408,616,l),
(400,624,l),
(344,624,l),
(336,616,l),
(336,-88,ls),
(336,-120,o),
(328,-128,o),
(296,-128,cs),
(144,-128,ls),
(112,-128,o),
(104,-120,o),
(104,-88,cs),
(104,-40,l),
(96,-32,l),
(40,-32,l),
(32,-40,l),
(32,-112,ls),
(32,-168,o),
(48,-208,o),
(112,-208,cs)
);
}
);
width = 512;
},
{
layerId = "4FBB1917-F682-4041-B654-F2E0D2EF1242";
shapes = (
{
closed = 1;
nodes = (
(328,-208,ls),
(392,-208,o),
(408,-168,o),
(408,-112,cs),
(408,-8,l),
(416,0,l),
(480,0,l),
(488,8,l),
(488,72,l),
(480,80,l),
(416,80,l),
(408,88,l),
(408,616,l),
(400,624,l),
(344,624,l),
(336,616,l),
(336,-88,ls),
(336,-120,o),
(328,-128,o),
(296,-128,cs),
(144,-128,ls),
(112,-128,o),
(104,-120,o),
(104,-88,cs),
(104,-56,l),
(96,-48,l),
(40,-48,l),
(32,-56,l),
(32,-112,ls),
(32,-168,o),
(48,-208,o),
(112,-208,cs)
);
}
);
width = 512;
}
);
metricWidth = space;
},
{
color = 5;
glyphname = "lam-ar.medi";
layers = (
{
anchors = (
{
name = top;
pos = (256,736);
}
);
layerId = m01;
shapes = (
{
closed = 1;
nodes = (
(184,0,ls),
(216,0,o),
(240,16,o),
(248,32,c),
(264,32,l),
(272,16,o),
(296,0,o),
(328,0,cs),
(472,0,l),
(480,8,l),
(480,72,l),
(472,80,l),
(324,80,ls),
(300,80,o),
(292,88,o),
(292,112,cs),
(292,728,l),
(284,736,l),
(228,736,l),
(220,728,l),
(220,112,ls),
(220,88,o),
(212,80,o),
(188,80,cs),
(40,80,l),
(32,72,l),
(32,8,l),
(40,0,l)
);
}
);
width = 512;
},
{
anchors = (
{
name = top;
pos = (256,704);
}
);
layerId = "4FBB1917-F682-4041-B654-F2E0D2EF1242";
shapes = (
{
closed = 1;
nodes = (
(184,0,ls),
(216,0,o),
(240,16,o),
(248,32,c),
(264,32,l),
(272,16,o),
(296,0,o),
(328,0,cs),
(472,0,l),
(480,8,l),
(480,72,l),
(472,80,l),
(324,80,ls),
(300,80,o),
(292,88,o),
(292,112,cs),
(292,728,l),
(284,736,l),
(228,736,l),
(220,728,l),
(220,112,ls),
(220,88,o),
(212,80,o),
(188,80,cs),
(40,80,l),
(32,72,l),
(32,8,l),
(40,0,l)
);
}
);
width = 512;
}
);
metricWidth = space;
},
{
color = 5;
glyphname = "lam-ar.init";
layers = (
{
layerId = m01;
shapes = (
{
closed = 1;
nodes = (
(400,0,o),
(432,32,o),
(432,128,cs),
(432,728,l),
(424,736,l),
(368,736,l),
(360,728,l),
(360,144,ls),
(360,96,o),
(344,80,o),
(296,80,cs),
(40,80,l),
(32,72,l),
(32,8,l),
(40,0,l),
(304,0,ls)
);
}
);
width = 512;
},
{
layerId = "4FBB1917-F682-4041-B654-F2E0D2EF1242";
shapes = (
{
closed = 1;
nodes = (
(432,0,o),
(448,40,o),
(448,96,cs),
(448,592,l),
(440,600,l),
(384,600,l),
(376,592,l),
(376,120,ls),
(376,88,o),
(368,80,o),
(336,80,cs),
(24,80,l),
(16,72,l),
(16,8,l),
(24,0,l),
(368,0,ls)
);
}
);
width = 512;
}
);
metricWidth = space;
},
{
color = 5;
glyphname = "meem-ar";
layers = (
{
layerId = m01;
shapes = (
{
closed = 1;
nodes = (
(96,-256,l),
(104,-248,l),
(104,-64,ls),
(104,-16,o),
(120,0,o),
(168,0,cs),
(472,0,l),
(480,8,l),
(480,176,ls),
(480,280,o),
(424,336,o),
(320,336,cs),
(216,336,o),
(160,280,o),
(160,176,cs),
(160,168,l),
(168,160,l),
(224,160,l),
(232,168,l),
(232,224,o),
(264,256,o),
(320,256,cs),
(376,256,o),
(408,224,o),
(408,168,cs),
(408,80,l),
(160,80,ls),
(64,80,o),
(32,48,o),
(32,-48,cs),
(32,-248,l),
(40,-256,l)
);
}
);
width = 512;
},
{
layerId = "4FBB1917-F682-4041-B654-F2E0D2EF1242";
shapes = (
{
closed = 1;
nodes = (
(96,-256,l),
(104,-248,l),
(104,-64,ls),
(104,-16,o),
(120,0,o),
(168,0,cs),
(472,0,l),
(480,8,l),
(480,176,ls),
(480,280,o),
(424,336,o),
(320,336,cs),
(216,336,o),
(160,280,o),
(160,176,cs),
(160,168,l),
(168,160,l),
(224,160,l),
(232,168,l),
(232,224,o),
(264,256,o),
(320,256,cs),
(376,256,o),
(408,224,o),
(408,168,cs),
(408,80,l),
(160,80,ls),
(64,80,o),
(32,48,o),
(32,-48,cs),
(32,-248,l),
(40,-256,l)
);
}
);
width = 512;
},
{
associatedMasterId = m01;
layerId = "1340C5A1-4B00-4723-BC72-3A2FEECC143B";
name = "Nov 13, 22, 13:37";
shapes = (
{
closed = 1;
nodes = (
(232,225,o),
(271,264,o),
(320,264,cs),
(369,264,o),
(408,225,o),
(408,176,cs),
(408,80,l),
(160,80,ls),
(64,80,o),
(32,48,o),
(32,-48,cs),
(32,-248,l),
(40,-256,l),
(96,-256,l),
(104,-248,l),
(104,-64,ls),
(104,-16,o),
(120,0,o),
(168,0,cs),
(472,0,l),
(480,8,l),
(480,176,ls),
(480,264,o),
(408,336,o),
(320,336,cs),
(232,336,o),
(160,264,o),
(160,176,cs),
(160,136,l),
(168,128,l),
(224,128,l),
(232,136,l),
(232,176,ls)
);
}
);
width = 512;
},
{
associatedMasterId = m01;
layerId = "530788B0-20DE-43A3-A9FB-48E0F82859ED";
name = "Nov 13, 22, 13:40";
shapes = (
{
closed = 1;
nodes = (
(232,225,o),
(271,264,o),
(320,264,cs),
(369,264,o),
(408,225,o),
(408,176,cs),
(408,80,l),
(160,80,ls),
(64,80,o),
(32,48,o),
(32,-48,cs),
(32,-248,l),
(40,-256,l),
(96,-256,l),
(104,-248,l),
(104,-64,ls),
(104,-16,o),
(120,0,o),
(168,0,cs),
(472,0,l),
(480,8,l),
(480,176,ls),
(480,264,o),
(408,336,o),
(320,336,cs),
(232,336,o),
(160,264,o),
(160,176,cs),
(160,136,l),
(168,128,l),
(224,128,l),
(232,136,l),
(232,176,ls)
);
}
);
width = 512;
},
{
associatedMasterId = m01;
layerId = "5502C174-FD88-4968-B114-E77794AE8800";
name = "Nov 13, 22, 13:41";
shapes = (
{
closed = 1;
nodes = (
(64,80,o),
(32,48,o),
(32,-48,cs),
(32,-248,l),
(40,-256,l),
(96,-256,l),
(104,-248,l),
(104,-64,ls),
(104,-16,o),
(120,0,o),
(168,0,cs),
(472,0,l),
(480,8,l),
(480,208,ls),
(480,304,o),
(448,336,o),
(352,336,cs),
(288,336,ls),
(192,336,o),
(160,304,o),
(160,208,cs),
(160,136,l),
(168,128,l),
(224,128,l),
(232,136,l),
(232,192,ls),
(232,240,o),
(248,256,o),
(296,256,cs),
(344,256,ls),
(392,256,o),
(408,240,o),
(408,192,cs),
(408,80,l),
(160,80,ls)
);
}
);
width = 512;
}
);
metricWidth = space;
unicode = 1605;
},
{
color = 5;
glyphname = "meem-ar.fina";
layers = (
{
layerId = m01;
shapes = (
{
closed = 1;
nodes = (
(349,-80,o),
(402,-48,o),
(431,0,c),
(472,0,l),
(480,8,l),
(480,71,l),
(472,80,l),
(464,80,l),
(456,88,l),
(456,181,o),
(381,256,o),
(288,256,cs),
(195,256,o),
(120,181,o),
(120,88,c),
(112,80,l),
(96,80,ls),
(32,80,o),
(0,48,o),
(0,-16,cs),
(0,-258,l),
(8,-266,l),
(64,-266,l),
(72,-258,l),
(72,-32,ls),
(72,-8,o),
(80,0,o),
(104,0,cs),
(145,0,l),
(174,-48,o),
(227,-80,o),
(288,-80,cs)
);
},
{
closed = 1;
nodes = (
(196,135,o),
(234,176,o),
(288,176,cs),
(343,176,o),
(380,135,o),
(380,88,cs),
(380,42,o),
(343,0,o),
(288,0,cs),
(234,0,o),
(196,42,o),
(196,88,cs)
);
}
);
width = 512;
},
{
layerId = "4FBB1917-F682-4041-B654-F2E0D2EF1242";
shapes = (
{
closed = 1;
nodes = (
(349,-80,o),
(402,-48,o),
(431,0,c),
(472,0,l),
(480,8,l),
(480,71,l),
(472,80,l),
(464,80,l),
(456,88,l),
(456,181,o),
(381,256,o),
(288,256,cs),
(195,256,o),
(120,181,o),
(120,88,c),
(112,80,l),
(96,80,ls),
(32,80,o),
(0,48,o),
(0,-16,cs),
(0,-258,l),
(8,-266,l),
(64,-266,l),
(72,-258,l),
(72,-32,ls),
(72,-8,o),
(80,0,o),
(104,0,cs),
(145,0,l),
(174,-48,o),
(227,-80,o),
(288,-80,cs)
);
},
{
closed = 1;
nodes = (
(196,135,o),
(234,176,o),
(288,176,cs),
(343,176,o),
(380,135,o),
(380,88,cs),
(380,42,o),
(343,0,o),
(288,0,cs),
(234,0,o),
(196,42,o),
(196,88,cs)
);
}
);
width = 512;
},
{
associatedMasterId = m01;
layerId = "4C13446A-6C30-4147-A2ED-76E49F1550B4";
name = "Nov 13, 22, 13:11";
shapes = (
{
closed = 1;
nodes = (
(349,-80,o),
(424,-5,o),
(424,88,cs),
(424,181,o),
(349,256,o),
(256,256,cs),
(163,256,o),
(88,181,o),
(88,88,cs),
(88,-5,o),
(163,-80,o),
(256,-80,cs)
);
},
{
closed = 1;
nodes = (
(202,0,o),
(164,42,o),
(164,88,cs),
(164,135,o),
(202,176,o),
(256,176,cs),
(311,176,o),
(348,135,o),
(348,88,cs),
(348,42,o),
(311,0,o),
(256,0,cs)
);
},
{
closed = 1;
nodes = (
(136,0,l),
(144,8,l),
(144,71,l),
(136,80,l),
(32,80,l),
(24,72,l),
(24,8,l),
(32,0,l)
);
}
);
width = 512;
}
);
metricWidth = space;
},
{
color = 5;
glyphname = "meem-ar.medi";
layers = (
{
layerId = m01;
shapes = (
{
closed = 1;
nodes = (
(317,-80,o),
(370,-48,o),
(399,0,c),
(480,0,l),
(488,8,l),
(488,71,l),
(480,80,l),
(432,80,l),
(424,88,l),
(424,181,o),
(349,256,o),
(256,256,cs),
(163,256,o),
(88,181,o),
(88,88,c),
(80,80,l),
(40,80,l),
(32,72,l),
(32,8,l),
(40,0,l),
(113,0,l),
(113,-1,l),
(143,-49,o),
(196,-80,o),
(256,-80,cs)
);
},
{
closed = 1;
nodes = (
(164,135,o),
(202,176,o),
(256,176,cs),
(311,176,o),
(348,135,o),
(348,88,cs),
(348,42,o),
(311,0,o),
(256,0,cs),
(202,0,o),
(164,42,o),
(164,88,cs)
);
}
);
width = 512;
},
{
layerId = "4FBB1917-F682-4041-B654-F2E0D2EF1242";
shapes = (
{
closed = 1;
nodes = (
(317,-80,o),
(370,-48,o),
(399,0,c),
(480,0,l),
(488,8,l),
(488,71,l),
(480,80,l),
(432,80,l),
(424,88,l),
(424,181,o),
(349,256,o),
(256,256,cs),
(163,256,o),
(88,181,o),
(88,88,c),
(80,80,l),
(40,80,l),
(32,72,l),
(32,8,l),
(40,0,l),
(113,0,l),
(113,-1,l),
(143,-49,o),
(196,-80,o),
(256,-80,cs)
);
},
{
closed = 1;
nodes = (
(164,135,o),
(202,176,o),
(256,176,cs),
(311,176,o),
(348,135,o),
(348,88,cs),
(348,42,o),
(311,0,o),
(256,0,cs),
(202,0,o),
(164,42,o),
(164,88,cs)
);
}
);
width = 512;
},
{
associatedMasterId = m01;
layerId = "3B4ECED3-71B8-4675-B521-9C701169D1A6";
name = "Nov 13, 22, 13:08";
shapes = (
{
closed = 1;
nodes = (
(349,-80,o),
(424,-5,o),
(424,88,cs),
(424,181,o),
(349,256,o),
(256,256,cs),
(163,256,o),
(88,181,o),
(88,88,cs),
(88,-5,o),
(163,-80,o),
(256,-80,cs)
);
},
{
closed = 1;
nodes = (
(202,0,o),
(164,42,o),
(164,88,cs),
(164,135,o),
(202,176,o),
(256,176,cs),
(311,176,o),
(348,135,o),
(348,88,cs),
(348,42,o),
(311,0,o),
(256,0,cs)
);
}
);
width = 512;
}
);
metricWidth = space;
},
{
color = 5;
glyphname = "meem-ar.init";
layers = (
{
layerId = m01;
shapes = (
{
closed = 1;
nodes = (
(349,-80,o),
(424,-5,o),
(424,88,cs),
(424,181,o),
(349,256,o),
(256,256,cs),
(163,256,o),
(88,181,o),
(88,88,c),
(80,80,l),
(32,80,l),
(24,72,l),
(24,8,l),
(32,0,l),
(113,0,l),
(142,-48,o),
(195,-80,o),
(256,-80,cs)
);
},
{
closed = 1;
nodes = (
(164,135,o),
(202,176,o),
(256,176,cs),
(311,176,o),
(348,135,o),
(348,88,cs),
(348,42,o),
(311,0,o),
(256,0,cs),
(202,0,o),
(164,42,o),
(164,88,cs)
);
}
);
width = 512;
},
{
layerId = "4FBB1917-F682-4041-B654-F2E0D2EF1242";
shapes = (
{
closed = 1;
nodes = (
(349,-80,o),
(424,-5,o),
(424,88,cs),
(424,181,o),
(349,256,o),
(256,256,cs),
(163,256,o),
(88,181,o),
(88,88,c),
(80,80,l),
(32,80,l),
(24,72,l),
(24,8,l),
(32,0,l),
(113,0,l),
(142,-48,o),
(195,-80,o),
(256,-80,cs)
);
},
{
closed = 1;
nodes = (
(164,135,o),
(202,176,o),
(256,176,cs),
(311,176,o),
(348,135,o),
(348,88,cs),
(348,42,o),
(311,0,o),
(256,0,cs),
(202,0,o),
(164,42,o),
(164,88,cs)
);
}
);
width = 512;
},
{
associatedMasterId = m01;
layerId = "211C8A8B-3F56-4F6C-BF21-248512399D4B";
name = "Nov 13, 22, 13:10";
shapes = (
{
closed = 1;
nodes = (
(349,-80,o),
(424,-5,o),
(424,88,cs),
(424,181,o),
(349,256,o),
(256,256,cs),
(163,256,o),
(88,181,o),
(88,88,cs),
(88,-5,o),
(163,-80,o),
(256,-80,cs)
);
},
{
closed = 1;
nodes = (
(202,0,o),
(164,42,o),
(164,88,cs),
(164,135,o),
(202,176,o),
(256,176,cs),
(311,176,o),
(348,135,o),
(348,88,cs),
(348,42,o),
(311,0,o),
(256,0,cs)
);
},
{
closed = 1;
nodes = (
(136,0,l),
(144,8,l),
(144,71,l),
(136,80,l),
(32,80,l),
(24,72,l),
(24,8,l),
(32,0,l)
);
}
);
width = 512;
}
);
metricWidth = space;
},
{
color = 5;
glyphname = "noonghunna-ar";
layers = (
{
anchors = (
{
name = top;
pos = (256,208);
}
);
layerId = m01;
shapes = (
{
closed = 1;
nodes = (
(304,-208,ls),
(400,-208,o),
(432,-176,o),
(432,-80,c),
(432,200,l),
(424,208,l),
(368,208,l),
(360,200,l),
(360,-64,ls),
(360,-112,o),
(344,-128,o),
(296,-128,cs),
(248,-128,ls),
(176,-128,o),
(152,-104,o),
(152,-32,cs),
(152,72,l),
(144,80,l),
(88,80,l),
(80,72,l),
(80,-40,ls),
(80,-168,o),
(120,-208,o),
(248,-208,cs)
);
}
);
width = 512;
},
{
anchors = (
{
name = top;
pos = (256,208);
}
);
layerId = "4FBB1917-F682-4041-B654-F2E0D2EF1242";
shapes = (
{
closed = 1;
nodes = (
(336,-208,ls),
(432,-208,o),
(464,-176,o),
(464,-80,c),
(464,200,l),
(456,208,l),
(312,208,l),
(304,200,l),
(304,0,ls),
(304,-32,o),
(296,-48,o),
(264,-48,cs),
(248,-48,ls),
(216,-48,o),
(208,-32,o),
(208,0,cs),
(208,104,l),
(200,112,l),
(56,112,l),
(48,104,l),
(48,-40,ls),
(48,-168,o),
(88,-208,o),
(216,-208,cs)
);
}
);
width = 512;
},
{
anchors = (
{
name = top;
pos = (256,208);
}
);
associatedMasterId = m01;
layerId = "3926EACE-DE31-4EDB-B218-FE14C995EBE0";
name = "Jan 7, 23 at 18:29";
shapes = (
{
closed = 1;
nodes = (
(304,-208,ls),
(400,-208,o),
(432,-176,o),
(432,-80,cs),
(432,-8,l),
(440,0,l),
(472,0,l),
(480,8,l),
(480,72,l),
(472,80,l),
(440,80,l),
(432,88,l),
(432,200,l),
(424,208,l),
(368,208,l),
(360,200,l),
(360,-64,ls),
(360,-112,o),
(344,-128,o),
(296,-128,cs),
(216,-128,ls),
(168,-128,o),
(152,-112,o),
(152,-64,cs),
(152,72,l),
(144,80,l),
(88,80,l),
(80,72,l),
(80,-80,ls),
(80,-176,o),
(112,-208,o),
(208,-208,cs)
);
}
);
width = 512;
}
);
unicode = 1722;
},
{
color = 5;
glyphname = "noonghunna-ar.fina";
layers = (
{
anchors = (
{
name = top;
pos = (256,208);
}
);
layerId = m01;
shapes = (
{
closed = 1;
nodes = (
(304,-208,ls),
(400,-208,o),
(432,-176,o),
(432,-80,cs),
(432,-8,l),
(440,0,l),
(472,0,l),
(480,8,l),
(480,72,l),
(472,80,l),
(440,80,l),
(432,88,l),
(432,200,l),
(424,208,l),
(368,208,l),
(360,200,l),
(360,-64,ls),
(360,-112,o),
(344,-128,o),
(296,-128,cs),
(248,-128,ls),
(176,-128,o),
(152,-104,o),
(152,-32,cs),
(152,72,l),
(144,80,l),
(88,80,l),
(80,72,l),
(80,-40,ls),
(80,-168,o),
(120,-208,o),
(248,-208,cs)
);
}
);
width = 512;
},
{
anchors = (
{
name = top;
pos = (256,208);
}
);
layerId = "4FBB1917-F682-4041-B654-F2E0D2EF1242";
shapes = (
{
closed = 1;
nodes = (
(320,-208,ls),
(416,-208,o),
(448,-176,o),
(448,-80,cs),
(448,-8,l),
(456,0,l),
(472,0,l),
(480,8,l),
(480,152,l),
(472,160,l),
(456,160,l),
(448,168,l),
(448,200,l),
(440,208,l),
(312,208,l),
(304,200,l),
(304,0,ls),
(304,-32,o),
(296,-48,o),
(264,-48,cs),
(248,-48,ls),
(216,-48,o),
(208,-32,o),
(208,0,cs),
(208,104,l),
(200,112,l),
(56,112,l),
(48,104,l),
(48,-40,ls),
(48,-168,o),
(88,-208,o),
(216,-208,cs)
);
}
);
width = 512;
}
);
},
{
color = 5;
glyphname = "heh-ar";
layers = (
{
anchors = (
{
name = bottom;
pos = (256,0);
},
{
name = top;
pos = (257,336);
}
);
layerId = m01;
shapes = (
{
closed = 1;
nodes = (
(412,0,o),
(428,40,o),
(428,96,cs),
(428,240,ls),
(428,296,o),
(412,336,o),
(348,336,cs),
(164,336,ls),
(100,336,o),
(84,296,o),
(84,240,cs),
(84,96,ls),
(84,40,o),
(100,0,o),
(164,0,c),
(348,0,l)
);
},
{
closed = 1;
nodes = (
(316,256,l),
(348,256,o),
(356,248,o),
(356,216,cs),
(356,120,ls),
(356,88,o),
(348,80,o),
(316,80,c),
(196,80,l),
(164,80,o),
(156,88,o),
(156,120,cs),
(156,216,ls),
(156,248,o),
(164,256,o),
(196,256,c)
);
}
);
width = 512;
},
{
anchors = (
{
name = bottom;
pos = (256,0);
},
{
name = top;
pos = (257,336);
}
);
layerId = "4FBB1917-F682-4041-B654-F2E0D2EF1242";
shapes = (
{
closed = 1;
nodes = (
(412,0,o),
(428,40,o),
(428,96,cs),
(428,240,ls),
(428,296,o),
(412,336,o),
(348,336,cs),
(164,336,ls),
(100,336,o),
(84,296,o),
(84,240,cs),
(84,96,ls),
(84,40,o),
(100,0,o),
(164,0,c),
(348,0,l)
);
},
{
closed = 1;
nodes = (
(316,256,l),
(348,256,o),
(356,248,o),
(356,216,cs),
(356,120,ls),
(356,88,o),
(348,80,o),
(316,80,c),
(196,80,l),
(164,80,o),
(156,88,o),
(156,120,cs),
(156,216,ls),
(156,248,o),
(164,256,o),
(196,256,c)
);
}
);
width = 512;
}
);
unicode = 1607;
},
{
color = 5;
glyphname = "heh-ar.fina";
layers = (
{
anchors = (
{
name = top;
pos = (234,336);
}
);
layerId = m01;
shapes = (
{
closed = 1;
nodes = (
(488,8,l),
(488,72,l),
(480,80,l),
(384,80,ls),
(352,80,o),
(344,88,o),
(344,120,cs),
(344,376,l),
(336,384,l),
(280,384,l),
(272,376,l),
(272,344,l),
(264,336,l),
(208,336,ls),
(128,336,o),
(80,288,o),
(80,208,cs),
(80,96,ls),
(80,32,o),
(104,0,o),
(176,0,cs),
(269,0,l),
(277,8,l),
(277,27,l),
(285,27,l),
(297,10,o),
(312,0,o),
(336,0,cs),
(480,0,l)
);
},
{
closed = 1;
nodes = (
(152,192,ls),
(152,240,o),
(168,256,o),
(216,256,cs),
(264,256,l),
(272,248,l),
(272,88,l),
(264,80,l),
(184,80,ls),
(160,80,o),
(152,88,o),
(152,112,cs)
);
}
);
width = 512;
},
{
anchors = (
{
name = top;
pos = (186,344);
}
);
layerId = "4FBB1917-F682-4041-B654-F2E0D2EF1242";
shapes = (
{
closed = 1;
nodes = (
(488,8,l),
(488,72,l),
(480,80,l),
(352,80,ls),
(320,80,o),
(312,88,o),
(312,120,cs),
(312,336,l),
(304,344,l),
(248,344,l),
(240,336,l),
(240,304,l),
(232,296,l),
(128,296,ls),
(64,296,o),
(48,256,o),
(48,200,cs),
(48,96,ls),
(48,40,o),
(64,0,o),
(128,0,cs),
(237,0,l),
(245,8,l),
(245,27,l),
(253,27,l),
(265,10,o),
(280,0,o),
(304,0,cs),
(480,0,l)
);
},
{
closed = 1;
nodes = (
(120,176,ls),
(120,208,o),
(128,216,o),
(160,216,cs),
(232,216,l),
(240,208,l),
(240,88,l),
(232,80,l),
(160,80,ls),
(128,80,o),
(120,88,o),
(120,120,cs)
);
}
);
width = 512;
}
);
},
{
color = 5;
glyphname = "heh-ar.medi";
layers = (
{
layerId = m01;
shapes = (
{
closed = 1;
nodes = (
(272,-256,ls),
(368,-256,o),
(400,-224,o),
(400,-128,cs),
(400,-64,ls),
(400,-40,o),
(384,-16,o),
(368,-8,c),
(368,0,l),
(472,0,l),
(480,8,l),
(480,72,l),
(472,80,l),
(336,80,l),
(336,88,l),
(352,96,o),
(368,120,o),
(368,144,cs),
(368,208,ls),
(368,304,o),
(336,336,o),
(240,336,cs),
(208,336,ls),
(144,336,o),
(112,304,o),
(112,240,cs),
(112,88,l),
(104,80,l),
(40,80,l),
(32,72,l),
(32,8,l),
(40,0,l),
(104,0,l),
(112,-8,l),
(112,-160,ls),
(112,-224,o),
(144,-256,o),
(208,-256,cs)
);
},
{
closed = 1;
nodes = (
(192,-176,o),
(184,-168,o),
(184,-144,cs),
(184,-8,l),
(192,0,l),
(264,0,ls),
(312,0,o),
(328,-16,o),
(328,-64,cs),
(328,-112,ls),
(328,-160,o),
(312,-176,o),
(264,-176,cs),
(216,-176,ls)
);
},
{
closed = 1;
nodes = (
(184,88,l),
(184,224,ls),
(184,248,o),
(192,256,o),
(216,256,cs),
(232,256,ls),
(280,256,o),
(296,240,o),
(296,192,cs),
(296,144,ls),
(296,96,o),
(280,80,o),
(232,80,cs),
(192,80,l)
);
}
);
width = 512;
},
{
associatedMasterId = m01;
layerId = "EDA95562-6B60-49F0-B28D-0C0C55C056C7";
name = "Jan 8, 23 at 20:07";
shapes = (
{
closed = 1;
nodes = (
(272,-256,ls),
(368,-256,o),
(400,-224,o),
(400,-128,cs),
(400,-64,ls),
(400,-40,o),
(384,-16,o),
(368,-8,c),
(368,0,l),
(472,0,l),
(480,8,l),
(480,72,l),
(472,80,l),
(336,80,l),
(336,88,l),
(352,96,o),
(368,120,o),
(368,144,cs),
(368,208,ls),
(368,304,o),
(336,336,o),
(240,336,cs),
(208,336,ls),
(144,336,o),
(112,304,o),
(112,240,cs),
(112,88,l),
(104,80,l),
(40,80,l),
(32,72,l),
(32,8,l),
(40,0,l),
(104,0,l),
(112,-8,l),
(112,-160,ls),
(112,-224,o),
(144,-256,o),
(208,-256,cs)
);
},
{
closed = 1;
nodes = (
(192,-176,o),
(184,-168,o),
(184,-144,cs),
(184,-8,l),
(192,0,l),
(296,0,ls),
(320,0,o),
(328,-8,o),
(328,-32,cs),
(328,-112,ls),
(328,-160,o),
(312,-176,o),
(264,-176,cs),
(216,-176,ls)
);
},
{
closed = 1;
nodes = (
(184,88,l),
(184,224,ls),
(184,248,o),
(192,256,o),
(216,256,cs),
(232,256,ls),
(280,256,o),
(296,240,o),
(296,192,cs),
(296,112,ls),
(296,88,o),
(288,80,o),
(264,80,cs),
(192,80,l)
);
}
);
width = 512;
},
{
associatedMasterId = m01;
layerId = "64A2A5A0-5F6E-4460-81AF-5B309671E452";
name = "Nov 8, 22, 21:53";
shapes = (
{
closed = 1;
nodes = (
(112,0,l),
(112,-128,ls),
(112,-224,o),
(144,-256,o),
(240,-256,cs),
(272,-256,ls),
(368,-256,o),
(400,-224,o),
(400,-128,cs),
(400,0,l),
(472,0,l),
(480,8,l),
(480,72,l),
(472,80,l),
(400,80,l),
(400,208,ls),
(400,304,o),
(368,336,o),
(272,336,cs),
(240,336,ls),
(144,336,o),
(112,304,o),
(112,208,cs),
(112,80,l),
(40,80,l),
(32,72,l),
(32,8,l),
(40,0,l)
);
},
{
closed = 1;
nodes = (
(184,0,l),
(328,0,l),
(328,-112,ls),
(328,-160,o),
(312,-176,o),
(264,-176,cs),
(248,-176,ls),
(200,-176,o),
(184,-160,o),
(184,-112,cs)
);
},
{
closed = 1;
nodes = (
(184,192,ls),
(184,240,o),
(200,256,o),
(248,256,cs),
(264,256,ls),
(312,256,o),
(328,240,o),
(328,192,cs),
(328,80,l),
(184,80,l)
);
}
);
width = 512;
},
{
layerId = "4FBB1917-F682-4041-B654-F2E0D2EF1242";
shapes = (
{
closed = 1;
nodes = (
(272,-256,ls),
(368,-256,o),
(400,-224,o),
(400,-128,cs),
(400,-64,ls),
(400,-40,o),
(384,-16,o),
(368,-8,c),
(368,0,l),
(472,0,l),
(480,8,l),
(480,72,l),
(472,80,l),
(336,80,l),
(336,88,l),
(352,96,o),
(368,120,o),
(368,144,cs),
(368,208,ls),
(368,304,o),
(336,336,o),
(240,336,cs),
(208,336,ls),
(144,336,o),
(112,304,o),
(112,240,cs),
(112,88,l),
(104,80,l),
(40,80,l),
(32,72,l),
(32,8,l),
(40,0,l),
(104,0,l),
(112,-8,l),
(112,-160,ls),
(112,-224,o),
(144,-256,o),
(208,-256,cs)
);
},
{
closed = 1;
nodes = (
(192,-176,o),
(184,-168,o),
(184,-144,cs),
(184,-8,l),
(192,0,l),
(296,0,ls),
(320,0,o),
(328,-8,o),
(328,-32,cs),
(328,-112,ls),
(328,-160,o),
(312,-176,o),
(264,-176,cs),
(216,-176,ls)
);
},
{
closed = 1;
nodes = (
(184,88,l),
(184,224,ls),
(184,248,o),
(192,256,o),
(216,256,cs),
(232,256,ls),
(280,256,o),
(296,240,o),
(296,192,cs),
(296,112,ls),
(296,88,o),
(288,80,o),
(264,80,cs),
(192,80,l)
);
}
);
width = 512;
},
{
associatedMasterId = m01;
layerId = "48D985C4-066A-4BF0-B0BE-A9B6BB18C382";
name = "Jan 15, 23 at 20:50";
shapes = (
{
closed = 1;
nodes = (
(272,-256,ls),
(368,-256,o),
(400,-224,o),
(400,-128,cs),
(400,-64,ls),
(400,-40,o),
(384,-16,o),
(368,-8,c),
(368,0,l),
(472,0,l),
(480,8,l),
(480,72,l),
(472,80,l),
(336,80,l),
(336,88,l),
(352,96,o),
(368,120,o),
(368,144,cs),
(368,208,ls),
(368,304,o),
(336,336,o),
(240,336,cs),
(208,336,ls),
(144,336,o),
(112,304,o),
(112,240,cs),
(112,88,l),
(104,80,l),
(40,80,l),
(32,72,l),
(32,8,l),
(40,0,l),
(104,0,l),
(112,-8,l),
(112,-160,ls),
(112,-224,o),
(144,-256,o),
(208,-256,cs)
);
},
{
closed = 1;
nodes = (
(192,-176,o),
(184,-168,o),
(184,-144,cs),
(184,-8,l),
(192,0,l),
(296,0,ls),
(320,0,o),
(328,-8,o),
(328,-32,cs),
(328,-112,ls),
(328,-160,o),
(312,-176,o),
(264,-176,cs),
(216,-176,ls)
);
},
{
closed = 1;
nodes = (
(184,88,l),
(184,224,ls),
(184,248,o),
(192,256,o),
(216,256,cs),
(232,256,ls),
(280,256,o),
(296,240,o),
(296,192,cs),
(296,112,ls),
(296,88,o),
(288,80,o),
(264,80,cs),
(192,80,l)
);
}
);
width = 512;
}
);
},
{
color = 5;
glyphname = "heh-ar.init";
layers = (
{
anchors = (
{
name = top;
pos = (252,432);
}
);
layerId = m01;
shapes = (
{
closed = 1;
nodes = (
(280,152,l),
(288,160,l),
(360,160,ls),
(424,160,o),
(456,192,o),
(456,256,cs),
(456,304,ls),
(456,400,o),
(432,432,o),
(336,432,cs),
(168,432,ls),
(72,432,o),
(48,400,o),
(48,304,cs),
(48,256,ls),
(48,192,o),
(80,160,o),
(144,160,cs),
(216,160,l),
(224,152,l),
(224,120,ls),
(224,88,o),
(216,80,o),
(184,80,cs),
(32,80,l),
(24,72,l),
(24,8,l),
(32,0,l),
(200,0,ls),
(264,0,o),
(280,40,o),
(280,96,cs)
);
},
{
closed = 1;
nodes = (
(112,288,ls),
(112,336,o),
(128,352,o),
(176,352,cs),
(216,352,l),
(224,344,l),
(224,248,l),
(216,240,l),
(144,240,ls),
(120,240,o),
(112,248,o),
(112,272,cs)
);
},
{
closed = 1;
nodes = (
(280,344,l),
(288,352,l),
(328,352,ls),
(376,352,o),
(392,336,o),
(392,288,cs),
(392,272,ls),
(392,248,o),
(384,240,o),
(360,240,cs),
(288,240,l),
(280,248,l)
);
}
);
width = 512;
},
{
anchors = (
{
name = top;
pos = (276,416);
}
);
layerId = "4FBB1917-F682-4041-B654-F2E0D2EF1242";
shapes = (
{
closed = 1;
nodes = (
(312,136,l),
(320,144,l),
(384,144,ls),
(448,144,o),
(480,176,o),
(480,240,cs),
(480,320,ls),
(480,384,o),
(448,416,o),
(384,416,cs),
(168,416,ls),
(104,416,o),
(72,384,o),
(72,320,cs),
(72,240,ls),
(72,176,o),
(104,144,o),
(168,144,cs),
(232,144,l),
(240,136,l),
(240,120,ls),
(240,88,o),
(232,80,o),
(200,80,cs),
(32,80,l),
(24,72,l),
(24,8,l),
(32,0,l),
(232,0,ls),
(296,0,o),
(312,40,o),
(312,96,cs)
);
},
{
closed = 1;
nodes = (
(144,304,ls),
(144,328,o),
(152,336,o),
(176,336,cs),
(232,336,l),
(240,328,l),
(240,232,l),
(232,224,l),
(176,224,ls),
(152,224,o),
(144,232,o),
(144,256,cs)
);
},
{
closed = 1;
nodes = (
(312,328,l),
(320,336,l),
(376,336,ls),
(400,336,o),
(408,328,o),
(408,304,cs),
(408,256,ls),
(408,232,o),
(400,224,o),
(376,224,cs),
(320,224,l),
(312,232,l)
);
}
);
width = 512;
},
{
anchors = (
{
name = top;
pos = (306,432);
}
);
associatedMasterId = m01;
layerId = "3DCBC7F0-9684-48F9-9BA6-4539A6BE5CD9";
name = "Nov 13, 22, 11:48";
shapes = (
{
closed = 1;
nodes = (
(472,160,o),
(488,200,o),
(488,256,cs),
(488,336,ls),
(488,392,o),
(472,432,o),
(408,432,cs),
(192,432,ls),
(128,432,o),
(112,392,o),
(112,336,cs),
(112,256,ls),
(112,200,o),
(128,160,o),
(192,160,cs),
(256,160,l),
(264,152,l),
(264,120,ls),
(264,88,o),
(256,80,o),
(224,80,cs),
(32,80,l),
(24,72,l),
(24,8,l),
(32,0,l),
(256,0,ls),
(320,0,o),
(336,40,o),
(336,96,cs),
(336,152,l),
(344,160,l),
(408,160,ls)
);
},
{
closed = 1;
nodes = (
(192,240,o),
(184,248,o),
(184,280,cs),
(184,312,ls),
(184,344,o),
(192,352,o),
(224,352,cs),
(256,352,l),
(264,344,l),
(264,248,l),
(256,240,l),
(224,240,ls)
);
},
{
closed = 1;
nodes = (
(336,248,l),
(336,344,l),
(344,352,l),
(376,352,ls),
(408,352,o),
(416,344,o),
(416,312,cs),
(416,280,ls),
(416,248,o),
(408,240,o),
(376,240,cs),
(344,240,l)
);
}
);
visible = 1;
width = 512;
}
);
},
{
color = 5;
glyphname = "waw-ar";
layers = (
{
anchors = (
{
name = top;
pos = (296,384);
}
);
layerId = m01;
shapes = (
{
closed = 1;
nodes = (
(304,-208,ls),
(400,-208,o),
(432,-176,o),
(432,-80,cs),
(432,256,ls),
(432,336,o),
(384,384,o),
(304,384,cs),
(288,384,ls),
(208,384,o),
(160,336,o),
(160,256,cs),
(160,104,ls),
(160,32,o),
(192,0,o),
(264,0,cs),
(352,0,l),
(360,-8,l),
(360,-64,ls),
(360,-112,o),
(344,-128,o),
(296,-128,cs),
(208,-128,ls),
(136,-128,o),
(112,-104,o),
(112,-32,cs),
(112,-8,l),
(104,0,l),
(48,0,l),
(40,-8,l),
(40,-40,ls),
(40,-168,o),
(80,-208,o),
(208,-208,cs)
);
},
{
closed = 1;
nodes = (
(232,248,ls),
(232,288,o),
(248,304,o),
(288,304,cs),
(304,304,ls),
(344,304,o),
(360,288,o),
(360,248,cs),
(360,88,l),
(352,80,l),
(264,80,ls),
(240,80,o),
(232,88,o),
(232,112,cs)
);
}
);
width = 512;
},
{
anchors = (
{
name = top;
pos = (296,312);
}
);
layerId = "4FBB1917-F682-4041-B654-F2E0D2EF1242";
shapes = (
{
closed = 1;
nodes = (
(304,-208,ls),
(400,-208,o),
(432,-176,o),
(432,-80,cs),
(432,184,ls),
(432,264,o),
(384,312,o),
(304,312,cs),
(288,312,ls),
(208,312,o),
(160,264,o),
(160,184,cs),
(160,104,ls),
(160,32,o),
(192,0,o),
(264,0,cs),
(352,0,l),
(360,-8,l),
(360,-64,ls),
(360,-112,o),
(344,-128,o),
(296,-128,cs),
(208,-128,ls),
(136,-128,o),
(112,-104,o),
(112,-32,cs),
(112,-8,l),
(104,0,l),
(48,0,l),
(40,-8,l),
(40,-40,ls),
(40,-168,o),
(80,-208,o),
(208,-208,cs)
);
},
{
closed = 1;
nodes = (
(232,176,ls),
(232,216,o),
(248,232,o),
(288,232,cs),
(304,232,ls),
(344,232,o),
(360,216,o),
(360,176,cs),
(360,88,l),
(352,80,l),
(264,80,ls),
(240,80,o),
(232,88,o),
(232,112,cs)
);
}
);
width = 512;
},
{
anchors = (
{
name = top;
pos = (336,336);
}
);
associatedMasterId = m01;
layerId = "C17E5226-CF89-4843-AF86-F94DA2A36D75";
name = "Nov 11, 22, 21:57";
shapes = (
{
closed = 1;
nodes = (
(64,-256,o),
(32,-224,o),
(32,-128,cs),
(32,-72,l),
(40,-64,l),
(96,-64,l),
(104,-72,l),
(104,-112,ls),
(104,-160,o),
(120,-176,o),
(168,-176,cs),
(344,-176,ls),
(392,-176,o),
(408,-160,o),
(408,-112,cs),
(408,-8,l),
(400,0,l),
(264,0,ls),
(216,0,o),
(192,24,o),
(192,72,cs),
(192,264,ls),
(192,312,o),
(216,336,o),
(264,336,cs),
(408,336,ls),
(456,336,o),
(480,312,o),
(480,264,cs),
(480,-128,ls),
(480,-224,o),
(448,-256,o),
(352,-256,cs),
(160,-256,ls)
);
},
{
closed = 1;
nodes = (
(400,80,l),
(408,88,l),
(408,232,ls),
(408,248,o),
(400,256,o),
(384,256,cs),
(288,256,ls),
(272,256,o),
(264,248,o),
(264,232,cs),
(264,104,ls),
(264,88,o),
(272,80,o),
(288,80,cs)
);
}
);
width = 512;
}
);
unicode = 1608;
},
